<?xml version="1.0" encoding="utf-8" standalone="no"?>
<!DOCTYPE svg PUBLIC "-//W3C//DTD SVG 1.1//EN"
  "http://www.w3.org/Graphics/SVG/1.1/DTD/svg11.dtd">
<!-- Created with matplotlib (https://matplotlib.org/) -->
<svg height="432pt" version="1.1" viewBox="0 0 720 432" width="720pt" xmlns="http://www.w3.org/2000/svg" xmlns:xlink="http://www.w3.org/1999/xlink">
 <defs>
  <style type="text/css">
*{stroke-linecap:butt;stroke-linejoin:round;}
  </style>
 </defs>
 <g id="figure_1">
  <g id="patch_1">
   <path d="M 0 432 
L 720 432 
L 720 0 
L 0 0 
z
" style="fill:#ffffff;"/>
  </g>
  <g id="axes_1">
   <g id="patch_2">
    <path d="M 90 384.48 
L 648 384.48 
L 648 51.84 
L 90 51.84 
z
" style="fill:#ffffff;"/>
   </g>
   <g id="matplotlib.axis_1">
    <g id="xtick_1">
     <g id="line2d_1">
      <path clip-path="url(#p7c4c75c8b6)" d="M 164.4 384.48 
L 164.4 51.84 
" style="fill:none;stroke:#b0b0b0;stroke-linecap:square;stroke-width:0.8;"/>
     </g>
     <g id="line2d_2">
      <defs>
       <path d="M 0 0 
L 0 3.5 
" id="mdbc71bac42" style="stroke:#000000;stroke-width:0.8;"/>
      </defs>
      <g>
       <use style="stroke:#000000;stroke-width:0.8;" x="164.4" xlink:href="#mdbc71bac42" y="384.48"/>
      </g>
     </g>
     <g id="text_1">
      <!-- 110 -->
      <defs>
       <path d="M 12.40625 8.296875 
L 28.515625 8.296875 
L 28.515625 63.921875 
L 10.984375 60.40625 
L 10.984375 69.390625 
L 28.421875 72.90625 
L 38.28125 72.90625 
L 38.28125 8.296875 
L 54.390625 8.296875 
L 54.390625 0 
L 12.40625 0 
z
" id="DejaVuSans-49"/>
       <path d="M 31.78125 66.40625 
Q 24.171875 66.40625 20.328125 58.90625 
Q 16.5 51.421875 16.5 36.375 
Q 16.5 21.390625 20.328125 13.890625 
Q 24.171875 6.390625 31.78125 6.390625 
Q 39.453125 6.390625 43.28125 13.890625 
Q 47.125 21.390625 47.125 36.375 
Q 47.125 51.421875 43.28125 58.90625 
Q 39.453125 66.40625 31.78125 66.40625 
z
M 31.78125 74.21875 
Q 44.046875 74.21875 50.515625 64.515625 
Q 56.984375 54.828125 56.984375 36.375 
Q 56.984375 17.96875 50.515625 8.265625 
Q 44.046875 -1.421875 31.78125 -1.421875 
Q 19.53125 -1.421875 13.0625 8.265625 
Q 6.59375 17.96875 6.59375 36.375 
Q 6.59375 54.828125 13.0625 64.515625 
Q 19.53125 74.21875 31.78125 74.21875 
z
" id="DejaVuSans-48"/>
      </defs>
      <g transform="translate(154.85625 399.078438)scale(0.1 -0.1)">
       <use xlink:href="#DejaVuSans-49"/>
       <use x="63.623047" xlink:href="#DejaVuSans-49"/>
       <use x="127.246094" xlink:href="#DejaVuSans-48"/>
      </g>
     </g>
    </g>
    <g id="xtick_2">
     <g id="line2d_3">
      <path clip-path="url(#p7c4c75c8b6)" d="M 257.4 384.48 
L 257.4 51.84 
" style="fill:none;stroke:#b0b0b0;stroke-linecap:square;stroke-width:0.8;"/>
     </g>
     <g id="line2d_4">
      <g>
       <use style="stroke:#000000;stroke-width:0.8;" x="257.4" xlink:href="#mdbc71bac42" y="384.48"/>
      </g>
     </g>
     <g id="text_2">
      <!-- 115 -->
      <defs>
       <path d="M 10.796875 72.90625 
L 49.515625 72.90625 
L 49.515625 64.59375 
L 19.828125 64.59375 
L 19.828125 46.734375 
Q 21.96875 47.46875 24.109375 47.828125 
Q 26.265625 48.1875 28.421875 48.1875 
Q 40.625 48.1875 47.75 41.5 
Q 54.890625 34.8125 54.890625 23.390625 
Q 54.890625 11.625 47.5625 5.09375 
Q 40.234375 -1.421875 26.90625 -1.421875 
Q 22.3125 -1.421875 17.546875 -0.640625 
Q 12.796875 0.140625 7.71875 1.703125 
L 7.71875 11.625 
Q 12.109375 9.234375 16.796875 8.0625 
Q 21.484375 6.890625 26.703125 6.890625 
Q 35.15625 6.890625 40.078125 11.328125 
Q 45.015625 15.765625 45.015625 23.390625 
Q 45.015625 31 40.078125 35.4375 
Q 35.15625 39.890625 26.703125 39.890625 
Q 22.75 39.890625 18.8125 39.015625 
Q 14.890625 38.140625 10.796875 36.28125 
z
" id="DejaVuSans-53"/>
      </defs>
      <g transform="translate(247.85625 399.078438)scale(0.1 -0.1)">
       <use xlink:href="#DejaVuSans-49"/>
       <use x="63.623047" xlink:href="#DejaVuSans-49"/>
       <use x="127.246094" xlink:href="#DejaVuSans-53"/>
      </g>
     </g>
    </g>
    <g id="xtick_3">
     <g id="line2d_5">
      <path clip-path="url(#p7c4c75c8b6)" d="M 350.4 384.48 
L 350.4 51.84 
" style="fill:none;stroke:#b0b0b0;stroke-linecap:square;stroke-width:0.8;"/>
     </g>
     <g id="line2d_6">
      <g>
       <use style="stroke:#000000;stroke-width:0.8;" x="350.4" xlink:href="#mdbc71bac42" y="384.48"/>
      </g>
     </g>
     <g id="text_3">
      <!-- 120 -->
      <defs>
       <path d="M 19.1875 8.296875 
L 53.609375 8.296875 
L 53.609375 0 
L 7.328125 0 
L 7.328125 8.296875 
Q 12.9375 14.109375 22.625 23.890625 
Q 32.328125 33.6875 34.8125 36.53125 
Q 39.546875 41.84375 41.421875 45.53125 
Q 43.3125 49.21875 43.3125 52.78125 
Q 43.3125 58.59375 39.234375 62.25 
Q 35.15625 65.921875 28.609375 65.921875 
Q 23.96875 65.921875 18.8125 64.3125 
Q 13.671875 62.703125 7.8125 59.421875 
L 7.8125 69.390625 
Q 13.765625 71.78125 18.9375 73 
Q 24.125 74.21875 28.421875 74.21875 
Q 39.75 74.21875 46.484375 68.546875 
Q 53.21875 62.890625 53.21875 53.421875 
Q 53.21875 48.921875 51.53125 44.890625 
Q 49.859375 40.875 45.40625 35.40625 
Q 44.1875 33.984375 37.640625 27.21875 
Q 31.109375 20.453125 19.1875 8.296875 
z
" id="DejaVuSans-50"/>
      </defs>
      <g transform="translate(340.85625 399.078438)scale(0.1 -0.1)">
       <use xlink:href="#DejaVuSans-49"/>
       <use x="63.623047" xlink:href="#DejaVuSans-50"/>
       <use x="127.246094" xlink:href="#DejaVuSans-48"/>
      </g>
     </g>
    </g>
    <g id="xtick_4">
     <g id="line2d_7">
      <path clip-path="url(#p7c4c75c8b6)" d="M 443.4 384.48 
L 443.4 51.84 
" style="fill:none;stroke:#b0b0b0;stroke-linecap:square;stroke-width:0.8;"/>
     </g>
     <g id="line2d_8">
      <g>
       <use style="stroke:#000000;stroke-width:0.8;" x="443.4" xlink:href="#mdbc71bac42" y="384.48"/>
      </g>
     </g>
     <g id="text_4">
      <!-- 125 -->
      <g transform="translate(433.85625 399.078438)scale(0.1 -0.1)">
       <use xlink:href="#DejaVuSans-49"/>
       <use x="63.623047" xlink:href="#DejaVuSans-50"/>
       <use x="127.246094" xlink:href="#DejaVuSans-53"/>
      </g>
     </g>
    </g>
    <g id="xtick_5">
     <g id="line2d_9">
      <path clip-path="url(#p7c4c75c8b6)" d="M 536.4 384.48 
L 536.4 51.84 
" style="fill:none;stroke:#b0b0b0;stroke-linecap:square;stroke-width:0.8;"/>
     </g>
     <g id="line2d_10">
      <g>
       <use style="stroke:#000000;stroke-width:0.8;" x="536.4" xlink:href="#mdbc71bac42" y="384.48"/>
      </g>
     </g>
     <g id="text_5">
      <!-- 130 -->
      <defs>
       <path d="M 40.578125 39.3125 
Q 47.65625 37.796875 51.625 33 
Q 55.609375 28.21875 55.609375 21.1875 
Q 55.609375 10.40625 48.1875 4.484375 
Q 40.765625 -1.421875 27.09375 -1.421875 
Q 22.515625 -1.421875 17.65625 -0.515625 
Q 12.796875 0.390625 7.625 2.203125 
L 7.625 11.71875 
Q 11.71875 9.328125 16.59375 8.109375 
Q 21.484375 6.890625 26.8125 6.890625 
Q 36.078125 6.890625 40.9375 10.546875 
Q 45.796875 14.203125 45.796875 21.1875 
Q 45.796875 27.640625 41.28125 31.265625 
Q 36.765625 34.90625 28.71875 34.90625 
L 20.21875 34.90625 
L 20.21875 43.015625 
L 29.109375 43.015625 
Q 36.375 43.015625 40.234375 45.921875 
Q 44.09375 48.828125 44.09375 54.296875 
Q 44.09375 59.90625 40.109375 62.90625 
Q 36.140625 65.921875 28.71875 65.921875 
Q 24.65625 65.921875 20.015625 65.03125 
Q 15.375 64.15625 9.8125 62.3125 
L 9.8125 71.09375 
Q 15.4375 72.65625 20.34375 73.4375 
Q 25.25 74.21875 29.59375 74.21875 
Q 40.828125 74.21875 47.359375 69.109375 
Q 53.90625 64.015625 53.90625 55.328125 
Q 53.90625 49.265625 50.4375 45.09375 
Q 46.96875 40.921875 40.578125 39.3125 
z
" id="DejaVuSans-51"/>
      </defs>
      <g transform="translate(526.85625 399.078438)scale(0.1 -0.1)">
       <use xlink:href="#DejaVuSans-49"/>
       <use x="63.623047" xlink:href="#DejaVuSans-51"/>
       <use x="127.246094" xlink:href="#DejaVuSans-48"/>
      </g>
     </g>
    </g>
    <g id="xtick_6">
     <g id="line2d_11">
      <path clip-path="url(#p7c4c75c8b6)" d="M 629.4 384.48 
L 629.4 51.84 
" style="fill:none;stroke:#b0b0b0;stroke-linecap:square;stroke-width:0.8;"/>
     </g>
     <g id="line2d_12">
      <g>
       <use style="stroke:#000000;stroke-width:0.8;" x="629.4" xlink:href="#mdbc71bac42" y="384.48"/>
      </g>
     </g>
     <g id="text_6">
      <!-- 135 -->
      <g transform="translate(619.85625 399.078438)scale(0.1 -0.1)">
       <use xlink:href="#DejaVuSans-49"/>
       <use x="63.623047" xlink:href="#DejaVuSans-51"/>
       <use x="127.246094" xlink:href="#DejaVuSans-53"/>
      </g>
     </g>
    </g>
    <g id="text_7">
     <!-- Time /ms -->
     <defs>
      <path d="M -0.296875 72.90625 
L 61.375 72.90625 
L 61.375 64.59375 
L 35.5 64.59375 
L 35.5 0 
L 25.59375 0 
L 25.59375 64.59375 
L -0.296875 64.59375 
z
" id="DejaVuSans-84"/>
      <path d="M 9.421875 54.6875 
L 18.40625 54.6875 
L 18.40625 0 
L 9.421875 0 
z
M 9.421875 75.984375 
L 18.40625 75.984375 
L 18.40625 64.59375 
L 9.421875 64.59375 
z
" id="DejaVuSans-105"/>
      <path d="M 52 44.1875 
Q 55.375 50.25 60.0625 53.125 
Q 64.75 56 71.09375 56 
Q 79.640625 56 84.28125 50.015625 
Q 88.921875 44.046875 88.921875 33.015625 
L 88.921875 0 
L 79.890625 0 
L 79.890625 32.71875 
Q 79.890625 40.578125 77.09375 44.375 
Q 74.3125 48.1875 68.609375 48.1875 
Q 61.625 48.1875 57.5625 43.546875 
Q 53.515625 38.921875 53.515625 30.90625 
L 53.515625 0 
L 44.484375 0 
L 44.484375 32.71875 
Q 44.484375 40.625 41.703125 44.40625 
Q 38.921875 48.1875 33.109375 48.1875 
Q 26.21875 48.1875 22.15625 43.53125 
Q 18.109375 38.875 18.109375 30.90625 
L 18.109375 0 
L 9.078125 0 
L 9.078125 54.6875 
L 18.109375 54.6875 
L 18.109375 46.1875 
Q 21.1875 51.21875 25.484375 53.609375 
Q 29.78125 56 35.6875 56 
Q 41.65625 56 45.828125 52.96875 
Q 50 49.953125 52 44.1875 
z
" id="DejaVuSans-109"/>
      <path d="M 56.203125 29.59375 
L 56.203125 25.203125 
L 14.890625 25.203125 
Q 15.484375 15.921875 20.484375 11.0625 
Q 25.484375 6.203125 34.421875 6.203125 
Q 39.59375 6.203125 44.453125 7.46875 
Q 49.3125 8.734375 54.109375 11.28125 
L 54.109375 2.78125 
Q 49.265625 0.734375 44.1875 -0.34375 
Q 39.109375 -1.421875 33.890625 -1.421875 
Q 20.796875 -1.421875 13.15625 6.1875 
Q 5.515625 13.8125 5.515625 26.8125 
Q 5.515625 40.234375 12.765625 48.109375 
Q 20.015625 56 32.328125 56 
Q 43.359375 56 49.78125 48.890625 
Q 56.203125 41.796875 56.203125 29.59375 
z
M 47.21875 32.234375 
Q 47.125 39.59375 43.09375 43.984375 
Q 39.0625 48.390625 32.421875 48.390625 
Q 24.90625 48.390625 20.390625 44.140625 
Q 15.875 39.890625 15.1875 32.171875 
z
" id="DejaVuSans-101"/>
      <path id="DejaVuSans-32"/>
      <path d="M 25.390625 72.90625 
L 33.6875 72.90625 
L 8.296875 -9.28125 
L 0 -9.28125 
z
" id="DejaVuSans-47"/>
      <path d="M 44.28125 53.078125 
L 44.28125 44.578125 
Q 40.484375 46.53125 36.375 47.5 
Q 32.28125 48.484375 27.875 48.484375 
Q 21.1875 48.484375 17.84375 46.4375 
Q 14.5 44.390625 14.5 40.28125 
Q 14.5 37.15625 16.890625 35.375 
Q 19.28125 33.59375 26.515625 31.984375 
L 29.59375 31.296875 
Q 39.15625 29.25 43.1875 25.515625 
Q 47.21875 21.78125 47.21875 15.09375 
Q 47.21875 7.46875 41.1875 3.015625 
Q 35.15625 -1.421875 24.609375 -1.421875 
Q 20.21875 -1.421875 15.453125 -0.5625 
Q 10.6875 0.296875 5.421875 2 
L 5.421875 11.28125 
Q 10.40625 8.6875 15.234375 7.390625 
Q 20.0625 6.109375 24.8125 6.109375 
Q 31.15625 6.109375 34.5625 8.28125 
Q 37.984375 10.453125 37.984375 14.40625 
Q 37.984375 18.0625 35.515625 20.015625 
Q 33.0625 21.96875 24.703125 23.78125 
L 21.578125 24.515625 
Q 13.234375 26.265625 9.515625 29.90625 
Q 5.8125 33.546875 5.8125 39.890625 
Q 5.8125 47.609375 11.28125 51.796875 
Q 16.75 56 26.8125 56 
Q 31.78125 56 36.171875 55.265625 
Q 40.578125 54.546875 44.28125 53.078125 
z
" id="DejaVuSans-115"/>
     </defs>
     <g transform="translate(345.864062 412.756563)scale(0.1 -0.1)">
      <use xlink:href="#DejaVuSans-84"/>
      <use x="61.037109" xlink:href="#DejaVuSans-105"/>
      <use x="88.820312" xlink:href="#DejaVuSans-109"/>
      <use x="186.232422" xlink:href="#DejaVuSans-101"/>
      <use x="247.755859" xlink:href="#DejaVuSans-32"/>
      <use x="279.542969" xlink:href="#DejaVuSans-47"/>
      <use x="313.234375" xlink:href="#DejaVuSans-109"/>
      <use x="410.646484" xlink:href="#DejaVuSans-115"/>
     </g>
    </g>
   </g>
   <g id="matplotlib.axis_2">
    <g id="ytick_1">
     <g id="line2d_13">
      <path clip-path="url(#p7c4c75c8b6)" d="M 90 357.91455 
L 648 357.91455 
" style="fill:none;stroke:#b0b0b0;stroke-linecap:square;stroke-width:0.8;"/>
     </g>
     <g id="line2d_14">
      <defs>
       <path d="M 0 0 
L -3.5 0 
" id="m0d0dd8acbd" style="stroke:#000000;stroke-width:0.8;"/>
      </defs>
      <g>
       <use style="stroke:#000000;stroke-width:0.8;" x="90" xlink:href="#m0d0dd8acbd" y="357.91455"/>
      </g>
     </g>
     <g id="text_8">
      <!-- 0 -->
      <g transform="translate(76.6375 361.713769)scale(0.1 -0.1)">
       <use xlink:href="#DejaVuSans-48"/>
      </g>
     </g>
    </g>
    <g id="ytick_2">
     <g id="line2d_15">
      <path clip-path="url(#p7c4c75c8b6)" d="M 90 292.818818 
L 648 292.818818 
" style="fill:none;stroke:#b0b0b0;stroke-linecap:square;stroke-width:0.8;"/>
     </g>
     <g id="line2d_16">
      <g>
       <use style="stroke:#000000;stroke-width:0.8;" x="90" xlink:href="#m0d0dd8acbd" y="292.818818"/>
      </g>
     </g>
     <g id="text_9">
      <!-- 2 -->
      <g transform="translate(76.6375 296.618037)scale(0.1 -0.1)">
       <use xlink:href="#DejaVuSans-50"/>
      </g>
     </g>
    </g>
    <g id="ytick_3">
     <g id="line2d_17">
      <path clip-path="url(#p7c4c75c8b6)" d="M 90 227.723086 
L 648 227.723086 
" style="fill:none;stroke:#b0b0b0;stroke-linecap:square;stroke-width:0.8;"/>
     </g>
     <g id="line2d_18">
      <g>
       <use style="stroke:#000000;stroke-width:0.8;" x="90" xlink:href="#m0d0dd8acbd" y="227.723086"/>
      </g>
     </g>
     <g id="text_10">
      <!-- 4 -->
      <defs>
       <path d="M 37.796875 64.3125 
L 12.890625 25.390625 
L 37.796875 25.390625 
z
M 35.203125 72.90625 
L 47.609375 72.90625 
L 47.609375 25.390625 
L 58.015625 25.390625 
L 58.015625 17.1875 
L 47.609375 17.1875 
L 47.609375 0 
L 37.796875 0 
L 37.796875 17.1875 
L 4.890625 17.1875 
L 4.890625 26.703125 
z
" id="DejaVuSans-52"/>
      </defs>
      <g transform="translate(76.6375 231.522305)scale(0.1 -0.1)">
       <use xlink:href="#DejaVuSans-52"/>
      </g>
     </g>
    </g>
    <g id="ytick_4">
     <g id="line2d_19">
      <path clip-path="url(#p7c4c75c8b6)" d="M 90 162.627354 
L 648 162.627354 
" style="fill:none;stroke:#b0b0b0;stroke-linecap:square;stroke-width:0.8;"/>
     </g>
     <g id="line2d_20">
      <g>
       <use style="stroke:#000000;stroke-width:0.8;" x="90" xlink:href="#m0d0dd8acbd" y="162.627354"/>
      </g>
     </g>
     <g id="text_11">
      <!-- 6 -->
      <defs>
       <path d="M 33.015625 40.375 
Q 26.375 40.375 22.484375 35.828125 
Q 18.609375 31.296875 18.609375 23.390625 
Q 18.609375 15.53125 22.484375 10.953125 
Q 26.375 6.390625 33.015625 6.390625 
Q 39.65625 6.390625 43.53125 10.953125 
Q 47.40625 15.53125 47.40625 23.390625 
Q 47.40625 31.296875 43.53125 35.828125 
Q 39.65625 40.375 33.015625 40.375 
z
M 52.59375 71.296875 
L 52.59375 62.3125 
Q 48.875 64.0625 45.09375 64.984375 
Q 41.3125 65.921875 37.59375 65.921875 
Q 27.828125 65.921875 22.671875 59.328125 
Q 17.53125 52.734375 16.796875 39.40625 
Q 19.671875 43.65625 24.015625 45.921875 
Q 28.375 48.1875 33.59375 48.1875 
Q 44.578125 48.1875 50.953125 41.515625 
Q 57.328125 34.859375 57.328125 23.390625 
Q 57.328125 12.15625 50.6875 5.359375 
Q 44.046875 -1.421875 33.015625 -1.421875 
Q 20.359375 -1.421875 13.671875 8.265625 
Q 6.984375 17.96875 6.984375 36.375 
Q 6.984375 53.65625 15.1875 63.9375 
Q 23.390625 74.21875 37.203125 74.21875 
Q 40.921875 74.21875 44.703125 73.484375 
Q 48.484375 72.75 52.59375 71.296875 
z
" id="DejaVuSans-54"/>
      </defs>
      <g transform="translate(76.6375 166.426573)scale(0.1 -0.1)">
       <use xlink:href="#DejaVuSans-54"/>
      </g>
     </g>
    </g>
    <g id="ytick_5">
     <g id="line2d_21">
      <path clip-path="url(#p7c4c75c8b6)" d="M 90 97.531623 
L 648 97.531623 
" style="fill:none;stroke:#b0b0b0;stroke-linecap:square;stroke-width:0.8;"/>
     </g>
     <g id="line2d_22">
      <g>
       <use style="stroke:#000000;stroke-width:0.8;" x="90" xlink:href="#m0d0dd8acbd" y="97.531623"/>
      </g>
     </g>
     <g id="text_12">
      <!-- 8 -->
      <defs>
       <path d="M 31.78125 34.625 
Q 24.75 34.625 20.71875 30.859375 
Q 16.703125 27.09375 16.703125 20.515625 
Q 16.703125 13.921875 20.71875 10.15625 
Q 24.75 6.390625 31.78125 6.390625 
Q 38.8125 6.390625 42.859375 10.171875 
Q 46.921875 13.96875 46.921875 20.515625 
Q 46.921875 27.09375 42.890625 30.859375 
Q 38.875 34.625 31.78125 34.625 
z
M 21.921875 38.8125 
Q 15.578125 40.375 12.03125 44.71875 
Q 8.5 49.078125 8.5 55.328125 
Q 8.5 64.0625 14.71875 69.140625 
Q 20.953125 74.21875 31.78125 74.21875 
Q 42.671875 74.21875 48.875 69.140625 
Q 55.078125 64.0625 55.078125 55.328125 
Q 55.078125 49.078125 51.53125 44.71875 
Q 48 40.375 41.703125 38.8125 
Q 48.828125 37.15625 52.796875 32.3125 
Q 56.78125 27.484375 56.78125 20.515625 
Q 56.78125 9.90625 50.3125 4.234375 
Q 43.84375 -1.421875 31.78125 -1.421875 
Q 19.734375 -1.421875 13.25 4.234375 
Q 6.78125 9.90625 6.78125 20.515625 
Q 6.78125 27.484375 10.78125 32.3125 
Q 14.796875 37.15625 21.921875 38.8125 
z
M 18.3125 54.390625 
Q 18.3125 48.734375 21.84375 45.5625 
Q 25.390625 42.390625 31.78125 42.390625 
Q 38.140625 42.390625 41.71875 45.5625 
Q 45.3125 48.734375 45.3125 54.390625 
Q 45.3125 60.0625 41.71875 63.234375 
Q 38.140625 66.40625 31.78125 66.40625 
Q 25.390625 66.40625 21.84375 63.234375 
Q 18.3125 60.0625 18.3125 54.390625 
z
" id="DejaVuSans-56"/>
      </defs>
      <g transform="translate(76.6375 101.330841)scale(0.1 -0.1)">
       <use xlink:href="#DejaVuSans-56"/>
      </g>
     </g>
    </g>
    <g id="text_13">
     <!-- Channel impulse response -->
     <defs>
      <path d="M 64.40625 67.28125 
L 64.40625 56.890625 
Q 59.421875 61.53125 53.78125 63.8125 
Q 48.140625 66.109375 41.796875 66.109375 
Q 29.296875 66.109375 22.65625 58.46875 
Q 16.015625 50.828125 16.015625 36.375 
Q 16.015625 21.96875 22.65625 14.328125 
Q 29.296875 6.6875 41.796875 6.6875 
Q 48.140625 6.6875 53.78125 8.984375 
Q 59.421875 11.28125 64.40625 15.921875 
L 64.40625 5.609375 
Q 59.234375 2.09375 53.4375 0.328125 
Q 47.65625 -1.421875 41.21875 -1.421875 
Q 24.65625 -1.421875 15.125 8.703125 
Q 5.609375 18.84375 5.609375 36.375 
Q 5.609375 53.953125 15.125 64.078125 
Q 24.65625 74.21875 41.21875 74.21875 
Q 47.75 74.21875 53.53125 72.484375 
Q 59.328125 70.75 64.40625 67.28125 
z
" id="DejaVuSans-67"/>
      <path d="M 54.890625 33.015625 
L 54.890625 0 
L 45.90625 0 
L 45.90625 32.71875 
Q 45.90625 40.484375 42.875 44.328125 
Q 39.84375 48.1875 33.796875 48.1875 
Q 26.515625 48.1875 22.3125 43.546875 
Q 18.109375 38.921875 18.109375 30.90625 
L 18.109375 0 
L 9.078125 0 
L 9.078125 75.984375 
L 18.109375 75.984375 
L 18.109375 46.1875 
Q 21.34375 51.125 25.703125 53.5625 
Q 30.078125 56 35.796875 56 
Q 45.21875 56 50.046875 50.171875 
Q 54.890625 44.34375 54.890625 33.015625 
z
" id="DejaVuSans-104"/>
      <path d="M 34.28125 27.484375 
Q 23.390625 27.484375 19.1875 25 
Q 14.984375 22.515625 14.984375 16.5 
Q 14.984375 11.71875 18.140625 8.90625 
Q 21.296875 6.109375 26.703125 6.109375 
Q 34.1875 6.109375 38.703125 11.40625 
Q 43.21875 16.703125 43.21875 25.484375 
L 43.21875 27.484375 
z
M 52.203125 31.203125 
L 52.203125 0 
L 43.21875 0 
L 43.21875 8.296875 
Q 40.140625 3.328125 35.546875 0.953125 
Q 30.953125 -1.421875 24.3125 -1.421875 
Q 15.921875 -1.421875 10.953125 3.296875 
Q 6 8.015625 6 15.921875 
Q 6 25.140625 12.171875 29.828125 
Q 18.359375 34.515625 30.609375 34.515625 
L 43.21875 34.515625 
L 43.21875 35.40625 
Q 43.21875 41.609375 39.140625 45 
Q 35.0625 48.390625 27.6875 48.390625 
Q 23 48.390625 18.546875 47.265625 
Q 14.109375 46.140625 10.015625 43.890625 
L 10.015625 52.203125 
Q 14.9375 54.109375 19.578125 55.046875 
Q 24.21875 56 28.609375 56 
Q 40.484375 56 46.34375 49.84375 
Q 52.203125 43.703125 52.203125 31.203125 
z
" id="DejaVuSans-97"/>
      <path d="M 54.890625 33.015625 
L 54.890625 0 
L 45.90625 0 
L 45.90625 32.71875 
Q 45.90625 40.484375 42.875 44.328125 
Q 39.84375 48.1875 33.796875 48.1875 
Q 26.515625 48.1875 22.3125 43.546875 
Q 18.109375 38.921875 18.109375 30.90625 
L 18.109375 0 
L 9.078125 0 
L 9.078125 54.6875 
L 18.109375 54.6875 
L 18.109375 46.1875 
Q 21.34375 51.125 25.703125 53.5625 
Q 30.078125 56 35.796875 56 
Q 45.21875 56 50.046875 50.171875 
Q 54.890625 44.34375 54.890625 33.015625 
z
" id="DejaVuSans-110"/>
      <path d="M 9.421875 75.984375 
L 18.40625 75.984375 
L 18.40625 0 
L 9.421875 0 
z
" id="DejaVuSans-108"/>
      <path d="M 18.109375 8.203125 
L 18.109375 -20.796875 
L 9.078125 -20.796875 
L 9.078125 54.6875 
L 18.109375 54.6875 
L 18.109375 46.390625 
Q 20.953125 51.265625 25.265625 53.625 
Q 29.59375 56 35.59375 56 
Q 45.5625 56 51.78125 48.09375 
Q 58.015625 40.1875 58.015625 27.296875 
Q 58.015625 14.40625 51.78125 6.484375 
Q 45.5625 -1.421875 35.59375 -1.421875 
Q 29.59375 -1.421875 25.265625 0.953125 
Q 20.953125 3.328125 18.109375 8.203125 
z
M 48.6875 27.296875 
Q 48.6875 37.203125 44.609375 42.84375 
Q 40.53125 48.484375 33.40625 48.484375 
Q 26.265625 48.484375 22.1875 42.84375 
Q 18.109375 37.203125 18.109375 27.296875 
Q 18.109375 17.390625 22.1875 11.75 
Q 26.265625 6.109375 33.40625 6.109375 
Q 40.53125 6.109375 44.609375 11.75 
Q 48.6875 17.390625 48.6875 27.296875 
z
" id="DejaVuSans-112"/>
      <path d="M 8.5 21.578125 
L 8.5 54.6875 
L 17.484375 54.6875 
L 17.484375 21.921875 
Q 17.484375 14.15625 20.5 10.265625 
Q 23.53125 6.390625 29.59375 6.390625 
Q 36.859375 6.390625 41.078125 11.03125 
Q 45.3125 15.671875 45.3125 23.6875 
L 45.3125 54.6875 
L 54.296875 54.6875 
L 54.296875 0 
L 45.3125 0 
L 45.3125 8.40625 
Q 42.046875 3.421875 37.71875 1 
Q 33.40625 -1.421875 27.6875 -1.421875 
Q 18.265625 -1.421875 13.375 4.4375 
Q 8.5 10.296875 8.5 21.578125 
z
M 31.109375 56 
z
" id="DejaVuSans-117"/>
      <path d="M 41.109375 46.296875 
Q 39.59375 47.171875 37.8125 47.578125 
Q 36.03125 48 33.890625 48 
Q 26.265625 48 22.1875 43.046875 
Q 18.109375 38.09375 18.109375 28.8125 
L 18.109375 0 
L 9.078125 0 
L 9.078125 54.6875 
L 18.109375 54.6875 
L 18.109375 46.1875 
Q 20.953125 51.171875 25.484375 53.578125 
Q 30.03125 56 36.53125 56 
Q 37.453125 56 38.578125 55.875 
Q 39.703125 55.765625 41.0625 55.515625 
z
" id="DejaVuSans-114"/>
      <path d="M 30.609375 48.390625 
Q 23.390625 48.390625 19.1875 42.75 
Q 14.984375 37.109375 14.984375 27.296875 
Q 14.984375 17.484375 19.15625 11.84375 
Q 23.34375 6.203125 30.609375 6.203125 
Q 37.796875 6.203125 41.984375 11.859375 
Q 46.1875 17.53125 46.1875 27.296875 
Q 46.1875 37.015625 41.984375 42.703125 
Q 37.796875 48.390625 30.609375 48.390625 
z
M 30.609375 56 
Q 42.328125 56 49.015625 48.375 
Q 55.71875 40.765625 55.71875 27.296875 
Q 55.71875 13.875 49.015625 6.21875 
Q 42.328125 -1.421875 30.609375 -1.421875 
Q 18.84375 -1.421875 12.171875 6.21875 
Q 5.515625 13.875 5.515625 27.296875 
Q 5.515625 40.765625 12.171875 48.375 
Q 18.84375 56 30.609375 56 
z
" id="DejaVuSans-111"/>
     </defs>
     <g transform="translate(70.557812 284.356875)rotate(-90)scale(0.1 -0.1)">
      <use xlink:href="#DejaVuSans-67"/>
      <use x="69.824219" xlink:href="#DejaVuSans-104"/>
      <use x="133.203125" xlink:href="#DejaVuSans-97"/>
      <use x="194.482422" xlink:href="#DejaVuSans-110"/>
      <use x="257.861328" xlink:href="#DejaVuSans-110"/>
      <use x="321.240234" xlink:href="#DejaVuSans-101"/>
      <use x="382.763672" xlink:href="#DejaVuSans-108"/>
      <use x="410.546875" xlink:href="#DejaVuSans-32"/>
      <use x="442.333984" xlink:href="#DejaVuSans-105"/>
      <use x="470.117188" xlink:href="#DejaVuSans-109"/>
      <use x="567.529297" xlink:href="#DejaVuSans-112"/>
      <use x="631.005859" xlink:href="#DejaVuSans-117"/>
      <use x="694.384766" xlink:href="#DejaVuSans-108"/>
      <use x="722.167969" xlink:href="#DejaVuSans-115"/>
      <use x="774.267578" xlink:href="#DejaVuSans-101"/>
      <use x="835.791016" xlink:href="#DejaVuSans-32"/>
      <use x="867.578125" xlink:href="#DejaVuSans-114"/>
      <use x="908.660156" xlink:href="#DejaVuSans-101"/>
      <use x="970.183594" xlink:href="#DejaVuSans-115"/>
      <use x="1022.283203" xlink:href="#DejaVuSans-112"/>
      <use x="1085.759766" xlink:href="#DejaVuSans-111"/>
      <use x="1146.941406" xlink:href="#DejaVuSans-110"/>
      <use x="1210.320312" xlink:href="#DejaVuSans-115"/>
      <use x="1262.419922" xlink:href="#DejaVuSans-101"/>
     </g>
    </g>
   </g>
   <g id="line2d_23">
    <path clip-path="url(#p7c4c75c8b6)" d="M 88.8375 367.200572 
L 91.1625 367.325152 
L 92.325 367.437177 
L 96.975 367.18697 
L 99.3 367.438095 
L 100.4625 368.002265 
L 102.7875 368.073973 
L 105.1125 368.089721 
L 108.6 368.47975 
L 109.7625 368.43816 
L 112.0875 367.733644 
L 113.25 367.722737 
L 115.575 367.477728 
L 116.7375 366.911234 
L 117.9 366.147011 
L 119.0625 365.991487 
L 120.225 365.652588 
L 121.3875 365.516761 
L 124.875 365.61593 
L 127.2 365.562737 
L 128.3625 365.83931 
L 130.6875 366.012853 
L 133.0125 366.202463 
L 136.5 366.250283 
L 141.15 366.786341 
L 143.475 366.683168 
L 145.8 366.493298 
L 148.125 366.556104 
L 152.775 366.881027 
L 155.1 367.034105 
L 156.2625 367.359578 
L 159.75 367.066601 
L 160.9125 366.737318 
L 169.05 365.683694 
L 171.375 365.437546 
L 173.7 364.738402 
L 176.025 364.477908 
L 178.35 364.614129 
L 179.5125 364.700942 
L 183 364.515524 
L 184.1625 364.881955 
L 186.4875 364.936337 
L 191.1375 364.861837 
L 195.7875 365.215963 
L 201.6 364.815606 
L 205.0875 364.968275 
L 210.9 364.919862 
L 212.0625 365.513759 
L 215.55 365.618743 
L 219.0375 365.784352 
L 220.2 365.530936 
L 223.6875 365.193151 
L 226.0125 365.221608 
L 228.3375 365.281606 
L 229.5 365.052123 
L 231.825 365.000019 
L 234.15 365.250336 
L 236.475 365.390118 
L 238.8 365.114152 
L 239.9625 368.436707 
L 242.2875 368.31352 
L 244.6125 368.470209 
L 251.5875 367.87333 
L 252.75 367.176905 
L 253.9125 365.978147 
L 255.075 365.640915 
L 256.2375 364.984233 
L 257.4 363.907724 
L 260.8875 360.021005 
L 262.05 359.609472 
L 264.375 357.900195 
L 265.5375 357.361427 
L 266.7 357.357943 
L 267.8625 357.855299 
L 269.025 354.763799 
L 270.1875 341.781974 
L 271.35 333.135665 
L 272.5125 331.66294 
L 273.675 331.969945 
L 274.8375 333.817438 
L 279.4875 336.754961 
L 280.65 337.96585 
L 281.8125 338.36377 
L 285.3 339.227077 
L 286.4625 340.286201 
L 287.625 338.472825 
L 288.7875 340.191306 
L 291.1125 340.842556 
L 292.275 340.992079 
L 294.6 341.476873 
L 295.7625 341.248971 
L 298.0875 341.608531 
L 300.4125 341.952735 
L 301.575 342.071669 
L 303.9 342.544206 
L 306.225 342.908284 
L 307.3875 343.032889 
L 308.55 343.340292 
L 313.2 343.92229 
L 314.3625 344.226026 
L 317.85 344.789891 
L 319.0125 345.206312 
L 320.175 345.314479 
L 321.3375 345.019621 
L 322.5 345.3388 
L 323.6625 348.526114 
L 324.825 351.345774 
L 325.9875 352.203832 
L 327.15 351.571118 
L 328.3125 351.163059 
L 329.475 353.105089 
L 330.6375 351.886007 
L 331.8 348.382147 
L 334.125 346.752187 
L 335.2875 349.283189 
L 336.45 350.367642 
L 337.6125 352.683726 
L 338.775 348.775243 
L 339.9375 354.746489 
L 341.1 354.95525 
L 342.2625 354.876907 
L 344.5875 356.639256 
L 345.75 354.592578 
L 346.9125 358.181825 
L 348.075 354.690174 
L 349.2375 359.047697 
L 350.4 360.746372 
L 351.5625 358.836121 
L 352.725 356.443963 
L 353.8875 357.953003 
L 355.05 360.151796 
L 356.2125 360.956785 
L 357.375 358.975643 
L 358.5375 358.231799 
L 359.7 358.824302 
L 360.8625 356.107958 
L 362.025 355.467807 
L 363.1875 358.29855 
L 364.35 358.691835 
L 365.5125 360.624634 
L 366.675 360.885596 
L 367.8375 357.623736 
L 369 360.476071 
L 370.1625 361.250607 
L 371.325 358.779497 
L 372.4875 357.754906 
L 373.65 357.341109 
L 374.8125 356.031653 
L 375.975 358.124342 
L 377.1375 359.762139 
L 378.3 360.011888 
L 379.4625 358.402895 
L 381.7875 360.1141 
L 382.95 358.840083 
L 384.1125 355.971717 
L 385.275 358.681863 
L 386.4375 358.738953 
L 387.6 356.691506 
L 388.7625 355.721841 
L 389.925 355.129373 
L 391.0875 355.854881 
L 392.25 359.470491 
L 393.4125 359.807267 
L 394.575 358.777915 
L 395.7375 359.142204 
L 396.9 355.837293 
L 398.0625 358.099535 
L 399.225 359.00065 
L 401.55 359.844894 
L 402.7125 358.621547 
L 403.875 358.350345 
L 405.0375 359.661464 
L 406.2 360.510295 
L 407.3625 359.922528 
L 409.6875 359.30808 
L 410.85 358.872555 
L 412.0125 359.218203 
L 414.3375 358.498583 
L 415.5 360.061173 
L 416.6625 360.730895 
L 417.825 360.221524 
L 418.9875 357.76083 
L 420.15 360.472827 
L 421.3125 359.882483 
L 422.475 358.316176 
L 423.6375 360.844115 
L 424.8 360.670784 
L 425.9625 358.019126 
L 427.125 359.342208 
L 428.2875 360.019477 
L 429.45 358.860612 
L 430.6125 357.897007 
L 431.775 358.878118 
L 432.9375 359.393459 
L 434.1 358.873599 
L 435.2625 362.330327 
L 436.425 362.039142 
L 437.5875 361.515736 
L 439.9125 362.982339 
L 441.075 362.619894 
L 442.2375 361.791952 
L 443.4 362.405092 
L 445.725 361.949153 
L 446.8875 361.41157 
L 449.2125 360.979683 
L 450.375 361.402494 
L 451.5375 361.45314 
L 452.7 361.618426 
L 453.8625 362.360021 
L 455.025 362.074833 
L 456.1875 361.59889 
L 457.35 361.495246 
L 458.5125 361.151845 
L 459.675 361.17971 
L 460.8375 361.392018 
L 462 361.151407 
L 463.1625 362.28237 
L 464.325 362.482442 
L 465.4875 361.540873 
L 466.65 362.193887 
L 467.8125 361.643983 
L 468.975 361.673413 
L 470.1375 362.344105 
L 471.3 361.839147 
L 472.4625 361.675527 
L 473.625 362.244668 
L 474.7875 362.367289 
L 475.95 361.198905 
L 477.1125 361.750781 
L 478.275 360.949729 
L 479.4375 362.1016 
L 480.6 362.276811 
L 481.7625 361.788975 
L 482.925 361.940664 
L 484.0875 361.124788 
L 485.25 361.750192 
L 486.4125 361.829539 
L 487.575 361.509433 
L 488.7375 360.950814 
L 489.9 361.107648 
L 491.0625 361.666248 
L 493.3875 361.570901 
L 494.55 361.972269 
L 495.7125 361.579575 
L 498.0375 362.688992 
L 499.2 362.143778 
L 500.3625 361.252976 
L 502.6875 361.293314 
L 503.85 362.074644 
L 505.0125 361.949587 
L 506.175 361.443293 
L 507.3375 361.665919 
L 508.5 361.512691 
L 509.6625 361.797579 
L 510.825 361.769851 
L 511.9875 361.446499 
L 513.15 361.329695 
L 515.475 361.43518 
L 516.6375 361.271723 
L 517.8 360.928113 
L 518.9625 361.412329 
L 521.2875 361.952913 
L 522.45 361.837245 
L 523.6125 361.384568 
L 524.775 361.523462 
L 525.9375 361.345066 
L 529.425 361.627426 
L 530.5875 362.252901 
L 532.9125 362.269693 
L 534.075 361.620012 
L 535.2375 361.112602 
L 536.4 361.469843 
L 537.5625 361.448816 
L 538.725 361.309611 
L 539.8875 361.319102 
L 541.05 361.594274 
L 542.2125 361.720406 
L 544.5375 361.306738 
L 545.7 361.236572 
L 546.8625 361.494234 
L 548.025 361.194988 
L 549.1875 361.319551 
L 551.5125 361.060223 
L 552.675 361.194269 
L 555 361.60899 
L 557.325 361.596872 
L 558.4875 361.321139 
L 563.1375 361.040642 
L 564.3 361.155185 
L 565.4625 361.154319 
L 566.625 360.98391 
L 567.7875 361.103736 
L 568.95 361.521506 
L 570.1125 361.688696 
L 572.4375 360.88327 
L 573.6 360.742915 
L 574.7625 361.359309 
L 575.925 361.3928 
L 577.0875 361.123625 
L 578.25 361.497649 
L 580.575 361.116415 
L 582.9 360.876132 
L 584.0625 360.847513 
L 585.225 360.554543 
L 586.3875 360.494744 
L 588.7125 360.78853 
L 589.875 360.568256 
L 592.2 360.336538 
L 593.3625 360.391481 
L 594.525 360.737917 
L 595.6875 360.747149 
L 596.85 360.587292 
L 598.0125 360.553239 
L 599.175 360.390169 
L 600.3375 360.441968 
L 601.5 360.741012 
L 602.6625 361.444553 
L 603.825 361.310765 
L 604.9875 360.89725 
L 607.3125 360.711692 
L 608.475 360.653537 
L 610.8 360.887594 
L 611.9625 360.605448 
L 613.125 360.821292 
L 614.2875 360.862503 
L 615.45 360.644083 
L 616.6125 360.633068 
L 617.775 360.258008 
L 618.9375 360.51809 
L 620.1 360.538508 
L 621.2625 360.204666 
L 624.75 360.090992 
L 625.9125 360.142399 
L 627.075 360.468824 
L 628.2375 360.563661 
L 629.4 360.29411 
L 629.4 360.29411 
" style="fill:none;stroke:#ff0000;stroke-linecap:square;stroke-width:1.5;"/>
   </g>
   <g id="line2d_24">
    <path clip-path="url(#p7c4c75c8b6)" d="M 88.8375 368.118715 
L 90 368.387118 
L 91.1625 368.38385 
L 93.4875 368.09267 
L 98.1375 367.968585 
L 99.3 368.163014 
L 100.4625 368.20092 
L 101.625 368.116911 
L 102.7875 367.478103 
L 103.95 366.573735 
L 105.1125 366.35989 
L 107.4375 366.618639 
L 109.7625 367.480471 
L 110.925 367.790198 
L 112.0875 367.344653 
L 113.25 366.566411 
L 114.4125 366.563156 
L 115.575 367.14989 
L 116.7375 367.38209 
L 119.0625 368.519849 
L 120.225 368.718618 
L 121.3875 368.349777 
L 123.7125 367.19521 
L 124.875 367.38121 
L 126.0375 366.981415 
L 128.3625 367.737593 
L 130.6875 367.970922 
L 133.0125 367.087691 
L 134.175 367.159248 
L 135.3375 366.689622 
L 136.5 365.352888 
L 137.6625 365.007275 
L 138.825 364.78486 
L 139.9875 363.000996 
L 141.15 362.224073 
L 142.3125 361.746461 
L 143.475 360.365859 
L 144.6375 358.24111 
L 145.8 357.758939 
L 146.9625 354.58829 
L 148.125 350.374267 
L 149.2875 346.927456 
L 150.45 346.266684 
L 151.6125 344.888232 
L 152.775 326.493678 
L 155.1 245.613562 
L 156.2625 198.229162 
L 157.425 146.020903 
L 158.5875 127.480268 
L 159.75 141.192676 
L 160.9125 167.336109 
L 162.075 201.806587 
L 163.2375 252.395158 
L 164.4 271.904836 
L 165.5625 279.398522 
L 166.725 265.688345 
L 167.8875 270.261 
L 169.05 234.701177 
L 171.375 126.180296 
L 173.7 66.96 
L 174.8625 89.821176 
L 176.025 108.614035 
L 177.1875 156.923139 
L 178.35 173.252547 
L 179.5125 144.113771 
L 180.675 134.834556 
L 181.8375 179.658778 
L 183 186.252406 
L 184.1625 200.86483 
L 185.325 242.713149 
L 186.4875 255.116638 
L 187.65 258.396407 
L 188.8125 267.259671 
L 191.1375 315.709551 
L 192.3 319.163538 
L 193.4625 318.577126 
L 194.625 312.147429 
L 195.7875 299.09734 
L 196.95 296.238298 
L 198.1125 291.300163 
L 199.275 284.925591 
L 200.4375 295.00093 
L 201.6 307.332528 
L 202.7625 308.9914 
L 203.925 321.642816 
L 205.0875 332.330786 
L 206.25 329.417034 
L 207.4125 323.520906 
L 208.575 322.015001 
L 209.7375 315.520549 
L 210.9 311.082444 
L 212.0625 314.318983 
L 213.225 323.7451 
L 214.3875 321.795823 
L 215.55 321.586818 
L 216.7125 328.170302 
L 217.875 333.65043 
L 219.0375 335.559928 
L 220.2 340.851389 
L 221.3625 337.670873 
L 222.525 328.399988 
L 223.6875 320.2378 
L 224.85 308.458604 
L 226.0125 307.07621 
L 227.175 309.771581 
L 228.3375 310.968477 
L 229.5 307.567642 
L 230.6625 305.236187 
L 231.825 300.23624 
L 232.9875 300.376963 
L 235.3125 299.915206 
L 236.475 304.628194 
L 237.6375 305.388962 
L 238.8 307.019257 
L 239.9625 314.090089 
L 241.125 321.852454 
L 243.45 329.934311 
L 244.6125 327.592896 
L 245.775 321.545551 
L 246.9375 319.454304 
L 248.1 324.523655 
L 249.2625 319.896956 
L 250.425 323.139592 
L 251.5875 332.736677 
L 252.75 330.97661 
L 253.9125 323.027777 
L 255.075 332.514969 
L 256.2375 334.52112 
L 257.4 330.191029 
L 258.5625 337.468661 
L 259.725 347.447788 
L 260.8875 343.89715 
L 262.05 343.507149 
L 263.2125 346.476246 
L 264.375 347.147685 
L 265.5375 344.286089 
L 266.7 348.316275 
L 267.8625 350.738876 
L 269.025 347.525768 
L 270.1875 345.7665 
L 271.35 346.307537 
L 272.5125 342.071772 
L 273.675 341.549688 
L 274.8375 346.061481 
L 276 350.120971 
L 277.1625 351.816305 
L 278.325 356.800482 
L 279.4875 358.79249 
L 280.65 359.584767 
L 281.8125 357.607213 
L 282.975 351.539587 
L 284.1375 346.353267 
L 285.3 345.448697 
L 286.4625 345.16156 
L 287.625 346.855557 
L 288.7875 351.433363 
L 289.95 353.83159 
L 291.1125 355.320346 
L 292.275 354.239489 
L 293.4375 351.112437 
L 294.6 351.838136 
L 295.7625 350.609861 
L 296.925 350.206791 
L 298.0875 351.875215 
L 299.25 351.764493 
L 300.4125 350.100402 
L 301.575 352.052233 
L 302.7375 349.94988 
L 303.9 347.4943 
L 305.0625 351.881914 
L 306.225 351.67576 
L 307.3875 353.645975 
L 308.55 352.894593 
L 309.7125 352.663249 
L 310.875 350.028195 
L 312.0375 349.341232 
L 313.2 348.849945 
L 314.3625 350.513181 
L 315.525 351.807854 
L 316.6875 352.238203 
L 317.85 355.672071 
L 319.0125 354.877013 
L 320.175 356.474254 
L 321.3375 358.568668 
L 322.5 359.777381 
L 323.6625 356.99516 
L 324.825 356.651988 
L 325.9875 354.803712 
L 327.15 350.690901 
L 328.3125 348.570824 
L 329.475 351.750264 
L 330.6375 352.917507 
L 331.8 355.511499 
L 332.9625 357.175986 
L 334.125 357.241049 
L 335.2875 355.448721 
L 336.45 353.287836 
L 337.6125 352.054918 
L 338.775 352.79578 
L 339.9375 353.222847 
L 341.1 353.096681 
L 342.2625 354.286702 
L 343.425 354.421178 
L 344.5875 355.17548 
L 345.75 356.267814 
L 346.9125 357.91156 
L 348.075 358.723679 
L 349.2375 358.519055 
L 351.5625 357.106486 
L 352.725 356.180837 
L 353.8875 354.823182 
L 355.05 355.531932 
L 356.2125 356.654896 
L 357.375 356.936331 
L 358.5375 355.309246 
L 359.7 352.440941 
L 360.8625 348.975927 
L 362.025 346.235698 
L 363.1875 346.318075 
L 365.5125 352.232517 
L 366.675 355.446836 
L 367.8375 359.017806 
L 369 359.97275 
L 370.1625 356.912442 
L 371.325 355.363303 
L 372.4875 354.435641 
L 373.65 353.827557 
L 374.8125 353.816997 
L 375.975 355.541817 
L 377.1375 359.245607 
L 378.3 360.600019 
L 379.4625 361.513391 
L 380.625 363.395968 
L 381.7875 363.815266 
L 382.95 361.727359 
L 384.1125 360.621655 
L 385.275 358.985854 
L 386.4375 356.180365 
L 387.6 355.51202 
L 388.7625 355.727821 
L 389.925 356.769555 
L 391.0875 358.509838 
L 392.25 360.511023 
L 393.4125 360.564393 
L 394.575 360.466673 
L 395.7375 361.090085 
L 396.9 360.395277 
L 398.0625 357.601548 
L 399.225 355.232645 
L 400.3875 354.561344 
L 401.55 354.950043 
L 402.7125 356.63721 
L 403.875 357.851325 
L 405.0375 359.304231 
L 406.2 360.471194 
L 408.525 355.574689 
L 409.6875 355.723465 
L 410.85 356.602121 
L 412.0125 356.736363 
L 413.175 358.263978 
L 414.3375 360.56694 
L 415.5 362.540648 
L 416.6625 363.648675 
L 417.825 363.290242 
L 418.9875 364.494476 
L 420.15 364.157873 
L 421.3125 364.316256 
L 422.475 363.867068 
L 423.6375 362.825719 
L 424.8 360.622539 
L 427.125 357.74884 
L 428.2875 358.611618 
L 429.45 360.202875 
L 430.6125 360.166011 
L 432.9375 356.896903 
L 434.1 356.02734 
L 435.2625 357.406058 
L 436.425 360.079671 
L 437.5875 363.998398 
L 438.75 365.934858 
L 441.075 364.100213 
L 442.2375 361.939456 
L 443.4 359.240423 
L 444.5625 358.918994 
L 445.725 359.102117 
L 446.8875 360.070116 
L 449.2125 360.239868 
L 450.375 361.194544 
L 451.5375 363.203544 
L 452.7 362.861988 
L 455.025 365.90528 
L 456.1875 363.908741 
L 457.35 360.908805 
L 458.5125 359.289026 
L 459.675 358.573973 
L 460.8375 357.485223 
L 462 357.816094 
L 463.1625 357.68606 
L 464.325 355.555999 
L 465.4875 354.089337 
L 466.65 354.799619 
L 467.8125 354.105543 
L 468.975 354.143249 
L 470.1375 356.103262 
L 471.3 357.518431 
L 475.95 356.998845 
L 477.1125 356.202991 
L 478.275 355.765944 
L 479.4375 357.887423 
L 480.6 360.97443 
L 481.7625 363.264945 
L 482.925 364.853079 
L 484.0875 365.721029 
L 485.25 365.965155 
L 486.4125 365.699855 
L 487.575 364.521564 
L 488.7375 364.239319 
L 489.9 364.73824 
L 491.0625 364.604077 
L 492.225 364.235202 
L 493.3875 364.589344 
L 494.55 364.084148 
L 495.7125 362.329305 
L 496.875 361.082425 
L 498.0375 360.983711 
L 499.2 360.405342 
L 500.3625 358.819098 
L 501.525 357.744884 
L 502.6875 358.558732 
L 503.85 358.090296 
L 505.0125 357.085663 
L 506.175 359.270509 
L 507.3375 362.03583 
L 508.5 362.225026 
L 509.6625 363.001161 
L 510.825 364.812306 
L 513.15 364.731717 
L 514.3125 365.521496 
L 515.475 364.809426 
L 516.6375 363.01049 
L 518.9625 360.531475 
L 520.125 359.744553 
L 522.45 362.496247 
L 523.6125 364.067729 
L 524.775 365.380376 
L 525.9375 365.637053 
L 527.1 364.332677 
L 528.2625 363.416956 
L 529.425 362.96947 
L 531.75 363.669528 
L 532.9125 362.840982 
L 534.075 362.246618 
L 535.2375 362.439082 
L 536.4 361.952914 
L 537.5625 360.604179 
L 538.725 360.776744 
L 539.8875 361.137375 
L 541.05 360.152569 
L 543.375 358.60387 
L 544.5375 357.964938 
L 546.8625 360.449903 
L 548.025 360.769805 
L 549.1875 363.639122 
L 550.35 364.638464 
L 551.5125 363.837211 
L 552.675 362.146762 
L 553.8375 360.073152 
L 555 358.480023 
L 556.1625 359.135197 
L 557.325 358.695117 
L 558.4875 359.741179 
L 559.65 362.836354 
L 560.8125 363.500029 
L 561.975 362.635279 
L 564.3 362.048989 
L 565.4625 360.552693 
L 566.625 358.742248 
L 567.7875 357.776062 
L 568.95 358.29936 
L 570.1125 359.843771 
L 571.275 360.794196 
L 573.6 364.730474 
L 574.7625 364.806351 
L 575.925 362.629766 
L 577.0875 361.636759 
L 578.25 360.056041 
L 579.4125 358.943081 
L 580.575 358.854469 
L 582.9 355.505237 
L 584.0625 356.900226 
L 585.225 357.124774 
L 586.3875 356.352035 
L 587.55 358.323681 
L 588.7125 360.557397 
L 589.875 360.784334 
L 591.0375 362.474292 
L 592.2 363.836882 
L 593.3625 363.713505 
L 594.525 363.290846 
L 595.6875 363.311607 
L 596.85 361.832897 
L 598.0125 362.288604 
L 599.175 364.237873 
L 600.3375 365.381066 
L 601.5 365.656791 
L 602.6625 366.310524 
L 603.825 365.968429 
L 606.15 362.954897 
L 607.3125 362.519387 
L 608.475 362.267386 
L 609.6375 360.993527 
L 610.8 360.682995 
L 611.9625 361.030032 
L 613.125 359.606138 
L 614.2875 358.613975 
L 615.45 359.533548 
L 616.6125 360.741109 
L 617.775 361.505413 
L 618.9375 361.739297 
L 620.1 361.412478 
L 621.2625 360.460947 
L 622.425 359.187592 
L 623.5875 358.67954 
L 624.75 359.458767 
L 624.75 359.458767 
" style="fill:none;stroke:#0000ff;stroke-linecap:square;stroke-width:1.5;"/>
   </g>
   <g id="line2d_25">
    <path clip-path="url(#p7c4c75c8b6)" d="M 88.8375 360.286543 
L 108.6 360.28861 
L 267.8625 360.359634 
L 269.025 359.782837 
L 271.35 357.2726 
L 273.675 353.780097 
L 274.8375 353.488212 
L 277.1625 353.34323 
L 278.325 353.273222 
L 279.4875 353.701508 
L 280.65 353.763348 
L 281.8125 354.307351 
L 282.975 354.604017 
L 284.1375 355.059373 
L 285.3 353.027965 
L 286.4625 349.797022 
L 287.625 347.493947 
L 288.7875 346.333117 
L 291.1125 345.624335 
L 292.275 343.572266 
L 293.4375 343.272046 
L 295.7625 341.638128 
L 298.0875 344.311863 
L 299.25 345.201627 
L 301.575 346.135145 
L 302.7375 346.995464 
L 303.9 347.630546 
L 305.0625 348.028853 
L 307.3875 349.249921 
L 309.7125 349.775951 
L 312.0375 349.626786 
L 313.2 350.060101 
L 315.525 349.682398 
L 319.0125 350.322007 
L 320.175 350.712934 
L 321.3375 350.907441 
L 323.6625 351.107013 
L 324.825 351.470752 
L 325.9875 351.660028 
L 327.15 351.726957 
L 328.3125 351.932018 
L 329.475 352.330825 
L 331.8 352.463642 
L 334.125 353.097081 
L 336.45 353.800326 
L 338.775 353.78021 
L 339.9375 353.915643 
L 341.1 353.885551 
L 342.2625 354.13791 
L 343.425 353.988628 
L 345.75 353.283784 
L 346.9125 352.84393 
L 349.2375 352.268401 
L 351.5625 351.201394 
L 353.8875 350.8605 
L 355.05 350.862959 
L 357.375 351.225512 
L 360.8625 352.123198 
L 362.025 352.282378 
L 363.1875 352.573919 
L 364.35 353.147643 
L 365.5125 353.205913 
L 366.675 353.455889 
L 367.8375 353.853391 
L 369 353.821023 
L 370.1625 353.941692 
L 371.325 354.406687 
L 374.8125 354.930349 
L 375.975 355.356882 
L 379.4625 356.015033 
L 384.1125 357.228611 
L 385.275 357.333527 
L 391.0875 358.371903 
L 394.575 358.913334 
L 402.7125 359.460029 
L 405.0375 359.642494 
L 414.3375 359.818188 
L 416.6625 359.787539 
L 418.9875 359.782056 
L 420.15 359.746122 
L 421.3125 359.849258 
L 428.2875 359.700748 
L 429.45 359.788639 
L 432.9375 359.708441 
L 435.2625 359.763986 
L 444.5625 359.745943 
L 446.8875 359.94636 
L 449.2125 359.901845 
L 452.7 359.948329 
L 460.8375 360.012842 
L 479.4375 360.066692 
L 480.6 360.177372 
L 500.3625 359.951353 
L 505.0125 360.064761 
L 511.9875 360.175628 
L 517.8 360.222288 
L 520.125 360.233072 
L 525.9375 360.193119 
L 532.9125 360.216842 
L 536.4 360.177816 
L 558.4875 360.207303 
L 561.975 360.213131 
L 564.3 360.234975 
L 567.7875 360.282449 
L 572.4375 360.205529 
L 575.925 360.230432 
L 599.175 360.189429 
L 603.825 360.122613 
L 617.775 360.196693 
L 622.425 360.312472 
L 628.2375 360.287439 
L 629.4 360.273993 
L 629.4 360.273993 
" style="fill:none;stroke:#008000;stroke-linecap:square;stroke-width:1.5;"/>
   </g>
   <g id="line2d_26">
    <path clip-path="url(#p7c4c75c8b6)" d="M 88.8375 360.109078 
L 99.3 360.118171 
L 266.7 360.010495 
L 267.8625 359.847421 
L 269.025 360.324202 
L 270.1875 360.980817 
L 271.35 360.6329 
L 272.5125 358.890108 
L 273.675 356.677419 
L 274.8375 355.074829 
L 276 354.078333 
L 277.1625 353.318287 
L 279.4875 352.057372 
L 280.65 351.888844 
L 282.975 351.964473 
L 284.1375 351.553147 
L 285.3 351.62364 
L 286.4625 352.119391 
L 287.625 352.463042 
L 288.7875 352.456422 
L 289.95 352.117187 
L 291.1125 351.415756 
L 292.275 351.533149 
L 294.6 351.357876 
L 295.7625 351.624899 
L 296.925 351.411167 
L 298.0875 350.713056 
L 299.25 350.421027 
L 301.575 350.64546 
L 303.9 350.045403 
L 306.225 349.945811 
L 307.3875 350.084202 
L 308.55 350.744818 
L 309.7125 351.550022 
L 310.875 352.53878 
L 312.0375 353.229812 
L 313.2 353.278483 
L 315.525 354.016853 
L 319.0125 353.768935 
L 320.175 353.869678 
L 321.3375 354.368791 
L 322.5 355.052736 
L 323.6625 355.585029 
L 328.3125 356.155028 
L 329.475 355.923136 
L 331.8 356.190731 
L 335.2875 356.043854 
L 336.45 356.316812 
L 337.6125 356.944491 
L 338.775 357.413021 
L 339.9375 357.499681 
L 341.1 357.435318 
L 342.2625 356.929411 
L 343.425 356.6342 
L 345.75 356.2338 
L 346.9125 355.869978 
L 349.2375 354.584993 
L 353.8875 353.098912 
L 355.05 352.819096 
L 356.2125 352.658245 
L 357.375 352.731232 
L 359.7 353.242971 
L 362.025 354.44845 
L 363.1875 354.795498 
L 364.35 354.801347 
L 365.5125 355.317539 
L 366.675 355.666875 
L 367.8375 355.825647 
L 369 356.368701 
L 370.1625 356.701986 
L 371.325 356.603316 
L 374.8125 357.212826 
L 375.975 357.185462 
L 379.4625 358.021463 
L 381.7875 358.255748 
L 382.95 358.289181 
L 384.1125 358.488331 
L 385.275 358.813681 
L 386.4375 358.941381 
L 387.6 358.881741 
L 389.925 358.943001 
L 395.7375 358.843116 
L 400.3875 359.485733 
L 408.525 359.249913 
L 409.6875 359.343672 
L 410.85 359.265911 
L 413.175 359.271832 
L 417.825 359.273881 
L 420.15 359.359393 
L 421.3125 359.216266 
L 424.8 359.254997 
L 425.9625 359.355539 
L 428.2875 359.34425 
L 429.45 359.208563 
L 432.9375 359.251323 
L 435.2625 359.154988 
L 441.075 359.44865 
L 444.5625 359.676047 
L 446.8875 359.399854 
L 448.05 359.36073 
L 450.375 359.535786 
L 455.025 359.526791 
L 457.35 359.485914 
L 459.675 359.422535 
L 463.1625 359.385932 
L 465.4875 359.453963 
L 467.8125 359.612751 
L 472.4625 359.602796 
L 478.275 359.765477 
L 482.925 359.272936 
L 485.25 359.262262 
L 488.7375 359.474265 
L 496.875 359.457032 
L 503.85 359.826545 
L 513.15 359.745709 
L 515.475 359.895677 
L 517.8 359.757586 
L 518.9625 359.650351 
L 527.1 359.686888 
L 532.9125 359.579631 
L 536.4 359.70213 
L 538.725 359.778309 
L 541.05 359.965722 
L 544.5375 359.880805 
L 546.8625 359.911215 
L 549.1875 359.973463 
L 553.8375 359.641341 
L 561.975 359.905791 
L 563.1375 359.822714 
L 566.625 359.836989 
L 570.1125 359.772618 
L 580.575 359.985794 
L 592.2 359.635673 
L 600.3375 359.591105 
L 608.475 359.905094 
L 618.9375 359.996423 
L 624.75 359.766734 
L 629.4 359.785824 
L 629.4 359.785824 
" style="fill:none;stroke:#ffa500;stroke-linecap:square;stroke-width:1.5;"/>
   </g>
   <g id="line2d_27">
    <path clip-path="url(#p7c4c75c8b6)" d="M 88.8375 364.81474 
L 609.6375 364.814735 
L 609.6375 364.814735 
" style="fill:none;stroke:#800080;stroke-linecap:square;stroke-width:1.5;"/>
   </g>
   <g id="patch_3">
    <path d="M 90 384.48 
L 90 51.84 
" style="fill:none;stroke:#000000;stroke-linecap:square;stroke-linejoin:miter;stroke-width:0.8;"/>
   </g>
   <g id="patch_4">
    <path d="M 648 384.48 
L 648 51.84 
" style="fill:none;stroke:#000000;stroke-linecap:square;stroke-linejoin:miter;stroke-width:0.8;"/>
   </g>
   <g id="patch_5">
    <path d="M 90 384.48 
L 648 384.48 
" style="fill:none;stroke:#000000;stroke-linecap:square;stroke-linejoin:miter;stroke-width:0.8;"/>
   </g>
   <g id="patch_6">
    <path d="M 90 51.84 
L 648 51.84 
" style="fill:none;stroke:#000000;stroke-linecap:square;stroke-linejoin:miter;stroke-width:0.8;"/>
   </g>
   <g id="text_14">
    <!-- 96 point Prediction -->
    <defs>
     <path d="M 10.984375 1.515625 
L 10.984375 10.5 
Q 14.703125 8.734375 18.5 7.8125 
Q 22.3125 6.890625 25.984375 6.890625 
Q 35.75 6.890625 40.890625 13.453125 
Q 46.046875 20.015625 46.78125 33.40625 
Q 43.953125 29.203125 39.59375 26.953125 
Q 35.25 24.703125 29.984375 24.703125 
Q 19.046875 24.703125 12.671875 31.3125 
Q 6.296875 37.9375 6.296875 49.421875 
Q 6.296875 60.640625 12.9375 67.421875 
Q 19.578125 74.21875 30.609375 74.21875 
Q 43.265625 74.21875 49.921875 64.515625 
Q 56.59375 54.828125 56.59375 36.375 
Q 56.59375 19.140625 48.40625 8.859375 
Q 40.234375 -1.421875 26.421875 -1.421875 
Q 22.703125 -1.421875 18.890625 -0.6875 
Q 15.09375 0.046875 10.984375 1.515625 
z
M 30.609375 32.421875 
Q 37.25 32.421875 41.125 36.953125 
Q 45.015625 41.5 45.015625 49.421875 
Q 45.015625 57.28125 41.125 61.84375 
Q 37.25 66.40625 30.609375 66.40625 
Q 23.96875 66.40625 20.09375 61.84375 
Q 16.21875 57.28125 16.21875 49.421875 
Q 16.21875 41.5 20.09375 36.953125 
Q 23.96875 32.421875 30.609375 32.421875 
z
" id="DejaVuSans-57"/>
     <path d="M 18.3125 70.21875 
L 18.3125 54.6875 
L 36.8125 54.6875 
L 36.8125 47.703125 
L 18.3125 47.703125 
L 18.3125 18.015625 
Q 18.3125 11.328125 20.140625 9.421875 
Q 21.96875 7.515625 27.59375 7.515625 
L 36.8125 7.515625 
L 36.8125 0 
L 27.59375 0 
Q 17.1875 0 13.234375 3.875 
Q 9.28125 7.765625 9.28125 18.015625 
L 9.28125 47.703125 
L 2.6875 47.703125 
L 2.6875 54.6875 
L 9.28125 54.6875 
L 9.28125 70.21875 
z
" id="DejaVuSans-116"/>
     <path d="M 19.671875 64.796875 
L 19.671875 37.40625 
L 32.078125 37.40625 
Q 38.96875 37.40625 42.71875 40.96875 
Q 46.484375 44.53125 46.484375 51.125 
Q 46.484375 57.671875 42.71875 61.234375 
Q 38.96875 64.796875 32.078125 64.796875 
z
M 9.8125 72.90625 
L 32.078125 72.90625 
Q 44.34375 72.90625 50.609375 67.359375 
Q 56.890625 61.8125 56.890625 51.125 
Q 56.890625 40.328125 50.609375 34.8125 
Q 44.34375 29.296875 32.078125 29.296875 
L 19.671875 29.296875 
L 19.671875 0 
L 9.8125 0 
z
" id="DejaVuSans-80"/>
     <path d="M 45.40625 46.390625 
L 45.40625 75.984375 
L 54.390625 75.984375 
L 54.390625 0 
L 45.40625 0 
L 45.40625 8.203125 
Q 42.578125 3.328125 38.25 0.953125 
Q 33.9375 -1.421875 27.875 -1.421875 
Q 17.96875 -1.421875 11.734375 6.484375 
Q 5.515625 14.40625 5.515625 27.296875 
Q 5.515625 40.1875 11.734375 48.09375 
Q 17.96875 56 27.875 56 
Q 33.9375 56 38.25 53.625 
Q 42.578125 51.265625 45.40625 46.390625 
z
M 14.796875 27.296875 
Q 14.796875 17.390625 18.875 11.75 
Q 22.953125 6.109375 30.078125 6.109375 
Q 37.203125 6.109375 41.296875 11.75 
Q 45.40625 17.390625 45.40625 27.296875 
Q 45.40625 37.203125 41.296875 42.84375 
Q 37.203125 48.484375 30.078125 48.484375 
Q 22.953125 48.484375 18.875 42.84375 
Q 14.796875 37.203125 14.796875 27.296875 
z
" id="DejaVuSans-100"/>
     <path d="M 48.78125 52.59375 
L 48.78125 44.1875 
Q 44.96875 46.296875 41.140625 47.34375 
Q 37.3125 48.390625 33.40625 48.390625 
Q 24.65625 48.390625 19.8125 42.84375 
Q 14.984375 37.3125 14.984375 27.296875 
Q 14.984375 17.28125 19.8125 11.734375 
Q 24.65625 6.203125 33.40625 6.203125 
Q 37.3125 6.203125 41.140625 7.25 
Q 44.96875 8.296875 48.78125 10.40625 
L 48.78125 2.09375 
Q 45.015625 0.34375 40.984375 -0.53125 
Q 36.96875 -1.421875 32.421875 -1.421875 
Q 20.0625 -1.421875 12.78125 6.34375 
Q 5.515625 14.109375 5.515625 27.296875 
Q 5.515625 40.671875 12.859375 48.328125 
Q 20.21875 56 33.015625 56 
Q 37.15625 56 41.109375 55.140625 
Q 45.0625 54.296875 48.78125 52.59375 
z
" id="DejaVuSans-99"/>
    </defs>
    <g transform="translate(312.208125 45.84)scale(0.12 -0.12)">
     <use xlink:href="#DejaVuSans-57"/>
     <use x="63.623047" xlink:href="#DejaVuSans-54"/>
     <use x="127.246094" xlink:href="#DejaVuSans-32"/>
     <use x="159.033203" xlink:href="#DejaVuSans-112"/>
     <use x="222.509766" xlink:href="#DejaVuSans-111"/>
     <use x="283.691406" xlink:href="#DejaVuSans-105"/>
     <use x="311.474609" xlink:href="#DejaVuSans-110"/>
     <use x="374.853516" xlink:href="#DejaVuSans-116"/>
     <use x="414.0625" xlink:href="#DejaVuSans-32"/>
     <use x="445.849609" xlink:href="#DejaVuSans-80"/>
     <use x="506.136719" xlink:href="#DejaVuSans-114"/>
     <use x="547.21875" xlink:href="#DejaVuSans-101"/>
     <use x="608.742188" xlink:href="#DejaVuSans-100"/>
     <use x="672.21875" xlink:href="#DejaVuSans-105"/>
     <use x="700.001953" xlink:href="#DejaVuSans-99"/>
     <use x="754.982422" xlink:href="#DejaVuSans-116"/>
     <use x="794.191406" xlink:href="#DejaVuSans-105"/>
     <use x="821.974609" xlink:href="#DejaVuSans-111"/>
     <use x="883.15625" xlink:href="#DejaVuSans-110"/>
    </g>
   </g>
   <g id="legend_1">
    <g id="patch_7">
     <path d="M 477.804688 133.230625 
L 641 133.230625 
Q 643 133.230625 643 131.230625 
L 643 58.84 
Q 643 56.84 641 56.84 
L 477.804688 56.84 
Q 475.804688 56.84 475.804688 58.84 
L 475.804688 131.230625 
Q 475.804688 133.230625 477.804688 133.230625 
z
" style="fill:#ffffff;opacity:0.8;stroke:#cccccc;stroke-linejoin:miter;"/>
    </g>
    <g id="line2d_28">
     <path d="M 479.804688 64.938437 
L 499.804688 64.938437 
" style="fill:none;stroke:#ff0000;stroke-linecap:square;stroke-width:1.5;"/>
    </g>
    <g id="line2d_29"/>
    <g id="text_15">
     <!-- Transformer-96 Prediction -->
     <defs>
      <path d="M 37.109375 75.984375 
L 37.109375 68.5 
L 28.515625 68.5 
Q 23.6875 68.5 21.796875 66.546875 
Q 19.921875 64.59375 19.921875 59.515625 
L 19.921875 54.6875 
L 34.71875 54.6875 
L 34.71875 47.703125 
L 19.921875 47.703125 
L 19.921875 0 
L 10.890625 0 
L 10.890625 47.703125 
L 2.296875 47.703125 
L 2.296875 54.6875 
L 10.890625 54.6875 
L 10.890625 58.5 
Q 10.890625 67.625 15.140625 71.796875 
Q 19.390625 75.984375 28.609375 75.984375 
z
" id="DejaVuSans-102"/>
      <path d="M 4.890625 31.390625 
L 31.203125 31.390625 
L 31.203125 23.390625 
L 4.890625 23.390625 
z
" id="DejaVuSans-45"/>
     </defs>
     <g transform="translate(507.804688 68.438437)scale(0.1 -0.1)">
      <use xlink:href="#DejaVuSans-84"/>
      <use x="60.865234" xlink:href="#DejaVuSans-114"/>
      <use x="101.978516" xlink:href="#DejaVuSans-97"/>
      <use x="163.257812" xlink:href="#DejaVuSans-110"/>
      <use x="226.636719" xlink:href="#DejaVuSans-115"/>
      <use x="278.736328" xlink:href="#DejaVuSans-102"/>
      <use x="313.941406" xlink:href="#DejaVuSans-111"/>
      <use x="375.123047" xlink:href="#DejaVuSans-114"/>
      <use x="416.220703" xlink:href="#DejaVuSans-109"/>
      <use x="513.632812" xlink:href="#DejaVuSans-101"/>
      <use x="575.15625" xlink:href="#DejaVuSans-114"/>
      <use x="616.175781" xlink:href="#DejaVuSans-45"/>
      <use x="652.259766" xlink:href="#DejaVuSans-57"/>
      <use x="715.882812" xlink:href="#DejaVuSans-54"/>
      <use x="779.505859" xlink:href="#DejaVuSans-32"/>
      <use x="811.292969" xlink:href="#DejaVuSans-80"/>
      <use x="871.580078" xlink:href="#DejaVuSans-114"/>
      <use x="912.662109" xlink:href="#DejaVuSans-101"/>
      <use x="974.185547" xlink:href="#DejaVuSans-100"/>
      <use x="1037.662109" xlink:href="#DejaVuSans-105"/>
      <use x="1065.445312" xlink:href="#DejaVuSans-99"/>
      <use x="1120.425781" xlink:href="#DejaVuSans-116"/>
      <use x="1159.634766" xlink:href="#DejaVuSans-105"/>
      <use x="1187.417969" xlink:href="#DejaVuSans-111"/>
      <use x="1248.599609" xlink:href="#DejaVuSans-110"/>
     </g>
    </g>
    <g id="line2d_30">
     <path d="M 479.804688 79.616562 
L 499.804688 79.616562 
" style="fill:none;stroke:#0000ff;stroke-linecap:square;stroke-width:1.5;"/>
    </g>
    <g id="line2d_31"/>
    <g id="text_16">
     <!-- GroundTruth(smoothed) -->
     <defs>
      <path d="M 59.515625 10.40625 
L 59.515625 29.984375 
L 43.40625 29.984375 
L 43.40625 38.09375 
L 69.28125 38.09375 
L 69.28125 6.78125 
Q 63.578125 2.734375 56.6875 0.65625 
Q 49.8125 -1.421875 42 -1.421875 
Q 24.90625 -1.421875 15.25 8.5625 
Q 5.609375 18.5625 5.609375 36.375 
Q 5.609375 54.25 15.25 64.234375 
Q 24.90625 74.21875 42 74.21875 
Q 49.125 74.21875 55.546875 72.453125 
Q 61.96875 70.703125 67.390625 67.28125 
L 67.390625 56.78125 
Q 61.921875 61.421875 55.765625 63.765625 
Q 49.609375 66.109375 42.828125 66.109375 
Q 29.4375 66.109375 22.71875 58.640625 
Q 16.015625 51.171875 16.015625 36.375 
Q 16.015625 21.625 22.71875 14.15625 
Q 29.4375 6.6875 42.828125 6.6875 
Q 48.046875 6.6875 52.140625 7.59375 
Q 56.25 8.5 59.515625 10.40625 
z
" id="DejaVuSans-71"/>
      <path d="M 31 75.875 
Q 24.46875 64.65625 21.28125 53.65625 
Q 18.109375 42.671875 18.109375 31.390625 
Q 18.109375 20.125 21.3125 9.0625 
Q 24.515625 -2 31 -13.1875 
L 23.1875 -13.1875 
Q 15.875 -1.703125 12.234375 9.375 
Q 8.59375 20.453125 8.59375 31.390625 
Q 8.59375 42.28125 12.203125 53.3125 
Q 15.828125 64.359375 23.1875 75.875 
z
" id="DejaVuSans-40"/>
      <path d="M 8.015625 75.875 
L 15.828125 75.875 
Q 23.140625 64.359375 26.78125 53.3125 
Q 30.421875 42.28125 30.421875 31.390625 
Q 30.421875 20.453125 26.78125 9.375 
Q 23.140625 -1.703125 15.828125 -13.1875 
L 8.015625 -13.1875 
Q 14.5 -2 17.703125 9.0625 
Q 20.90625 20.125 20.90625 31.390625 
Q 20.90625 42.671875 17.703125 53.65625 
Q 14.5 64.65625 8.015625 75.875 
z
" id="DejaVuSans-41"/>
     </defs>
     <g transform="translate(507.804688 83.116562)scale(0.1 -0.1)">
      <use xlink:href="#DejaVuSans-71"/>
      <use x="77.490234" xlink:href="#DejaVuSans-114"/>
      <use x="118.572266" xlink:href="#DejaVuSans-111"/>
      <use x="179.753906" xlink:href="#DejaVuSans-117"/>
      <use x="243.132812" xlink:href="#DejaVuSans-110"/>
      <use x="306.511719" xlink:href="#DejaVuSans-100"/>
      <use x="369.988281" xlink:href="#DejaVuSans-84"/>
      <use x="430.853516" xlink:href="#DejaVuSans-114"/>
      <use x="471.966797" xlink:href="#DejaVuSans-117"/>
      <use x="535.345703" xlink:href="#DejaVuSans-116"/>
      <use x="574.554688" xlink:href="#DejaVuSans-104"/>
      <use x="637.933594" xlink:href="#DejaVuSans-40"/>
      <use x="676.947266" xlink:href="#DejaVuSans-115"/>
      <use x="729.046875" xlink:href="#DejaVuSans-109"/>
      <use x="826.458984" xlink:href="#DejaVuSans-111"/>
      <use x="887.640625" xlink:href="#DejaVuSans-111"/>
      <use x="948.822266" xlink:href="#DejaVuSans-116"/>
      <use x="988.03125" xlink:href="#DejaVuSans-104"/>
      <use x="1051.410156" xlink:href="#DejaVuSans-101"/>
      <use x="1112.933594" xlink:href="#DejaVuSans-100"/>
      <use x="1176.410156" xlink:href="#DejaVuSans-41"/>
     </g>
    </g>
    <g id="line2d_32">
     <path d="M 479.804688 94.294687 
L 499.804688 94.294687 
" style="fill:none;stroke:#008000;stroke-linecap:square;stroke-width:1.5;"/>
    </g>
    <g id="line2d_33"/>
    <g id="text_17">
     <!-- LSTM-96 Prediction -->
     <defs>
      <path d="M 9.8125 72.90625 
L 19.671875 72.90625 
L 19.671875 8.296875 
L 55.171875 8.296875 
L 55.171875 0 
L 9.8125 0 
z
" id="DejaVuSans-76"/>
      <path d="M 53.515625 70.515625 
L 53.515625 60.890625 
Q 47.90625 63.578125 42.921875 64.890625 
Q 37.9375 66.21875 33.296875 66.21875 
Q 25.25 66.21875 20.875 63.09375 
Q 16.5 59.96875 16.5 54.203125 
Q 16.5 49.359375 19.40625 46.890625 
Q 22.3125 44.4375 30.421875 42.921875 
L 36.375 41.703125 
Q 47.40625 39.59375 52.65625 34.296875 
Q 57.90625 29 57.90625 20.125 
Q 57.90625 9.515625 50.796875 4.046875 
Q 43.703125 -1.421875 29.984375 -1.421875 
Q 24.8125 -1.421875 18.96875 -0.25 
Q 13.140625 0.921875 6.890625 3.21875 
L 6.890625 13.375 
Q 12.890625 10.015625 18.65625 8.296875 
Q 24.421875 6.59375 29.984375 6.59375 
Q 38.421875 6.59375 43.015625 9.90625 
Q 47.609375 13.234375 47.609375 19.390625 
Q 47.609375 24.75 44.3125 27.78125 
Q 41.015625 30.8125 33.5 32.328125 
L 27.484375 33.5 
Q 16.453125 35.6875 11.515625 40.375 
Q 6.59375 45.0625 6.59375 53.421875 
Q 6.59375 63.09375 13.40625 68.65625 
Q 20.21875 74.21875 32.171875 74.21875 
Q 37.3125 74.21875 42.625 73.28125 
Q 47.953125 72.359375 53.515625 70.515625 
z
" id="DejaVuSans-83"/>
      <path d="M 9.8125 72.90625 
L 24.515625 72.90625 
L 43.109375 23.296875 
L 61.8125 72.90625 
L 76.515625 72.90625 
L 76.515625 0 
L 66.890625 0 
L 66.890625 64.015625 
L 48.09375 14.015625 
L 38.1875 14.015625 
L 19.390625 64.015625 
L 19.390625 0 
L 9.8125 0 
z
" id="DejaVuSans-77"/>
     </defs>
     <g transform="translate(507.804688 97.794687)scale(0.1 -0.1)">
      <use xlink:href="#DejaVuSans-76"/>
      <use x="55.712891" xlink:href="#DejaVuSans-83"/>
      <use x="119.189453" xlink:href="#DejaVuSans-84"/>
      <use x="180.273438" xlink:href="#DejaVuSans-77"/>
      <use x="266.552734" xlink:href="#DejaVuSans-45"/>
      <use x="302.636719" xlink:href="#DejaVuSans-57"/>
      <use x="366.259766" xlink:href="#DejaVuSans-54"/>
      <use x="429.882812" xlink:href="#DejaVuSans-32"/>
      <use x="461.669922" xlink:href="#DejaVuSans-80"/>
      <use x="521.957031" xlink:href="#DejaVuSans-114"/>
      <use x="563.039062" xlink:href="#DejaVuSans-101"/>
      <use x="624.5625" xlink:href="#DejaVuSans-100"/>
      <use x="688.039062" xlink:href="#DejaVuSans-105"/>
      <use x="715.822266" xlink:href="#DejaVuSans-99"/>
      <use x="770.802734" xlink:href="#DejaVuSans-116"/>
      <use x="810.011719" xlink:href="#DejaVuSans-105"/>
      <use x="837.794922" xlink:href="#DejaVuSans-111"/>
      <use x="898.976562" xlink:href="#DejaVuSans-110"/>
     </g>
    </g>
    <g id="line2d_34">
     <path d="M 479.804688 108.972812 
L 499.804688 108.972812 
" style="fill:none;stroke:#ffa500;stroke-linecap:square;stroke-width:1.5;"/>
    </g>
    <g id="line2d_35"/>
    <g id="text_18">
     <!-- GRU-96 Prediction -->
     <defs>
      <path d="M 44.390625 34.1875 
Q 47.5625 33.109375 50.5625 29.59375 
Q 53.5625 26.078125 56.59375 19.921875 
L 66.609375 0 
L 56 0 
L 46.6875 18.703125 
Q 43.0625 26.03125 39.671875 28.421875 
Q 36.28125 30.8125 30.421875 30.8125 
L 19.671875 30.8125 
L 19.671875 0 
L 9.8125 0 
L 9.8125 72.90625 
L 32.078125 72.90625 
Q 44.578125 72.90625 50.734375 67.671875 
Q 56.890625 62.453125 56.890625 51.90625 
Q 56.890625 45.015625 53.6875 40.46875 
Q 50.484375 35.9375 44.390625 34.1875 
z
M 19.671875 64.796875 
L 19.671875 38.921875 
L 32.078125 38.921875 
Q 39.203125 38.921875 42.84375 42.21875 
Q 46.484375 45.515625 46.484375 51.90625 
Q 46.484375 58.296875 42.84375 61.546875 
Q 39.203125 64.796875 32.078125 64.796875 
z
" id="DejaVuSans-82"/>
      <path d="M 8.6875 72.90625 
L 18.609375 72.90625 
L 18.609375 28.609375 
Q 18.609375 16.890625 22.84375 11.734375 
Q 27.09375 6.59375 36.625 6.59375 
Q 46.09375 6.59375 50.34375 11.734375 
Q 54.59375 16.890625 54.59375 28.609375 
L 54.59375 72.90625 
L 64.5 72.90625 
L 64.5 27.390625 
Q 64.5 13.140625 57.4375 5.859375 
Q 50.390625 -1.421875 36.625 -1.421875 
Q 22.796875 -1.421875 15.734375 5.859375 
Q 8.6875 13.140625 8.6875 27.390625 
z
" id="DejaVuSans-85"/>
     </defs>
     <g transform="translate(507.804688 112.472812)scale(0.1 -0.1)">
      <use xlink:href="#DejaVuSans-71"/>
      <use x="77.490234" xlink:href="#DejaVuSans-82"/>
      <use x="146.972656" xlink:href="#DejaVuSans-85"/>
      <use x="220.166016" xlink:href="#DejaVuSans-45"/>
      <use x="256.25" xlink:href="#DejaVuSans-57"/>
      <use x="319.873047" xlink:href="#DejaVuSans-54"/>
      <use x="383.496094" xlink:href="#DejaVuSans-32"/>
      <use x="415.283203" xlink:href="#DejaVuSans-80"/>
      <use x="475.570312" xlink:href="#DejaVuSans-114"/>
      <use x="516.652344" xlink:href="#DejaVuSans-101"/>
      <use x="578.175781" xlink:href="#DejaVuSans-100"/>
      <use x="641.652344" xlink:href="#DejaVuSans-105"/>
      <use x="669.435547" xlink:href="#DejaVuSans-99"/>
      <use x="724.416016" xlink:href="#DejaVuSans-116"/>
      <use x="763.625" xlink:href="#DejaVuSans-105"/>
      <use x="791.408203" xlink:href="#DejaVuSans-111"/>
      <use x="852.589844" xlink:href="#DejaVuSans-110"/>
     </g>
    </g>
    <g id="line2d_36">
     <path d="M 479.804688 123.650937 
L 499.804688 123.650937 
" style="fill:none;stroke:#800080;stroke-linecap:square;stroke-width:1.5;"/>
    </g>
    <g id="line2d_37"/>
    <g id="text_19">
     <!-- RNN-96 Prediction -->
     <defs>
      <path d="M 9.8125 72.90625 
L 23.09375 72.90625 
L 55.421875 11.921875 
L 55.421875 72.90625 
L 64.984375 72.90625 
L 64.984375 0 
L 51.703125 0 
L 19.390625 60.984375 
L 19.390625 0 
L 9.8125 0 
z
" id="DejaVuSans-78"/>
     </defs>
     <g transform="translate(507.804688 127.150937)scale(0.1 -0.1)">
      <use xlink:href="#DejaVuSans-82"/>
      <use x="69.482422" xlink:href="#DejaVuSans-78"/>
      <use x="144.287109" xlink:href="#DejaVuSans-78"/>
      <use x="219.091797" xlink:href="#DejaVuSans-45"/>
      <use x="255.175781" xlink:href="#DejaVuSans-57"/>
      <use x="318.798828" xlink:href="#DejaVuSans-54"/>
      <use x="382.421875" xlink:href="#DejaVuSans-32"/>
      <use x="414.208984" xlink:href="#DejaVuSans-80"/>
      <use x="474.496094" xlink:href="#DejaVuSans-114"/>
      <use x="515.578125" xlink:href="#DejaVuSans-101"/>
      <use x="577.101562" xlink:href="#DejaVuSans-100"/>
      <use x="640.578125" xlink:href="#DejaVuSans-105"/>
      <use x="668.361328" xlink:href="#DejaVuSans-99"/>
      <use x="723.341797" xlink:href="#DejaVuSans-116"/>
      <use x="762.550781" xlink:href="#DejaVuSans-105"/>
      <use x="790.333984" xlink:href="#DejaVuSans-111"/>
      <use x="851.515625" xlink:href="#DejaVuSans-110"/>
     </g>
    </g>
   </g>
  </g>
 </g>
 <defs>
  <clipPath id="p7c4c75c8b6">
   <rect height="332.64" width="558" x="90" y="51.84"/>
  </clipPath>
 </defs>
</svg>
