<?xml version="1.0" encoding="utf-8" standalone="no"?>
<!DOCTYPE svg PUBLIC "-//W3C//DTD SVG 1.1//EN"
  "http://www.w3.org/Graphics/SVG/1.1/DTD/svg11.dtd">
<!-- Created with matplotlib (https://matplotlib.org/) -->
<svg height="432pt" version="1.1" viewBox="0 0 720 432" width="720pt" xmlns="http://www.w3.org/2000/svg" xmlns:xlink="http://www.w3.org/1999/xlink">
 <defs>
  <style type="text/css">
*{stroke-linecap:butt;stroke-linejoin:round;}
  </style>
 </defs>
 <g id="figure_1">
  <g id="patch_1">
   <path d="M 0 432 
L 720 432 
L 720 0 
L 0 0 
z
" style="fill:#ffffff;"/>
  </g>
  <g id="axes_1">
   <g id="patch_2">
    <path d="M 90 384.48 
L 648 384.48 
L 648 51.84 
L 90 51.84 
z
" style="fill:#ffffff;"/>
   </g>
   <g id="matplotlib.axis_1">
    <g id="xtick_1">
     <g id="line2d_1">
      <path clip-path="url(#pf034f9a320)" d="M 164.4 384.48 
L 164.4 51.84 
" style="fill:none;stroke:#b0b0b0;stroke-linecap:square;stroke-width:0.8;"/>
     </g>
     <g id="line2d_2">
      <defs>
       <path d="M 0 0 
L 0 3.5 
" id="mbd89b02e70" style="stroke:#000000;stroke-width:0.8;"/>
      </defs>
      <g>
       <use style="stroke:#000000;stroke-width:0.8;" x="164.4" xlink:href="#mbd89b02e70" y="384.48"/>
      </g>
     </g>
     <g id="text_1">
      <!-- 110 -->
      <defs>
       <path d="M 12.40625 8.296875 
L 28.515625 8.296875 
L 28.515625 63.921875 
L 10.984375 60.40625 
L 10.984375 69.390625 
L 28.421875 72.90625 
L 38.28125 72.90625 
L 38.28125 8.296875 
L 54.390625 8.296875 
L 54.390625 0 
L 12.40625 0 
z
" id="DejaVuSans-49"/>
       <path d="M 31.78125 66.40625 
Q 24.171875 66.40625 20.328125 58.90625 
Q 16.5 51.421875 16.5 36.375 
Q 16.5 21.390625 20.328125 13.890625 
Q 24.171875 6.390625 31.78125 6.390625 
Q 39.453125 6.390625 43.28125 13.890625 
Q 47.125 21.390625 47.125 36.375 
Q 47.125 51.421875 43.28125 58.90625 
Q 39.453125 66.40625 31.78125 66.40625 
z
M 31.78125 74.21875 
Q 44.046875 74.21875 50.515625 64.515625 
Q 56.984375 54.828125 56.984375 36.375 
Q 56.984375 17.96875 50.515625 8.265625 
Q 44.046875 -1.421875 31.78125 -1.421875 
Q 19.53125 -1.421875 13.0625 8.265625 
Q 6.59375 17.96875 6.59375 36.375 
Q 6.59375 54.828125 13.0625 64.515625 
Q 19.53125 74.21875 31.78125 74.21875 
z
" id="DejaVuSans-48"/>
      </defs>
      <g transform="translate(154.85625 399.078438)scale(0.1 -0.1)">
       <use xlink:href="#DejaVuSans-49"/>
       <use x="63.623047" xlink:href="#DejaVuSans-49"/>
       <use x="127.246094" xlink:href="#DejaVuSans-48"/>
      </g>
     </g>
    </g>
    <g id="xtick_2">
     <g id="line2d_3">
      <path clip-path="url(#pf034f9a320)" d="M 257.4 384.48 
L 257.4 51.84 
" style="fill:none;stroke:#b0b0b0;stroke-linecap:square;stroke-width:0.8;"/>
     </g>
     <g id="line2d_4">
      <g>
       <use style="stroke:#000000;stroke-width:0.8;" x="257.4" xlink:href="#mbd89b02e70" y="384.48"/>
      </g>
     </g>
     <g id="text_2">
      <!-- 115 -->
      <defs>
       <path d="M 10.796875 72.90625 
L 49.515625 72.90625 
L 49.515625 64.59375 
L 19.828125 64.59375 
L 19.828125 46.734375 
Q 21.96875 47.46875 24.109375 47.828125 
Q 26.265625 48.1875 28.421875 48.1875 
Q 40.625 48.1875 47.75 41.5 
Q 54.890625 34.8125 54.890625 23.390625 
Q 54.890625 11.625 47.5625 5.09375 
Q 40.234375 -1.421875 26.90625 -1.421875 
Q 22.3125 -1.421875 17.546875 -0.640625 
Q 12.796875 0.140625 7.71875 1.703125 
L 7.71875 11.625 
Q 12.109375 9.234375 16.796875 8.0625 
Q 21.484375 6.890625 26.703125 6.890625 
Q 35.15625 6.890625 40.078125 11.328125 
Q 45.015625 15.765625 45.015625 23.390625 
Q 45.015625 31 40.078125 35.4375 
Q 35.15625 39.890625 26.703125 39.890625 
Q 22.75 39.890625 18.8125 39.015625 
Q 14.890625 38.140625 10.796875 36.28125 
z
" id="DejaVuSans-53"/>
      </defs>
      <g transform="translate(247.85625 399.078438)scale(0.1 -0.1)">
       <use xlink:href="#DejaVuSans-49"/>
       <use x="63.623047" xlink:href="#DejaVuSans-49"/>
       <use x="127.246094" xlink:href="#DejaVuSans-53"/>
      </g>
     </g>
    </g>
    <g id="xtick_3">
     <g id="line2d_5">
      <path clip-path="url(#pf034f9a320)" d="M 350.4 384.48 
L 350.4 51.84 
" style="fill:none;stroke:#b0b0b0;stroke-linecap:square;stroke-width:0.8;"/>
     </g>
     <g id="line2d_6">
      <g>
       <use style="stroke:#000000;stroke-width:0.8;" x="350.4" xlink:href="#mbd89b02e70" y="384.48"/>
      </g>
     </g>
     <g id="text_3">
      <!-- 120 -->
      <defs>
       <path d="M 19.1875 8.296875 
L 53.609375 8.296875 
L 53.609375 0 
L 7.328125 0 
L 7.328125 8.296875 
Q 12.9375 14.109375 22.625 23.890625 
Q 32.328125 33.6875 34.8125 36.53125 
Q 39.546875 41.84375 41.421875 45.53125 
Q 43.3125 49.21875 43.3125 52.78125 
Q 43.3125 58.59375 39.234375 62.25 
Q 35.15625 65.921875 28.609375 65.921875 
Q 23.96875 65.921875 18.8125 64.3125 
Q 13.671875 62.703125 7.8125 59.421875 
L 7.8125 69.390625 
Q 13.765625 71.78125 18.9375 73 
Q 24.125 74.21875 28.421875 74.21875 
Q 39.75 74.21875 46.484375 68.546875 
Q 53.21875 62.890625 53.21875 53.421875 
Q 53.21875 48.921875 51.53125 44.890625 
Q 49.859375 40.875 45.40625 35.40625 
Q 44.1875 33.984375 37.640625 27.21875 
Q 31.109375 20.453125 19.1875 8.296875 
z
" id="DejaVuSans-50"/>
      </defs>
      <g transform="translate(340.85625 399.078438)scale(0.1 -0.1)">
       <use xlink:href="#DejaVuSans-49"/>
       <use x="63.623047" xlink:href="#DejaVuSans-50"/>
       <use x="127.246094" xlink:href="#DejaVuSans-48"/>
      </g>
     </g>
    </g>
    <g id="xtick_4">
     <g id="line2d_7">
      <path clip-path="url(#pf034f9a320)" d="M 443.4 384.48 
L 443.4 51.84 
" style="fill:none;stroke:#b0b0b0;stroke-linecap:square;stroke-width:0.8;"/>
     </g>
     <g id="line2d_8">
      <g>
       <use style="stroke:#000000;stroke-width:0.8;" x="443.4" xlink:href="#mbd89b02e70" y="384.48"/>
      </g>
     </g>
     <g id="text_4">
      <!-- 125 -->
      <g transform="translate(433.85625 399.078438)scale(0.1 -0.1)">
       <use xlink:href="#DejaVuSans-49"/>
       <use x="63.623047" xlink:href="#DejaVuSans-50"/>
       <use x="127.246094" xlink:href="#DejaVuSans-53"/>
      </g>
     </g>
    </g>
    <g id="xtick_5">
     <g id="line2d_9">
      <path clip-path="url(#pf034f9a320)" d="M 536.4 384.48 
L 536.4 51.84 
" style="fill:none;stroke:#b0b0b0;stroke-linecap:square;stroke-width:0.8;"/>
     </g>
     <g id="line2d_10">
      <g>
       <use style="stroke:#000000;stroke-width:0.8;" x="536.4" xlink:href="#mbd89b02e70" y="384.48"/>
      </g>
     </g>
     <g id="text_5">
      <!-- 130 -->
      <defs>
       <path d="M 40.578125 39.3125 
Q 47.65625 37.796875 51.625 33 
Q 55.609375 28.21875 55.609375 21.1875 
Q 55.609375 10.40625 48.1875 4.484375 
Q 40.765625 -1.421875 27.09375 -1.421875 
Q 22.515625 -1.421875 17.65625 -0.515625 
Q 12.796875 0.390625 7.625 2.203125 
L 7.625 11.71875 
Q 11.71875 9.328125 16.59375 8.109375 
Q 21.484375 6.890625 26.8125 6.890625 
Q 36.078125 6.890625 40.9375 10.546875 
Q 45.796875 14.203125 45.796875 21.1875 
Q 45.796875 27.640625 41.28125 31.265625 
Q 36.765625 34.90625 28.71875 34.90625 
L 20.21875 34.90625 
L 20.21875 43.015625 
L 29.109375 43.015625 
Q 36.375 43.015625 40.234375 45.921875 
Q 44.09375 48.828125 44.09375 54.296875 
Q 44.09375 59.90625 40.109375 62.90625 
Q 36.140625 65.921875 28.71875 65.921875 
Q 24.65625 65.921875 20.015625 65.03125 
Q 15.375 64.15625 9.8125 62.3125 
L 9.8125 71.09375 
Q 15.4375 72.65625 20.34375 73.4375 
Q 25.25 74.21875 29.59375 74.21875 
Q 40.828125 74.21875 47.359375 69.109375 
Q 53.90625 64.015625 53.90625 55.328125 
Q 53.90625 49.265625 50.4375 45.09375 
Q 46.96875 40.921875 40.578125 39.3125 
z
" id="DejaVuSans-51"/>
      </defs>
      <g transform="translate(526.85625 399.078438)scale(0.1 -0.1)">
       <use xlink:href="#DejaVuSans-49"/>
       <use x="63.623047" xlink:href="#DejaVuSans-51"/>
       <use x="127.246094" xlink:href="#DejaVuSans-48"/>
      </g>
     </g>
    </g>
    <g id="xtick_6">
     <g id="line2d_11">
      <path clip-path="url(#pf034f9a320)" d="M 629.4 384.48 
L 629.4 51.84 
" style="fill:none;stroke:#b0b0b0;stroke-linecap:square;stroke-width:0.8;"/>
     </g>
     <g id="line2d_12">
      <g>
       <use style="stroke:#000000;stroke-width:0.8;" x="629.4" xlink:href="#mbd89b02e70" y="384.48"/>
      </g>
     </g>
     <g id="text_6">
      <!-- 135 -->
      <g transform="translate(619.85625 399.078438)scale(0.1 -0.1)">
       <use xlink:href="#DejaVuSans-49"/>
       <use x="63.623047" xlink:href="#DejaVuSans-51"/>
       <use x="127.246094" xlink:href="#DejaVuSans-53"/>
      </g>
     </g>
    </g>
    <g id="text_7">
     <!-- Time /ms -->
     <defs>
      <path d="M -0.296875 72.90625 
L 61.375 72.90625 
L 61.375 64.59375 
L 35.5 64.59375 
L 35.5 0 
L 25.59375 0 
L 25.59375 64.59375 
L -0.296875 64.59375 
z
" id="DejaVuSans-84"/>
      <path d="M 9.421875 54.6875 
L 18.40625 54.6875 
L 18.40625 0 
L 9.421875 0 
z
M 9.421875 75.984375 
L 18.40625 75.984375 
L 18.40625 64.59375 
L 9.421875 64.59375 
z
" id="DejaVuSans-105"/>
      <path d="M 52 44.1875 
Q 55.375 50.25 60.0625 53.125 
Q 64.75 56 71.09375 56 
Q 79.640625 56 84.28125 50.015625 
Q 88.921875 44.046875 88.921875 33.015625 
L 88.921875 0 
L 79.890625 0 
L 79.890625 32.71875 
Q 79.890625 40.578125 77.09375 44.375 
Q 74.3125 48.1875 68.609375 48.1875 
Q 61.625 48.1875 57.5625 43.546875 
Q 53.515625 38.921875 53.515625 30.90625 
L 53.515625 0 
L 44.484375 0 
L 44.484375 32.71875 
Q 44.484375 40.625 41.703125 44.40625 
Q 38.921875 48.1875 33.109375 48.1875 
Q 26.21875 48.1875 22.15625 43.53125 
Q 18.109375 38.875 18.109375 30.90625 
L 18.109375 0 
L 9.078125 0 
L 9.078125 54.6875 
L 18.109375 54.6875 
L 18.109375 46.1875 
Q 21.1875 51.21875 25.484375 53.609375 
Q 29.78125 56 35.6875 56 
Q 41.65625 56 45.828125 52.96875 
Q 50 49.953125 52 44.1875 
z
" id="DejaVuSans-109"/>
      <path d="M 56.203125 29.59375 
L 56.203125 25.203125 
L 14.890625 25.203125 
Q 15.484375 15.921875 20.484375 11.0625 
Q 25.484375 6.203125 34.421875 6.203125 
Q 39.59375 6.203125 44.453125 7.46875 
Q 49.3125 8.734375 54.109375 11.28125 
L 54.109375 2.78125 
Q 49.265625 0.734375 44.1875 -0.34375 
Q 39.109375 -1.421875 33.890625 -1.421875 
Q 20.796875 -1.421875 13.15625 6.1875 
Q 5.515625 13.8125 5.515625 26.8125 
Q 5.515625 40.234375 12.765625 48.109375 
Q 20.015625 56 32.328125 56 
Q 43.359375 56 49.78125 48.890625 
Q 56.203125 41.796875 56.203125 29.59375 
z
M 47.21875 32.234375 
Q 47.125 39.59375 43.09375 43.984375 
Q 39.0625 48.390625 32.421875 48.390625 
Q 24.90625 48.390625 20.390625 44.140625 
Q 15.875 39.890625 15.1875 32.171875 
z
" id="DejaVuSans-101"/>
      <path id="DejaVuSans-32"/>
      <path d="M 25.390625 72.90625 
L 33.6875 72.90625 
L 8.296875 -9.28125 
L 0 -9.28125 
z
" id="DejaVuSans-47"/>
      <path d="M 44.28125 53.078125 
L 44.28125 44.578125 
Q 40.484375 46.53125 36.375 47.5 
Q 32.28125 48.484375 27.875 48.484375 
Q 21.1875 48.484375 17.84375 46.4375 
Q 14.5 44.390625 14.5 40.28125 
Q 14.5 37.15625 16.890625 35.375 
Q 19.28125 33.59375 26.515625 31.984375 
L 29.59375 31.296875 
Q 39.15625 29.25 43.1875 25.515625 
Q 47.21875 21.78125 47.21875 15.09375 
Q 47.21875 7.46875 41.1875 3.015625 
Q 35.15625 -1.421875 24.609375 -1.421875 
Q 20.21875 -1.421875 15.453125 -0.5625 
Q 10.6875 0.296875 5.421875 2 
L 5.421875 11.28125 
Q 10.40625 8.6875 15.234375 7.390625 
Q 20.0625 6.109375 24.8125 6.109375 
Q 31.15625 6.109375 34.5625 8.28125 
Q 37.984375 10.453125 37.984375 14.40625 
Q 37.984375 18.0625 35.515625 20.015625 
Q 33.0625 21.96875 24.703125 23.78125 
L 21.578125 24.515625 
Q 13.234375 26.265625 9.515625 29.90625 
Q 5.8125 33.546875 5.8125 39.890625 
Q 5.8125 47.609375 11.28125 51.796875 
Q 16.75 56 26.8125 56 
Q 31.78125 56 36.171875 55.265625 
Q 40.578125 54.546875 44.28125 53.078125 
z
" id="DejaVuSans-115"/>
     </defs>
     <g transform="translate(345.864062 412.756563)scale(0.1 -0.1)">
      <use xlink:href="#DejaVuSans-84"/>
      <use x="61.037109" xlink:href="#DejaVuSans-105"/>
      <use x="88.820312" xlink:href="#DejaVuSans-109"/>
      <use x="186.232422" xlink:href="#DejaVuSans-101"/>
      <use x="247.755859" xlink:href="#DejaVuSans-32"/>
      <use x="279.542969" xlink:href="#DejaVuSans-47"/>
      <use x="313.234375" xlink:href="#DejaVuSans-109"/>
      <use x="410.646484" xlink:href="#DejaVuSans-115"/>
     </g>
    </g>
   </g>
   <g id="matplotlib.axis_2">
    <g id="ytick_1">
     <g id="line2d_13">
      <path clip-path="url(#pf034f9a320)" d="M 90 352.498605 
L 648 352.498605 
" style="fill:none;stroke:#b0b0b0;stroke-linecap:square;stroke-width:0.8;"/>
     </g>
     <g id="line2d_14">
      <defs>
       <path d="M 0 0 
L -3.5 0 
" id="m0d77d17c90" style="stroke:#000000;stroke-width:0.8;"/>
      </defs>
      <g>
       <use style="stroke:#000000;stroke-width:0.8;" x="90" xlink:href="#m0d77d17c90" y="352.498605"/>
      </g>
     </g>
     <g id="text_8">
      <!-- 0 -->
      <g transform="translate(76.6375 356.297824)scale(0.1 -0.1)">
       <use xlink:href="#DejaVuSans-48"/>
      </g>
     </g>
    </g>
    <g id="ytick_2">
     <g id="line2d_15">
      <path clip-path="url(#pf034f9a320)" d="M 90 288.614592 
L 648 288.614592 
" style="fill:none;stroke:#b0b0b0;stroke-linecap:square;stroke-width:0.8;"/>
     </g>
     <g id="line2d_16">
      <g>
       <use style="stroke:#000000;stroke-width:0.8;" x="90" xlink:href="#m0d77d17c90" y="288.614592"/>
      </g>
     </g>
     <g id="text_9">
      <!-- 2 -->
      <g transform="translate(76.6375 292.41381)scale(0.1 -0.1)">
       <use xlink:href="#DejaVuSans-50"/>
      </g>
     </g>
    </g>
    <g id="ytick_3">
     <g id="line2d_17">
      <path clip-path="url(#pf034f9a320)" d="M 90 224.730578 
L 648 224.730578 
" style="fill:none;stroke:#b0b0b0;stroke-linecap:square;stroke-width:0.8;"/>
     </g>
     <g id="line2d_18">
      <g>
       <use style="stroke:#000000;stroke-width:0.8;" x="90" xlink:href="#m0d77d17c90" y="224.730578"/>
      </g>
     </g>
     <g id="text_10">
      <!-- 4 -->
      <defs>
       <path d="M 37.796875 64.3125 
L 12.890625 25.390625 
L 37.796875 25.390625 
z
M 35.203125 72.90625 
L 47.609375 72.90625 
L 47.609375 25.390625 
L 58.015625 25.390625 
L 58.015625 17.1875 
L 47.609375 17.1875 
L 47.609375 0 
L 37.796875 0 
L 37.796875 17.1875 
L 4.890625 17.1875 
L 4.890625 26.703125 
z
" id="DejaVuSans-52"/>
      </defs>
      <g transform="translate(76.6375 228.529797)scale(0.1 -0.1)">
       <use xlink:href="#DejaVuSans-52"/>
      </g>
     </g>
    </g>
    <g id="ytick_4">
     <g id="line2d_19">
      <path clip-path="url(#pf034f9a320)" d="M 90 160.846564 
L 648 160.846564 
" style="fill:none;stroke:#b0b0b0;stroke-linecap:square;stroke-width:0.8;"/>
     </g>
     <g id="line2d_20">
      <g>
       <use style="stroke:#000000;stroke-width:0.8;" x="90" xlink:href="#m0d77d17c90" y="160.846564"/>
      </g>
     </g>
     <g id="text_11">
      <!-- 6 -->
      <defs>
       <path d="M 33.015625 40.375 
Q 26.375 40.375 22.484375 35.828125 
Q 18.609375 31.296875 18.609375 23.390625 
Q 18.609375 15.53125 22.484375 10.953125 
Q 26.375 6.390625 33.015625 6.390625 
Q 39.65625 6.390625 43.53125 10.953125 
Q 47.40625 15.53125 47.40625 23.390625 
Q 47.40625 31.296875 43.53125 35.828125 
Q 39.65625 40.375 33.015625 40.375 
z
M 52.59375 71.296875 
L 52.59375 62.3125 
Q 48.875 64.0625 45.09375 64.984375 
Q 41.3125 65.921875 37.59375 65.921875 
Q 27.828125 65.921875 22.671875 59.328125 
Q 17.53125 52.734375 16.796875 39.40625 
Q 19.671875 43.65625 24.015625 45.921875 
Q 28.375 48.1875 33.59375 48.1875 
Q 44.578125 48.1875 50.953125 41.515625 
Q 57.328125 34.859375 57.328125 23.390625 
Q 57.328125 12.15625 50.6875 5.359375 
Q 44.046875 -1.421875 33.015625 -1.421875 
Q 20.359375 -1.421875 13.671875 8.265625 
Q 6.984375 17.96875 6.984375 36.375 
Q 6.984375 53.65625 15.1875 63.9375 
Q 23.390625 74.21875 37.203125 74.21875 
Q 40.921875 74.21875 44.703125 73.484375 
Q 48.484375 72.75 52.59375 71.296875 
z
" id="DejaVuSans-54"/>
      </defs>
      <g transform="translate(76.6375 164.645783)scale(0.1 -0.1)">
       <use xlink:href="#DejaVuSans-54"/>
      </g>
     </g>
    </g>
    <g id="ytick_5">
     <g id="line2d_21">
      <path clip-path="url(#pf034f9a320)" d="M 90 96.96255 
L 648 96.96255 
" style="fill:none;stroke:#b0b0b0;stroke-linecap:square;stroke-width:0.8;"/>
     </g>
     <g id="line2d_22">
      <g>
       <use style="stroke:#000000;stroke-width:0.8;" x="90" xlink:href="#m0d77d17c90" y="96.96255"/>
      </g>
     </g>
     <g id="text_12">
      <!-- 8 -->
      <defs>
       <path d="M 31.78125 34.625 
Q 24.75 34.625 20.71875 30.859375 
Q 16.703125 27.09375 16.703125 20.515625 
Q 16.703125 13.921875 20.71875 10.15625 
Q 24.75 6.390625 31.78125 6.390625 
Q 38.8125 6.390625 42.859375 10.171875 
Q 46.921875 13.96875 46.921875 20.515625 
Q 46.921875 27.09375 42.890625 30.859375 
Q 38.875 34.625 31.78125 34.625 
z
M 21.921875 38.8125 
Q 15.578125 40.375 12.03125 44.71875 
Q 8.5 49.078125 8.5 55.328125 
Q 8.5 64.0625 14.71875 69.140625 
Q 20.953125 74.21875 31.78125 74.21875 
Q 42.671875 74.21875 48.875 69.140625 
Q 55.078125 64.0625 55.078125 55.328125 
Q 55.078125 49.078125 51.53125 44.71875 
Q 48 40.375 41.703125 38.8125 
Q 48.828125 37.15625 52.796875 32.3125 
Q 56.78125 27.484375 56.78125 20.515625 
Q 56.78125 9.90625 50.3125 4.234375 
Q 43.84375 -1.421875 31.78125 -1.421875 
Q 19.734375 -1.421875 13.25 4.234375 
Q 6.78125 9.90625 6.78125 20.515625 
Q 6.78125 27.484375 10.78125 32.3125 
Q 14.796875 37.15625 21.921875 38.8125 
z
M 18.3125 54.390625 
Q 18.3125 48.734375 21.84375 45.5625 
Q 25.390625 42.390625 31.78125 42.390625 
Q 38.140625 42.390625 41.71875 45.5625 
Q 45.3125 48.734375 45.3125 54.390625 
Q 45.3125 60.0625 41.71875 63.234375 
Q 38.140625 66.40625 31.78125 66.40625 
Q 25.390625 66.40625 21.84375 63.234375 
Q 18.3125 60.0625 18.3125 54.390625 
z
" id="DejaVuSans-56"/>
      </defs>
      <g transform="translate(76.6375 100.761769)scale(0.1 -0.1)">
       <use xlink:href="#DejaVuSans-56"/>
      </g>
     </g>
    </g>
    <g id="text_13">
     <!-- Channel impulse response -->
     <defs>
      <path d="M 64.40625 67.28125 
L 64.40625 56.890625 
Q 59.421875 61.53125 53.78125 63.8125 
Q 48.140625 66.109375 41.796875 66.109375 
Q 29.296875 66.109375 22.65625 58.46875 
Q 16.015625 50.828125 16.015625 36.375 
Q 16.015625 21.96875 22.65625 14.328125 
Q 29.296875 6.6875 41.796875 6.6875 
Q 48.140625 6.6875 53.78125 8.984375 
Q 59.421875 11.28125 64.40625 15.921875 
L 64.40625 5.609375 
Q 59.234375 2.09375 53.4375 0.328125 
Q 47.65625 -1.421875 41.21875 -1.421875 
Q 24.65625 -1.421875 15.125 8.703125 
Q 5.609375 18.84375 5.609375 36.375 
Q 5.609375 53.953125 15.125 64.078125 
Q 24.65625 74.21875 41.21875 74.21875 
Q 47.75 74.21875 53.53125 72.484375 
Q 59.328125 70.75 64.40625 67.28125 
z
" id="DejaVuSans-67"/>
      <path d="M 54.890625 33.015625 
L 54.890625 0 
L 45.90625 0 
L 45.90625 32.71875 
Q 45.90625 40.484375 42.875 44.328125 
Q 39.84375 48.1875 33.796875 48.1875 
Q 26.515625 48.1875 22.3125 43.546875 
Q 18.109375 38.921875 18.109375 30.90625 
L 18.109375 0 
L 9.078125 0 
L 9.078125 75.984375 
L 18.109375 75.984375 
L 18.109375 46.1875 
Q 21.34375 51.125 25.703125 53.5625 
Q 30.078125 56 35.796875 56 
Q 45.21875 56 50.046875 50.171875 
Q 54.890625 44.34375 54.890625 33.015625 
z
" id="DejaVuSans-104"/>
      <path d="M 34.28125 27.484375 
Q 23.390625 27.484375 19.1875 25 
Q 14.984375 22.515625 14.984375 16.5 
Q 14.984375 11.71875 18.140625 8.90625 
Q 21.296875 6.109375 26.703125 6.109375 
Q 34.1875 6.109375 38.703125 11.40625 
Q 43.21875 16.703125 43.21875 25.484375 
L 43.21875 27.484375 
z
M 52.203125 31.203125 
L 52.203125 0 
L 43.21875 0 
L 43.21875 8.296875 
Q 40.140625 3.328125 35.546875 0.953125 
Q 30.953125 -1.421875 24.3125 -1.421875 
Q 15.921875 -1.421875 10.953125 3.296875 
Q 6 8.015625 6 15.921875 
Q 6 25.140625 12.171875 29.828125 
Q 18.359375 34.515625 30.609375 34.515625 
L 43.21875 34.515625 
L 43.21875 35.40625 
Q 43.21875 41.609375 39.140625 45 
Q 35.0625 48.390625 27.6875 48.390625 
Q 23 48.390625 18.546875 47.265625 
Q 14.109375 46.140625 10.015625 43.890625 
L 10.015625 52.203125 
Q 14.9375 54.109375 19.578125 55.046875 
Q 24.21875 56 28.609375 56 
Q 40.484375 56 46.34375 49.84375 
Q 52.203125 43.703125 52.203125 31.203125 
z
" id="DejaVuSans-97"/>
      <path d="M 54.890625 33.015625 
L 54.890625 0 
L 45.90625 0 
L 45.90625 32.71875 
Q 45.90625 40.484375 42.875 44.328125 
Q 39.84375 48.1875 33.796875 48.1875 
Q 26.515625 48.1875 22.3125 43.546875 
Q 18.109375 38.921875 18.109375 30.90625 
L 18.109375 0 
L 9.078125 0 
L 9.078125 54.6875 
L 18.109375 54.6875 
L 18.109375 46.1875 
Q 21.34375 51.125 25.703125 53.5625 
Q 30.078125 56 35.796875 56 
Q 45.21875 56 50.046875 50.171875 
Q 54.890625 44.34375 54.890625 33.015625 
z
" id="DejaVuSans-110"/>
      <path d="M 9.421875 75.984375 
L 18.40625 75.984375 
L 18.40625 0 
L 9.421875 0 
z
" id="DejaVuSans-108"/>
      <path d="M 18.109375 8.203125 
L 18.109375 -20.796875 
L 9.078125 -20.796875 
L 9.078125 54.6875 
L 18.109375 54.6875 
L 18.109375 46.390625 
Q 20.953125 51.265625 25.265625 53.625 
Q 29.59375 56 35.59375 56 
Q 45.5625 56 51.78125 48.09375 
Q 58.015625 40.1875 58.015625 27.296875 
Q 58.015625 14.40625 51.78125 6.484375 
Q 45.5625 -1.421875 35.59375 -1.421875 
Q 29.59375 -1.421875 25.265625 0.953125 
Q 20.953125 3.328125 18.109375 8.203125 
z
M 48.6875 27.296875 
Q 48.6875 37.203125 44.609375 42.84375 
Q 40.53125 48.484375 33.40625 48.484375 
Q 26.265625 48.484375 22.1875 42.84375 
Q 18.109375 37.203125 18.109375 27.296875 
Q 18.109375 17.390625 22.1875 11.75 
Q 26.265625 6.109375 33.40625 6.109375 
Q 40.53125 6.109375 44.609375 11.75 
Q 48.6875 17.390625 48.6875 27.296875 
z
" id="DejaVuSans-112"/>
      <path d="M 8.5 21.578125 
L 8.5 54.6875 
L 17.484375 54.6875 
L 17.484375 21.921875 
Q 17.484375 14.15625 20.5 10.265625 
Q 23.53125 6.390625 29.59375 6.390625 
Q 36.859375 6.390625 41.078125 11.03125 
Q 45.3125 15.671875 45.3125 23.6875 
L 45.3125 54.6875 
L 54.296875 54.6875 
L 54.296875 0 
L 45.3125 0 
L 45.3125 8.40625 
Q 42.046875 3.421875 37.71875 1 
Q 33.40625 -1.421875 27.6875 -1.421875 
Q 18.265625 -1.421875 13.375 4.4375 
Q 8.5 10.296875 8.5 21.578125 
z
M 31.109375 56 
z
" id="DejaVuSans-117"/>
      <path d="M 41.109375 46.296875 
Q 39.59375 47.171875 37.8125 47.578125 
Q 36.03125 48 33.890625 48 
Q 26.265625 48 22.1875 43.046875 
Q 18.109375 38.09375 18.109375 28.8125 
L 18.109375 0 
L 9.078125 0 
L 9.078125 54.6875 
L 18.109375 54.6875 
L 18.109375 46.1875 
Q 20.953125 51.171875 25.484375 53.578125 
Q 30.03125 56 36.53125 56 
Q 37.453125 56 38.578125 55.875 
Q 39.703125 55.765625 41.0625 55.515625 
z
" id="DejaVuSans-114"/>
      <path d="M 30.609375 48.390625 
Q 23.390625 48.390625 19.1875 42.75 
Q 14.984375 37.109375 14.984375 27.296875 
Q 14.984375 17.484375 19.15625 11.84375 
Q 23.34375 6.203125 30.609375 6.203125 
Q 37.796875 6.203125 41.984375 11.859375 
Q 46.1875 17.53125 46.1875 27.296875 
Q 46.1875 37.015625 41.984375 42.703125 
Q 37.796875 48.390625 30.609375 48.390625 
z
M 30.609375 56 
Q 42.328125 56 49.015625 48.375 
Q 55.71875 40.765625 55.71875 27.296875 
Q 55.71875 13.875 49.015625 6.21875 
Q 42.328125 -1.421875 30.609375 -1.421875 
Q 18.84375 -1.421875 12.171875 6.21875 
Q 5.515625 13.875 5.515625 27.296875 
Q 5.515625 40.765625 12.171875 48.375 
Q 18.84375 56 30.609375 56 
z
" id="DejaVuSans-111"/>
     </defs>
     <g transform="translate(70.557812 284.356875)rotate(-90)scale(0.1 -0.1)">
      <use xlink:href="#DejaVuSans-67"/>
      <use x="69.824219" xlink:href="#DejaVuSans-104"/>
      <use x="133.203125" xlink:href="#DejaVuSans-97"/>
      <use x="194.482422" xlink:href="#DejaVuSans-110"/>
      <use x="257.861328" xlink:href="#DejaVuSans-110"/>
      <use x="321.240234" xlink:href="#DejaVuSans-101"/>
      <use x="382.763672" xlink:href="#DejaVuSans-108"/>
      <use x="410.546875" xlink:href="#DejaVuSans-32"/>
      <use x="442.333984" xlink:href="#DejaVuSans-105"/>
      <use x="470.117188" xlink:href="#DejaVuSans-109"/>
      <use x="567.529297" xlink:href="#DejaVuSans-112"/>
      <use x="631.005859" xlink:href="#DejaVuSans-117"/>
      <use x="694.384766" xlink:href="#DejaVuSans-108"/>
      <use x="722.167969" xlink:href="#DejaVuSans-115"/>
      <use x="774.267578" xlink:href="#DejaVuSans-101"/>
      <use x="835.791016" xlink:href="#DejaVuSans-32"/>
      <use x="867.578125" xlink:href="#DejaVuSans-114"/>
      <use x="908.660156" xlink:href="#DejaVuSans-101"/>
      <use x="970.183594" xlink:href="#DejaVuSans-115"/>
      <use x="1022.283203" xlink:href="#DejaVuSans-112"/>
      <use x="1085.759766" xlink:href="#DejaVuSans-111"/>
      <use x="1146.941406" xlink:href="#DejaVuSans-110"/>
      <use x="1210.320312" xlink:href="#DejaVuSans-115"/>
      <use x="1262.419922" xlink:href="#DejaVuSans-101"/>
     </g>
    </g>
   </g>
   <g id="line2d_23">
    <path clip-path="url(#pf034f9a320)" d="M 88.8375 352.275276 
L 90 352.09946 
L 95.8125 352.1293 
L 96.975 351.959105 
L 99.3 352.011316 
L 100.4625 352.800712 
L 101.625 352.883054 
L 102.7875 353.152482 
L 103.95 353.299361 
L 106.275 353.318302 
L 107.4375 353.523402 
L 110.925 353.755129 
L 113.25 353.728211 
L 115.575 353.859936 
L 116.7375 353.741439 
L 119.0625 353.902179 
L 121.3875 354.057095 
L 127.2 354.039758 
L 128.3625 354.694104 
L 134.175 354.994634 
L 138.825 355.467711 
L 141.15 355.270599 
L 143.475 355.917923 
L 145.8 355.754181 
L 146.9625 355.975053 
L 149.2875 355.793655 
L 150.45 356.121295 
L 151.6125 356.165183 
L 155.1 355.929353 
L 156.2625 356.658416 
L 157.425 356.84739 
L 158.5875 356.769209 
L 160.9125 356.921616 
L 162.075 356.917857 
L 164.4 357.242348 
L 166.725 357.805755 
L 167.8875 357.8228 
L 169.05 357.715397 
L 172.5375 357.954574 
L 173.7 357.979292 
L 174.8625 358.340369 
L 176.025 358.320837 
L 177.1875 358.054646 
L 181.8375 358.082334 
L 183 358.221273 
L 184.1625 358.639698 
L 185.325 358.661015 
L 186.4875 359.064709 
L 187.65 359.184304 
L 188.8125 358.96085 
L 189.975 359.113566 
L 191.1375 359.149868 
L 192.3 358.949145 
L 194.625 358.869108 
L 195.7875 358.581682 
L 196.95 359.001722 
L 198.1125 359.252988 
L 199.275 359.345349 
L 200.4375 359.249183 
L 202.7625 358.666493 
L 203.925 358.840871 
L 205.0875 358.89137 
L 209.7375 358.532217 
L 210.9 358.387102 
L 212.0625 359.102158 
L 214.3875 359.050348 
L 216.7125 359.296352 
L 219.0375 358.995037 
L 220.2 359.245416 
L 226.0125 359.432718 
L 229.5 358.586152 
L 230.6625 358.66977 
L 231.825 358.331953 
L 232.9875 357.645156 
L 234.15 357.3465 
L 235.3125 356.36944 
L 236.475 353.66112 
L 237.6375 351.366546 
L 238.8 350.978943 
L 239.9625 339.609917 
L 241.125 304.802966 
L 242.2875 280.428336 
L 243.45 303.163947 
L 244.6125 308.580958 
L 245.775 312.641708 
L 246.9375 314.851198 
L 248.1 314.654571 
L 249.2625 315.987578 
L 250.425 317.835838 
L 251.5875 318.856149 
L 252.75 321.888571 
L 253.9125 323.774313 
L 255.075 324.990991 
L 256.2375 326.869306 
L 257.4 327.415423 
L 258.5625 329.186568 
L 259.725 332.477083 
L 260.8875 333.357961 
L 262.05 333.656023 
L 263.2125 335.029009 
L 264.375 333.79117 
L 265.5375 336.894544 
L 266.7 336.291592 
L 267.8625 334.775029 
L 269.025 337.731382 
L 270.1875 337.949349 
L 271.35 338.763594 
L 272.5125 339.200688 
L 273.675 340.014966 
L 277.1625 341.615566 
L 278.325 341.787059 
L 279.4875 342.191181 
L 280.65 342.931097 
L 281.8125 343.462546 
L 284.1375 344.257334 
L 285.3 344.521525 
L 286.4625 345.050667 
L 288.7875 345.736113 
L 289.95 345.33998 
L 291.1125 343.691021 
L 292.275 343.929663 
L 293.4375 346.511351 
L 294.6 346.889655 
L 295.7625 325.55774 
L 296.925 332.562956 
L 298.0875 333.177656 
L 300.4125 337.320221 
L 301.575 334.046039 
L 302.7375 332.987006 
L 303.9 328.813957 
L 305.0625 330.833691 
L 306.225 347.746668 
L 307.3875 333.369407 
L 308.55 335.24736 
L 309.7125 336.734536 
L 310.875 335.310526 
L 312.0375 338.138866 
L 313.2 350.278263 
L 314.3625 354.08679 
L 315.525 354.944398 
L 316.6875 350.266884 
L 317.85 341.331909 
L 319.0125 354.214007 
L 320.175 347.961108 
L 321.3375 359.995394 
L 322.5 362.391537 
L 323.6625 352.466298 
L 324.825 341.059047 
L 325.9875 349.096603 
L 327.15 360.664308 
L 328.3125 362.783962 
L 329.475 354.647095 
L 330.6375 353.240642 
L 331.8 354.799764 
L 332.9625 351.599722 
L 334.125 351.080225 
L 335.2875 354.574321 
L 336.45 355.463093 
L 337.6125 362.792927 
L 338.775 362.980141 
L 339.9375 355.131935 
L 341.1 361.612815 
L 342.2625 364.061115 
L 343.425 357.988986 
L 344.5875 356.245282 
L 345.75 355.817523 
L 346.9125 353.884973 
L 348.075 357.700456 
L 349.2375 361.041037 
L 350.4 361.814748 
L 351.5625 356.836819 
L 353.8875 360.625162 
L 355.05 358.659115 
L 356.2125 353.526308 
L 357.375 359.215106 
L 358.5375 359.515173 
L 359.7 355.436498 
L 360.8625 353.506602 
L 362.025 352.362467 
L 363.1875 354.273688 
L 364.35 361.3484 
L 365.5125 362.205243 
L 366.675 361.175961 
L 367.8375 361.792029 
L 369 356.313264 
L 370.1625 360.676636 
L 371.325 362.186819 
L 373.65 364.566898 
L 374.8125 363.440516 
L 375.975 363.062446 
L 377.1375 364.891473 
L 378.3 365.950377 
L 380.625 365.470038 
L 381.7875 364.840902 
L 382.95 363.311762 
L 384.1125 364.218497 
L 386.4375 362.296259 
L 387.6 366.284869 
L 388.7625 368.233487 
L 389.925 367.861255 
L 391.0875 361.918742 
L 392.25 368.291436 
L 393.4125 367.297376 
L 394.575 363.735964 
L 395.7375 369.141976 
L 396.9 369.36 
L 398.0625 364.116115 
L 399.225 367.220997 
L 400.3875 368.39709 
L 401.55 366.404601 
L 402.7125 363.710957 
L 403.875 366.526266 
L 405.0375 367.577735 
L 406.2 366.769899 
L 407.3625 366.70693 
L 408.525 365.973851 
L 409.6875 364.669666 
L 410.85 366.260031 
L 412.0125 368.444867 
L 413.175 367.651068 
L 414.3375 365.471087 
L 415.5 366.996953 
L 416.6625 366.465725 
L 417.825 365.811278 
L 418.9875 364.618446 
L 421.3125 363.699176 
L 422.475 364.677131 
L 423.6375 364.736584 
L 424.8 365.103958 
L 425.9625 367.019935 
L 427.125 366.472366 
L 428.2875 365.243494 
L 429.45 365.184587 
L 430.6125 364.403296 
L 431.775 364.410686 
L 432.9375 364.794244 
L 434.1 364.221894 
L 435.2625 360.991602 
L 436.425 361.689565 
L 437.5875 359.396509 
L 438.75 360.924552 
L 439.9125 359.460569 
L 441.075 359.404721 
L 442.2375 361.105993 
L 443.4 359.713211 
L 444.5625 359.233438 
L 445.725 360.901256 
L 446.8875 361.328216 
L 448.05 358.465385 
L 449.2125 359.50812 
L 450.375 357.654507 
L 451.5375 360.246725 
L 452.7 360.894153 
L 453.8625 359.648226 
L 455.025 360.243557 
L 456.1875 358.461365 
L 457.35 359.778875 
L 458.5125 360.104059 
L 459.675 359.460515 
L 460.8375 358.241064 
L 462 358.500739 
L 463.1625 359.674146 
L 465.4875 359.589918 
L 466.65 360.557025 
L 467.8125 359.703065 
L 468.975 360.7798 
L 470.1375 362.339154 
L 471.3 361.09754 
L 472.4625 359.230999 
L 474.7875 359.206432 
L 475.95 361.087244 
L 477.1125 361.079122 
L 478.275 360.22453 
L 479.4375 360.705384 
L 480.6 360.35835 
L 481.7625 360.944277 
L 482.925 360.876993 
L 484.0875 360.075215 
L 485.25 359.791415 
L 487.575 360.0376 
L 488.7375 359.647288 
L 489.9 358.866355 
L 491.0625 360.107267 
L 493.3875 361.079055 
L 494.55 360.913801 
L 495.7125 359.971133 
L 496.875 360.189392 
L 498.0375 359.777062 
L 501.525 360.319629 
L 502.6875 361.512351 
L 505.0125 361.879798 
L 507.3375 359.740634 
L 508.5 360.387866 
L 509.6625 360.23471 
L 510.825 359.885553 
L 511.9875 359.858423 
L 513.15 360.443839 
L 514.3125 360.594244 
L 516.6375 359.675988 
L 517.8 359.662272 
L 518.9625 360.531905 
L 520.125 359.948814 
L 521.2875 360.266154 
L 522.45 360.096378 
L 523.6125 359.683621 
L 527.1 360.693122 
L 529.425 360.817918 
L 530.5875 360.479608 
L 532.9125 360.301888 
L 534.075 360.008406 
L 535.2375 359.835248 
L 536.4 360.108392 
L 537.5625 360.073511 
L 538.725 359.583676 
L 539.8875 359.724326 
L 541.05 360.52578 
L 542.2125 360.922896 
L 543.375 360.342041 
L 544.5375 359.324952 
L 545.7 358.991863 
L 546.8625 360.795234 
L 548.025 360.999132 
L 549.1875 360.524059 
L 550.35 361.078853 
L 553.8375 360.018393 
L 555 359.856884 
L 556.1625 359.897379 
L 557.325 359.204611 
L 558.4875 359.073463 
L 559.65 359.242732 
L 560.8125 359.660191 
L 561.975 359.134121 
L 564.3 358.95928 
L 565.4625 359.262309 
L 566.625 360.002816 
L 567.7875 360.134184 
L 568.95 359.839203 
L 570.1125 359.66421 
L 571.275 359.094491 
L 572.4375 359.322753 
L 573.6 359.979091 
L 574.7625 361.073753 
L 575.925 361.060626 
L 577.0875 360.530712 
L 578.25 360.146236 
L 579.4125 360.304103 
L 580.575 360.293189 
L 581.7375 360.794648 
L 582.9 361.082182 
L 584.0625 360.335795 
L 585.225 360.710281 
L 586.3875 360.658686 
L 587.55 360.244077 
L 588.7125 360.342501 
L 589.875 359.29277 
L 591.0375 360.263411 
L 592.2 360.422179 
L 593.3625 359.684096 
L 594.525 359.39187 
L 598.0125 359.306517 
L 599.175 359.862642 
L 600.3375 360.019914 
L 601.5 359.553727 
L 602.6625 360.223951 
L 603.825 360.364873 
L 604.9875 360.332921 
L 607.3125 360.764483 
L 608.475 360.397229 
L 609.6375 359.811714 
L 610.8 360.428824 
L 611.9625 360.585138 
L 613.125 360.2462 
L 614.2875 360.131321 
L 615.45 360.248665 
L 616.6125 360.929757 
L 617.775 361.062308 
L 618.9375 360.789383 
L 620.1 360.981314 
L 621.2625 360.993232 
L 623.5875 359.774857 
L 624.75 359.447769 
L 627.075 359.851238 
L 628.2375 359.654877 
L 629.4 359.3001 
L 629.4 359.3001 
" style="fill:none;stroke:#ff0000;stroke-linecap:square;stroke-width:1.5;"/>
   </g>
   <g id="line2d_24">
    <path clip-path="url(#pf034f9a320)" d="M 88.8375 362.512826 
L 90 362.776232 
L 91.1625 362.773025 
L 93.4875 362.487266 
L 98.1375 362.365491 
L 99.3 362.5563 
L 100.4625 362.593501 
L 101.625 362.511055 
L 102.7875 361.884139 
L 103.95 360.996605 
L 105.1125 360.78674 
L 107.4375 361.040673 
L 109.7625 361.886463 
L 110.925 362.190424 
L 112.0875 361.753173 
L 113.25 360.989417 
L 114.4125 360.986223 
L 115.575 361.562035 
L 116.7375 361.789912 
L 119.0625 362.906493 
L 120.225 363.101562 
L 121.3875 362.739587 
L 123.7125 361.606512 
L 124.875 361.789049 
L 126.0375 361.396696 
L 128.3625 362.138798 
L 130.6875 362.367784 
L 133.0125 361.500994 
L 134.175 361.571218 
L 135.3375 361.110335 
L 136.5 359.798484 
L 137.6625 359.459303 
L 138.825 359.241028 
L 139.9875 357.49037 
L 141.15 356.727909 
L 142.3125 356.259188 
L 143.475 354.904285 
L 144.6375 352.819087 
L 145.8 352.345891 
L 146.9625 349.234261 
L 148.125 345.09868 
L 149.2875 341.716029 
L 150.45 341.067558 
L 151.6125 339.714764 
L 152.775 321.662614 
L 155.1 242.288033 
L 156.2625 195.785665 
L 157.425 144.549232 
L 158.5875 126.35372 
L 159.75 139.810879 
L 160.9125 165.467668 
L 162.075 199.296499 
L 163.2375 248.943394 
L 164.4 268.089911 
L 165.5625 275.444107 
L 166.725 261.989136 
L 167.8875 266.476674 
L 169.05 231.578776 
L 171.375 125.077945 
L 173.7 66.96 
L 174.8625 89.395629 
L 176.025 107.83867 
L 177.1875 155.248529 
L 178.35 171.273975 
L 179.5125 142.6776 
L 180.675 133.571112 
L 181.8375 177.560958 
L 183 184.03185 
L 184.1625 198.372272 
L 185.325 239.44161 
L 186.4875 251.614215 
L 187.65 254.832933 
L 188.8125 263.531212 
L 191.1375 311.079228 
L 192.3 314.468921 
L 193.4625 313.893424 
L 194.625 307.583411 
L 195.7875 294.776242 
L 196.95 291.97042 
L 198.1125 287.124205 
L 199.275 280.868292 
L 200.4375 290.756085 
L 201.6 302.858137 
L 202.7625 304.48613 
L 203.925 316.902048 
L 205.0875 327.391068 
L 206.25 324.531554 
L 207.4125 318.745178 
L 208.575 317.267305 
L 209.7375 310.893743 
L 210.9 306.538251 
L 212.0625 309.714543 
L 213.225 318.965199 
L 214.3875 317.052207 
L 215.55 316.847093 
L 216.7125 323.308029 
L 217.875 328.686147 
L 219.0375 330.560101 
L 220.2 335.753065 
L 221.3625 332.631752 
L 222.525 323.53344 
L 223.6875 315.523185 
L 224.85 303.963252 
L 226.0125 302.606591 
L 227.175 305.251789 
L 228.3375 306.426405 
L 229.5 303.088875 
L 230.6625 300.800819 
L 231.825 295.893943 
L 232.9875 296.032047 
L 235.3125 295.578884 
L 236.475 300.204142 
L 237.6375 300.95075 
L 238.8 302.550698 
L 239.9625 309.489911 
L 241.125 317.107783 
L 243.45 325.039202 
L 244.6125 322.74137 
L 245.775 316.806594 
L 246.9375 314.754274 
L 248.1 319.729262 
L 249.2625 315.188686 
L 250.425 318.370963 
L 251.5875 327.789403 
L 252.75 326.062099 
L 253.9125 318.261229 
L 255.075 327.571823 
L 256.2375 329.54063 
L 257.4 325.291141 
L 258.5625 332.433304 
L 259.725 342.226676 
L 260.8875 338.742131 
L 262.05 338.35939 
L 263.2125 341.273219 
L 264.375 341.932159 
L 265.5375 339.12383 
L 266.7 343.078997 
L 267.8625 345.456503 
L 269.025 342.303204 
L 270.1875 340.576684 
L 271.35 341.10765 
L 272.5125 336.950732 
L 273.675 336.438365 
L 274.8375 340.866174 
L 276 344.850099 
L 277.1625 346.513876 
L 278.325 351.405275 
L 279.4875 353.360203 
L 280.65 354.137732 
L 281.8125 352.196989 
L 282.975 346.242308 
L 284.1375 341.152529 
L 285.3 340.264797 
L 286.4625 339.983004 
L 287.625 341.645469 
L 288.7875 346.138062 
L 289.95 348.491647 
L 291.1125 349.952691 
L 292.275 348.891953 
L 293.4375 345.823109 
L 294.6 346.5353 
L 295.7625 345.329888 
L 296.925 344.934322 
L 298.0875 346.571689 
L 299.25 346.463028 
L 300.4125 344.829913 
L 301.575 346.745412 
L 302.7375 344.682193 
L 303.9 342.272322 
L 305.0625 346.578264 
L 306.225 346.375946 
L 307.3875 348.309487 
L 308.55 347.572092 
L 309.7125 347.345054 
L 310.875 344.75905 
L 312.0375 344.084875 
L 313.2 343.602732 
L 314.3625 345.235008 
L 315.525 346.505581 
L 316.6875 346.92792 
L 317.85 350.297869 
L 319.0125 349.51761 
L 320.175 351.085119 
L 321.3375 353.140548 
L 322.5 354.32676 
L 323.6625 351.596329 
L 324.825 351.259546 
L 325.9875 349.445673 
L 327.15 345.409421 
L 328.3125 343.328807 
L 329.475 346.449064 
L 330.6375 347.594579 
L 331.8 350.140286 
L 332.9625 351.773789 
L 334.125 351.837641 
L 335.2875 350.078677 
L 336.45 347.958015 
L 337.6125 346.748047 
L 338.775 347.475119 
L 339.9375 347.894235 
L 341.1 347.770418 
L 342.2625 348.938288 
L 343.425 349.070261 
L 344.5875 349.810521 
L 345.75 350.882522 
L 346.9125 352.495671 
L 348.075 353.292673 
L 349.2375 353.091858 
L 351.5625 351.705583 
L 352.725 350.797165 
L 353.8875 349.464781 
L 355.05 350.160338 
L 356.2125 351.262399 
L 357.375 351.538595 
L 358.5375 349.941797 
L 359.7 347.126885 
L 360.8625 343.72637 
L 362.025 341.037148 
L 363.1875 341.117992 
L 365.5125 346.92234 
L 366.675 350.076826 
L 367.8375 353.581325 
L 369 354.518493 
L 370.1625 351.515151 
L 371.325 349.994848 
L 372.4875 349.084454 
L 373.65 348.48769 
L 374.8125 348.477326 
L 375.975 350.170039 
L 377.1375 353.804886 
L 378.3 355.134086 
L 379.4625 356.030456 
L 380.625 357.87799 
L 381.7875 358.289483 
L 382.95 356.240442 
L 384.1125 355.155319 
L 385.275 353.549968 
L 386.4375 350.796702 
L 387.6 350.140797 
L 388.7625 350.352581 
L 389.925 351.374923 
L 391.0875 353.082813 
L 392.25 355.046747 
L 393.4125 355.099123 
L 394.575 355.003222 
L 395.7375 355.61503 
L 396.9 354.933155 
L 398.0625 352.19143 
L 399.225 349.866623 
L 400.3875 349.207817 
L 401.55 349.58928 
L 402.7125 351.245042 
L 403.875 352.436558 
L 405.0375 353.862418 
L 406.2 355.007659 
L 408.525 350.2023 
L 409.6875 350.348306 
L 410.85 351.210607 
L 412.0125 351.342349 
L 413.175 352.841529 
L 414.3375 355.101623 
L 415.5 357.038591 
L 416.6625 358.125993 
L 417.825 357.774232 
L 418.9875 358.95605 
L 420.15 358.625712 
L 421.3125 358.781147 
L 422.475 358.340321 
L 423.6375 357.318356 
L 424.8 355.156187 
L 427.125 352.33598 
L 428.2875 353.182698 
L 429.45 354.744335 
L 430.6125 354.708157 
L 432.9375 351.499902 
L 434.1 350.646525 
L 435.2625 351.999578 
L 436.425 354.623424 
L 437.5875 358.469206 
L 438.75 360.36962 
L 441.075 358.569126 
L 442.2375 356.44859 
L 443.4 353.799798 
L 444.5625 353.484352 
L 445.725 353.664067 
L 446.8875 354.614046 
L 449.2125 354.780639 
L 450.375 355.717545 
L 451.5375 357.689148 
L 452.7 357.35395 
L 455.025 360.340592 
L 456.1875 358.381218 
L 457.35 355.437124 
L 458.5125 353.847497 
L 459.675 353.145754 
L 460.8375 352.07727 
L 462 352.401982 
L 463.1625 352.274369 
L 464.325 350.183958 
L 465.4875 348.744596 
L 466.65 349.441657 
L 467.8125 348.760501 
L 468.975 348.797504 
L 470.1375 350.721033 
L 471.3 352.10986 
L 475.95 351.599945 
L 477.1125 350.818906 
L 478.275 350.389995 
L 479.4375 352.471983 
L 480.6 355.501527 
L 481.7625 357.749406 
L 482.925 359.307978 
L 484.0875 360.159772 
L 485.25 360.399353 
L 486.4125 360.138992 
L 487.575 358.982634 
L 488.7375 358.705643 
L 489.9 359.195277 
L 491.0625 359.063611 
L 492.225 358.701602 
L 493.3875 359.049152 
L 494.55 358.55336 
L 495.7125 356.831182 
L 496.875 355.607512 
L 498.0375 355.510636 
L 499.2 354.943033 
L 500.3625 353.386316 
L 501.525 352.332098 
L 502.6875 353.130797 
L 503.85 352.67108 
L 505.0125 351.685148 
L 506.175 353.829324 
L 507.3375 356.54317 
L 508.5 356.728844 
L 509.6625 357.490532 
L 510.825 359.267964 
L 513.15 359.188875 
L 514.3125 359.963953 
L 515.475 359.265137 
L 516.6375 357.499688 
L 518.9625 355.066818 
L 520.125 354.294544 
L 522.45 356.995017 
L 523.6125 358.537247 
L 524.775 359.825459 
L 525.9375 360.077359 
L 527.1 358.797262 
L 528.2625 357.898587 
L 529.425 357.459431 
L 531.75 358.146458 
L 532.9125 357.333335 
L 534.075 356.750035 
L 535.2375 356.938916 
L 536.4 356.461798 
L 537.5625 355.138168 
L 538.725 355.307521 
L 539.8875 355.661439 
L 541.05 354.694965 
L 543.375 353.175094 
L 544.5375 352.548055 
L 546.8625 354.986764 
L 548.025 355.300711 
L 549.1875 358.116618 
L 550.35 359.097357 
L 551.5125 358.31102 
L 552.675 356.652038 
L 553.8375 354.617026 
L 555 353.053553 
L 556.1625 353.696531 
L 557.325 353.264643 
L 558.4875 354.291233 
L 559.65 357.328793 
L 560.8125 357.980114 
L 561.975 357.131461 
L 564.3 356.556084 
L 565.4625 355.087641 
L 566.625 353.310896 
L 567.7875 352.362695 
L 568.95 352.876253 
L 570.1125 354.391915 
L 571.275 355.324648 
L 573.6 359.187655 
L 574.7625 359.26212 
L 575.925 357.12605 
L 577.0875 356.151528 
L 578.25 354.600234 
L 579.4125 353.507991 
L 580.575 353.421028 
L 582.9 350.13414 
L 584.0625 351.503162 
L 585.225 351.723531 
L 586.3875 350.965175 
L 587.55 352.90012 
L 588.7125 355.092257 
L 589.875 355.31497 
L 591.0375 356.973471 
L 592.2 358.310696 
L 593.3625 358.189617 
L 594.525 357.774825 
L 595.6875 357.7952 
L 596.85 356.344015 
L 598.0125 356.791239 
L 599.175 358.704224 
L 600.3375 359.826136 
L 601.5 360.09673 
L 602.6625 360.738293 
L 603.825 360.402566 
L 606.15 357.445129 
L 607.3125 357.017726 
L 608.475 356.770416 
L 609.6375 355.520269 
L 610.8 355.215518 
L 611.9625 355.556094 
L 613.125 354.158705 
L 614.2875 353.185011 
L 615.45 354.087467 
L 616.6125 355.27255 
L 617.775 356.022626 
L 618.9375 356.252157 
L 620.1 355.931422 
L 621.2625 354.997603 
L 622.425 353.74795 
L 623.5875 353.249356 
L 624.75 354.014078 
L 624.75 354.014078 
" style="fill:none;stroke:#0000ff;stroke-linecap:square;stroke-width:1.5;"/>
   </g>
   <g id="line2d_25">
    <path clip-path="url(#pf034f9a320)" d="M 88.8375 361.097975 
L 94.65 361.201872 
L 107.4375 361.004724 
L 121.3875 360.488303 
L 124.875 360.490068 
L 133.0125 360.736353 
L 141.15 360.943234 
L 148.125 360.892218 
L 150.45 360.934054 
L 157.425 361.170967 
L 159.75 361.100189 
L 163.2375 360.911239 
L 166.725 360.796698 
L 172.5375 360.744121 
L 174.8625 360.639845 
L 185.325 360.801096 
L 191.1375 360.705909 
L 194.625 360.834733 
L 198.1125 360.770727 
L 200.4375 360.728051 
L 208.575 360.986597 
L 213.225 361.039293 
L 217.875 361.075688 
L 223.6875 360.931489 
L 227.175 360.937113 
L 230.6625 360.84406 
L 238.8 360.994205 
L 242.2875 360.966567 
L 246.9375 361.029237 
L 249.2625 360.947102 
L 251.5875 360.884899 
L 258.5625 360.028901 
L 262.05 359.227322 
L 263.2125 358.696917 
L 265.5375 357.346894 
L 267.8625 356.689904 
L 269.025 354.010497 
L 270.1875 348.506829 
L 271.35 343.645845 
L 272.5125 339.272618 
L 273.675 335.671582 
L 274.8375 334.101844 
L 276 333.537256 
L 277.1625 334.071853 
L 278.325 334.770704 
L 279.4875 336.279829 
L 280.65 336.125879 
L 281.8125 335.807236 
L 282.975 334.929142 
L 284.1375 335.957695 
L 285.3 334.453963 
L 286.4625 331.252052 
L 287.625 329.418321 
L 288.7875 328.816887 
L 289.95 329.343344 
L 291.1125 330.93969 
L 292.275 329.676926 
L 293.4375 330.646139 
L 294.6 330.196327 
L 295.7625 328.856459 
L 296.925 330.175561 
L 298.0875 331.681985 
L 299.25 332.336384 
L 300.4125 332.255274 
L 301.575 332.466259 
L 303.9 334.628925 
L 305.0625 335.389589 
L 307.3875 337.794042 
L 308.55 338.310799 
L 309.7125 338.683266 
L 312.0375 338.073046 
L 313.2 338.901142 
L 314.3625 338.872829 
L 315.525 338.652821 
L 316.6875 339.295259 
L 319.0125 340.887962 
L 320.175 341.937282 
L 321.3375 342.442752 
L 323.6625 342.351809 
L 324.825 342.808239 
L 325.9875 343.020932 
L 327.15 342.967153 
L 328.3125 343.228856 
L 329.475 344.054498 
L 331.8 344.296016 
L 332.9625 344.831518 
L 334.125 345.54397 
L 335.2875 346.448297 
L 336.45 347.02008 
L 337.6125 346.573616 
L 338.775 345.896717 
L 339.9375 345.556276 
L 341.1 345.062035 
L 342.2625 345.446383 
L 343.425 345.328807 
L 344.5875 344.876207 
L 346.9125 343.672661 
L 349.2375 343.686961 
L 350.4 343.367161 
L 351.5625 342.912964 
L 352.725 342.955116 
L 353.8875 343.110569 
L 355.05 343.408823 
L 356.2125 343.884397 
L 358.5375 344.646131 
L 359.7 345.125048 
L 360.8625 345.037844 
L 362.025 344.733045 
L 363.1875 344.750035 
L 364.35 345.625581 
L 365.5125 345.522181 
L 366.675 345.734323 
L 367.8375 346.41097 
L 369 346.143464 
L 370.1625 346.06125 
L 371.325 346.919663 
L 372.4875 347.261066 
L 373.65 347.372189 
L 374.8125 347.817711 
L 375.975 348.749449 
L 377.1375 349.113188 
L 378.3 349.271289 
L 380.625 349.917058 
L 381.7875 350.373009 
L 382.95 351.043424 
L 384.1125 351.348348 
L 385.275 351.119133 
L 386.4375 351.117075 
L 387.6 351.483587 
L 389.925 351.652528 
L 391.0875 351.86137 
L 393.4125 352.836042 
L 394.575 353.430972 
L 396.9 353.959594 
L 398.0625 354.045058 
L 399.225 353.713386 
L 400.3875 353.506161 
L 402.7125 353.621631 
L 405.0375 354.071602 
L 406.2 354.186976 
L 407.3625 354.417221 
L 408.525 354.371684 
L 409.6875 354.193435 
L 410.85 354.419192 
L 412.0125 354.341142 
L 414.3375 354.597449 
L 415.5 354.398008 
L 416.6625 354.411485 
L 417.825 354.538421 
L 420.15 354.224366 
L 421.3125 354.519237 
L 422.475 354.538409 
L 423.6375 354.912153 
L 427.125 354.447597 
L 428.2875 354.344008 
L 429.45 354.634526 
L 432.9375 354.606509 
L 435.2625 355.150743 
L 438.75 355.675035 
L 439.9125 355.633032 
L 441.075 355.739819 
L 442.2375 355.628905 
L 443.4 355.236336 
L 444.5625 355.063371 
L 448.05 355.840424 
L 450.375 355.554287 
L 452.7 355.594313 
L 453.8625 355.630173 
L 456.1875 355.445118 
L 462 355.750676 
L 464.325 356.244231 
L 465.4875 356.284642 
L 467.8125 356.103321 
L 470.1375 356.233104 
L 472.4625 356.334208 
L 474.7875 356.196132 
L 478.275 355.120947 
L 479.4375 355.06655 
L 480.6 355.359193 
L 484.0875 355.748789 
L 485.25 355.889294 
L 489.9 355.734716 
L 492.225 355.991264 
L 493.3875 356.318248 
L 495.7125 356.647244 
L 496.875 356.966515 
L 498.0375 357.145404 
L 500.3625 357.110392 
L 502.6875 356.908111 
L 506.175 356.968377 
L 509.6625 357.298839 
L 511.9875 357.401565 
L 513.15 357.421569 
L 516.6375 356.798661 
L 520.125 357.141565 
L 521.2875 357.066612 
L 522.45 357.112199 
L 524.775 356.887989 
L 527.1 356.878171 
L 529.425 357.000791 
L 532.9125 357.661142 
L 534.075 357.700726 
L 538.725 358.330451 
L 542.2125 357.951058 
L 543.375 357.928067 
L 545.7 358.112524 
L 546.8625 357.964938 
L 549.1875 357.476456 
L 550.35 357.498202 
L 555 358.263026 
L 556.1625 358.212957 
L 557.325 358.303595 
L 561.975 358.001029 
L 563.1375 358.195864 
L 565.4625 358.021321 
L 567.7875 358.312918 
L 570.1125 358.621292 
L 571.275 358.696332 
L 575.925 358.253294 
L 578.25 358.055471 
L 581.7375 357.335428 
L 582.9 357.346162 
L 586.3875 357.000145 
L 588.7125 357.125714 
L 592.2 356.840815 
L 594.525 356.844156 
L 595.6875 356.992225 
L 599.175 357.766788 
L 608.475 358.771266 
L 609.6375 358.864152 
L 609.6375 358.864152 
" style="fill:none;stroke:#008000;stroke-linecap:square;stroke-width:1.5;"/>
   </g>
   <g id="line2d_26">
    <path clip-path="url(#pf034f9a320)" d="M 88.8375 359.540522 
L 242.2875 359.471538 
L 243.45 359.33474 
L 244.6125 358.909421 
L 245.775 357.631229 
L 248.1 354.403712 
L 249.2625 353.820277 
L 250.425 353.639199 
L 251.5875 354.479728 
L 252.75 353.87231 
L 253.9125 352.909732 
L 255.075 351.036362 
L 256.2375 351.442681 
L 257.4 348.671594 
L 258.5625 341.785231 
L 259.725 336.821655 
L 260.8875 334.012543 
L 262.05 332.882519 
L 263.2125 333.241639 
L 264.375 331.059814 
L 265.5375 330.87527 
L 266.7 329.776875 
L 267.8625 327.780772 
L 269.025 327.831598 
L 270.1875 328.473848 
L 271.35 328.807552 
L 272.5125 328.623375 
L 273.675 328.621479 
L 274.8375 329.32764 
L 277.1625 331.102608 
L 278.325 332.438889 
L 279.4875 333.96225 
L 281.8125 336.068629 
L 284.1375 336.635437 
L 285.3 337.927648 
L 286.4625 338.509168 
L 287.625 338.794959 
L 288.7875 339.951125 
L 291.1125 342.994415 
L 292.275 344.943078 
L 293.4375 346.338147 
L 294.6 347.100108 
L 295.7625 347.722794 
L 296.925 348.91364 
L 298.0875 349.828209 
L 299.25 350.397823 
L 300.4125 351.256072 
L 301.575 352.634172 
L 305.0625 354.763474 
L 307.3875 356.567488 
L 308.55 357.14869 
L 309.7125 357.211808 
L 310.875 357.156917 
L 313.2 357.241029 
L 314.3625 357.58707 
L 315.525 357.713885 
L 317.85 357.605832 
L 319.0125 357.483093 
L 322.5 357.665201 
L 323.6625 357.558003 
L 325.9875 357.762828 
L 331.8 358.618063 
L 335.2875 358.683185 
L 336.45 358.867301 
L 338.775 358.951614 
L 341.1 359.060677 
L 343.425 359.178625 
L 351.5625 359.41143 
L 364.35 359.509879 
L 392.25 359.531651 
L 530.5875 359.538678 
L 618.9375 359.5396 
L 618.9375 359.5396 
" style="fill:none;stroke:#ffa500;stroke-linecap:square;stroke-width:1.5;"/>
   </g>
   <g id="line2d_27">
    <path clip-path="url(#pf034f9a320)" d="M 88.8375 361.158901 
L 92.325 360.900028 
L 98.1375 360.988901 
L 102.7875 361.245759 
L 107.4375 361.533307 
L 109.7625 361.731209 
L 112.0875 361.649015 
L 116.7375 361.527831 
L 122.55 361.600914 
L 127.2 361.930285 
L 130.6875 361.935658 
L 134.175 361.571478 
L 138.825 361.34447 
L 139.9875 361.363034 
L 141.15 361.498999 
L 143.475 361.422309 
L 145.8 361.137746 
L 148.125 361.183567 
L 152.775 361.308946 
L 156.2625 361.527812 
L 158.5875 361.328049 
L 163.2375 361.256317 
L 165.5625 361.448498 
L 169.05 361.448466 
L 171.375 361.249772 
L 173.7 361.370544 
L 176.025 361.49428 
L 178.35 361.58161 
L 180.675 361.701412 
L 184.1625 361.686302 
L 187.65 361.799523 
L 191.1375 361.713579 
L 192.3 361.538771 
L 194.625 361.505473 
L 196.95 361.621831 
L 201.6 361.394282 
L 210.9 361.666944 
L 212.0625 361.589354 
L 216.7125 361.710321 
L 221.3625 361.580325 
L 222.525 361.618508 
L 224.85 361.246664 
L 226.0125 361.057198 
L 227.175 360.997036 
L 231.825 359.618005 
L 232.9875 359.120617 
L 234.15 358.745799 
L 235.3125 357.779481 
L 237.6375 355.497029 
L 239.9625 354.70629 
L 241.125 351.078173 
L 242.2875 347.867447 
L 243.45 346.887586 
L 244.6125 346.479267 
L 245.775 346.286179 
L 248.1 346.246958 
L 250.425 346.40534 
L 251.5875 346.576797 
L 253.9125 346.536639 
L 255.075 346.444991 
L 256.2375 346.535955 
L 260.8875 346.092821 
L 266.7 346.195414 
L 267.8625 346.129931 
L 277.1625 346.619268 
L 280.65 347.020444 
L 281.8125 347.045814 
L 284.1375 346.835948 
L 285.3 346.937525 
L 288.7875 346.920295 
L 291.1125 347.188801 
L 292.275 347.411274 
L 293.4375 347.498053 
L 295.7625 347.346269 
L 298.0875 347.417993 
L 300.4125 347.385429 
L 301.575 347.581199 
L 305.0625 347.68147 
L 308.55 348.350735 
L 312.0375 347.614239 
L 313.2 347.459209 
L 314.3625 347.565317 
L 316.6875 347.409846 
L 319.0125 347.147566 
L 322.5 347.132429 
L 324.825 347.081223 
L 328.3125 347.316017 
L 332.9625 347.572642 
L 335.2875 347.448987 
L 336.45 347.696573 
L 338.775 347.690578 
L 339.9375 347.897409 
L 342.2625 347.721077 
L 343.425 348.005013 
L 346.9125 348.263991 
L 348.075 348.67872 
L 350.4 348.816302 
L 352.725 349.05446 
L 353.8875 349.282085 
L 355.05 349.686875 
L 356.2125 349.826769 
L 357.375 349.55343 
L 358.5375 349.488857 
L 359.7 349.71907 
L 362.025 349.756934 
L 363.1875 349.889316 
L 364.35 350.224484 
L 366.675 351.235903 
L 369 351.628683 
L 370.1625 351.628819 
L 371.325 351.162349 
L 372.4875 350.915333 
L 374.8125 351.046426 
L 377.1375 351.548051 
L 378.3 351.656992 
L 379.4625 351.914057 
L 380.625 351.806269 
L 381.7875 351.556928 
L 382.95 351.836743 
L 384.1125 351.715867 
L 386.4375 352.029562 
L 387.6 351.755827 
L 388.7625 351.778801 
L 389.925 351.941153 
L 392.25 351.547083 
L 393.4125 351.941337 
L 394.575 351.952194 
L 395.7375 352.455468 
L 398.0625 351.834789 
L 400.3875 351.678364 
L 401.55 352.073943 
L 405.0375 352.020207 
L 406.2 352.453971 
L 408.525 352.961865 
L 410.85 353.386199 
L 412.0125 353.261241 
L 413.175 353.401617 
L 414.3375 353.194349 
L 415.5 352.609699 
L 416.6625 352.408853 
L 418.9875 353.276004 
L 420.15 353.623624 
L 422.475 353.119526 
L 423.6375 353.225472 
L 429.45 353.081812 
L 431.775 353.37613 
L 434.1 353.442663 
L 436.425 354.207528 
L 437.5875 354.222556 
L 439.9125 353.862251 
L 441.075 354.047558 
L 442.2375 354.071711 
L 443.4 354.208943 
L 444.5625 354.23102 
L 446.8875 353.990526 
L 449.2125 352.904653 
L 450.375 352.467643 
L 451.5375 352.476697 
L 452.7 352.968442 
L 456.1875 353.56816 
L 457.35 353.756977 
L 460.8375 353.328465 
L 463.1625 353.599673 
L 464.325 353.832176 
L 465.4875 354.364715 
L 467.8125 354.826577 
L 468.975 355.348083 
L 470.1375 355.594748 
L 471.3 355.575128 
L 474.7875 354.999157 
L 478.275 355.164853 
L 481.7625 355.753444 
L 482.925 355.728691 
L 484.0875 355.911089 
L 485.25 355.923878 
L 486.4125 355.528367 
L 487.575 355.010989 
L 488.7375 354.824196 
L 489.9 355.114826 
L 491.0625 355.571994 
L 494.55 355.468711 
L 495.7125 355.172468 
L 498.0375 355.021461 
L 501.525 355.323268 
L 503.85 356.185762 
L 505.0125 356.485738 
L 506.175 356.491915 
L 510.825 357.512703 
L 513.15 356.829004 
L 515.475 356.6862 
L 516.6375 356.996541 
L 517.8 357.08427 
L 518.9625 356.785772 
L 520.125 356.276853 
L 521.2875 355.899702 
L 522.45 356.011076 
L 525.9375 357.377292 
L 527.1 357.48915 
L 528.2625 357.3294 
L 529.425 357.481259 
L 531.75 357.002679 
L 534.075 356.862315 
L 535.2375 357.284862 
L 537.5625 356.920684 
L 538.725 357.140032 
L 541.05 357.862487 
L 543.375 358.171838 
L 546.8625 357.275093 
L 548.025 357.278475 
L 550.35 356.943408 
L 551.5125 356.556504 
L 552.675 355.994113 
L 553.8375 355.71735 
L 555 355.819296 
L 557.325 355.323516 
L 558.4875 355.326938 
L 560.8125 355.612365 
L 563.1375 355.126081 
L 566.625 355.133612 
L 567.7875 355.41429 
L 571.275 356.760333 
L 573.6 357.189122 
L 574.7625 357.489643 
L 580.575 358.236141 
L 581.7375 358.383365 
L 582.9 358.338913 
L 585.225 357.829119 
L 587.55 357.928256 
L 589.875 357.001206 
L 592.2 357.064604 
L 593.3625 356.8983 
L 603.825 358.472617 
L 607.3125 357.785511 
L 608.475 357.826893 
L 609.6375 358.167786 
L 614.2875 358.728676 
L 615.45 358.696238 
L 616.6125 358.534053 
L 617.775 358.540521 
L 618.9375 358.774267 
L 618.9375 358.774267 
" style="fill:none;stroke:#800080;stroke-linecap:square;stroke-width:1.5;"/>
   </g>
   <g id="patch_3">
    <path d="M 90 384.48 
L 90 51.84 
" style="fill:none;stroke:#000000;stroke-linecap:square;stroke-linejoin:miter;stroke-width:0.8;"/>
   </g>
   <g id="patch_4">
    <path d="M 648 384.48 
L 648 51.84 
" style="fill:none;stroke:#000000;stroke-linecap:square;stroke-linejoin:miter;stroke-width:0.8;"/>
   </g>
   <g id="patch_5">
    <path d="M 90 384.48 
L 648 384.48 
" style="fill:none;stroke:#000000;stroke-linecap:square;stroke-linejoin:miter;stroke-width:0.8;"/>
   </g>
   <g id="patch_6">
    <path d="M 90 51.84 
L 648 51.84 
" style="fill:none;stroke:#000000;stroke-linecap:square;stroke-linejoin:miter;stroke-width:0.8;"/>
   </g>
   <g id="text_14">
    <!-- 72 point Prediction -->
    <defs>
     <path d="M 8.203125 72.90625 
L 55.078125 72.90625 
L 55.078125 68.703125 
L 28.609375 0 
L 18.3125 0 
L 43.21875 64.59375 
L 8.203125 64.59375 
z
" id="DejaVuSans-55"/>
     <path d="M 18.3125 70.21875 
L 18.3125 54.6875 
L 36.8125 54.6875 
L 36.8125 47.703125 
L 18.3125 47.703125 
L 18.3125 18.015625 
Q 18.3125 11.328125 20.140625 9.421875 
Q 21.96875 7.515625 27.59375 7.515625 
L 36.8125 7.515625 
L 36.8125 0 
L 27.59375 0 
Q 17.1875 0 13.234375 3.875 
Q 9.28125 7.765625 9.28125 18.015625 
L 9.28125 47.703125 
L 2.6875 47.703125 
L 2.6875 54.6875 
L 9.28125 54.6875 
L 9.28125 70.21875 
z
" id="DejaVuSans-116"/>
     <path d="M 19.671875 64.796875 
L 19.671875 37.40625 
L 32.078125 37.40625 
Q 38.96875 37.40625 42.71875 40.96875 
Q 46.484375 44.53125 46.484375 51.125 
Q 46.484375 57.671875 42.71875 61.234375 
Q 38.96875 64.796875 32.078125 64.796875 
z
M 9.8125 72.90625 
L 32.078125 72.90625 
Q 44.34375 72.90625 50.609375 67.359375 
Q 56.890625 61.8125 56.890625 51.125 
Q 56.890625 40.328125 50.609375 34.8125 
Q 44.34375 29.296875 32.078125 29.296875 
L 19.671875 29.296875 
L 19.671875 0 
L 9.8125 0 
z
" id="DejaVuSans-80"/>
     <path d="M 45.40625 46.390625 
L 45.40625 75.984375 
L 54.390625 75.984375 
L 54.390625 0 
L 45.40625 0 
L 45.40625 8.203125 
Q 42.578125 3.328125 38.25 0.953125 
Q 33.9375 -1.421875 27.875 -1.421875 
Q 17.96875 -1.421875 11.734375 6.484375 
Q 5.515625 14.40625 5.515625 27.296875 
Q 5.515625 40.1875 11.734375 48.09375 
Q 17.96875 56 27.875 56 
Q 33.9375 56 38.25 53.625 
Q 42.578125 51.265625 45.40625 46.390625 
z
M 14.796875 27.296875 
Q 14.796875 17.390625 18.875 11.75 
Q 22.953125 6.109375 30.078125 6.109375 
Q 37.203125 6.109375 41.296875 11.75 
Q 45.40625 17.390625 45.40625 27.296875 
Q 45.40625 37.203125 41.296875 42.84375 
Q 37.203125 48.484375 30.078125 48.484375 
Q 22.953125 48.484375 18.875 42.84375 
Q 14.796875 37.203125 14.796875 27.296875 
z
" id="DejaVuSans-100"/>
     <path d="M 48.78125 52.59375 
L 48.78125 44.1875 
Q 44.96875 46.296875 41.140625 47.34375 
Q 37.3125 48.390625 33.40625 48.390625 
Q 24.65625 48.390625 19.8125 42.84375 
Q 14.984375 37.3125 14.984375 27.296875 
Q 14.984375 17.28125 19.8125 11.734375 
Q 24.65625 6.203125 33.40625 6.203125 
Q 37.3125 6.203125 41.140625 7.25 
Q 44.96875 8.296875 48.78125 10.40625 
L 48.78125 2.09375 
Q 45.015625 0.34375 40.984375 -0.53125 
Q 36.96875 -1.421875 32.421875 -1.421875 
Q 20.0625 -1.421875 12.78125 6.34375 
Q 5.515625 14.109375 5.515625 27.296875 
Q 5.515625 40.671875 12.859375 48.328125 
Q 20.21875 56 33.015625 56 
Q 37.15625 56 41.109375 55.140625 
Q 45.0625 54.296875 48.78125 52.59375 
z
" id="DejaVuSans-99"/>
    </defs>
    <g transform="translate(312.208125 45.84)scale(0.12 -0.12)">
     <use xlink:href="#DejaVuSans-55"/>
     <use x="63.623047" xlink:href="#DejaVuSans-50"/>
     <use x="127.246094" xlink:href="#DejaVuSans-32"/>
     <use x="159.033203" xlink:href="#DejaVuSans-112"/>
     <use x="222.509766" xlink:href="#DejaVuSans-111"/>
     <use x="283.691406" xlink:href="#DejaVuSans-105"/>
     <use x="311.474609" xlink:href="#DejaVuSans-110"/>
     <use x="374.853516" xlink:href="#DejaVuSans-116"/>
     <use x="414.0625" xlink:href="#DejaVuSans-32"/>
     <use x="445.849609" xlink:href="#DejaVuSans-80"/>
     <use x="506.136719" xlink:href="#DejaVuSans-114"/>
     <use x="547.21875" xlink:href="#DejaVuSans-101"/>
     <use x="608.742188" xlink:href="#DejaVuSans-100"/>
     <use x="672.21875" xlink:href="#DejaVuSans-105"/>
     <use x="700.001953" xlink:href="#DejaVuSans-99"/>
     <use x="754.982422" xlink:href="#DejaVuSans-116"/>
     <use x="794.191406" xlink:href="#DejaVuSans-105"/>
     <use x="821.974609" xlink:href="#DejaVuSans-111"/>
     <use x="883.15625" xlink:href="#DejaVuSans-110"/>
    </g>
   </g>
   <g id="legend_1">
    <g id="patch_7">
     <path d="M 477.804688 133.230625 
L 641 133.230625 
Q 643 133.230625 643 131.230625 
L 643 58.84 
Q 643 56.84 641 56.84 
L 477.804688 56.84 
Q 475.804688 56.84 475.804688 58.84 
L 475.804688 131.230625 
Q 475.804688 133.230625 477.804688 133.230625 
z
" style="fill:#ffffff;opacity:0.8;stroke:#cccccc;stroke-linejoin:miter;"/>
    </g>
    <g id="line2d_28">
     <path d="M 479.804688 64.938437 
L 499.804688 64.938437 
" style="fill:none;stroke:#ff0000;stroke-linecap:square;stroke-width:1.5;"/>
    </g>
    <g id="line2d_29"/>
    <g id="text_15">
     <!-- Transformer-72 Prediction -->
     <defs>
      <path d="M 37.109375 75.984375 
L 37.109375 68.5 
L 28.515625 68.5 
Q 23.6875 68.5 21.796875 66.546875 
Q 19.921875 64.59375 19.921875 59.515625 
L 19.921875 54.6875 
L 34.71875 54.6875 
L 34.71875 47.703125 
L 19.921875 47.703125 
L 19.921875 0 
L 10.890625 0 
L 10.890625 47.703125 
L 2.296875 47.703125 
L 2.296875 54.6875 
L 10.890625 54.6875 
L 10.890625 58.5 
Q 10.890625 67.625 15.140625 71.796875 
Q 19.390625 75.984375 28.609375 75.984375 
z
" id="DejaVuSans-102"/>
      <path d="M 4.890625 31.390625 
L 31.203125 31.390625 
L 31.203125 23.390625 
L 4.890625 23.390625 
z
" id="DejaVuSans-45"/>
     </defs>
     <g transform="translate(507.804688 68.438437)scale(0.1 -0.1)">
      <use xlink:href="#DejaVuSans-84"/>
      <use x="60.865234" xlink:href="#DejaVuSans-114"/>
      <use x="101.978516" xlink:href="#DejaVuSans-97"/>
      <use x="163.257812" xlink:href="#DejaVuSans-110"/>
      <use x="226.636719" xlink:href="#DejaVuSans-115"/>
      <use x="278.736328" xlink:href="#DejaVuSans-102"/>
      <use x="313.941406" xlink:href="#DejaVuSans-111"/>
      <use x="375.123047" xlink:href="#DejaVuSans-114"/>
      <use x="416.220703" xlink:href="#DejaVuSans-109"/>
      <use x="513.632812" xlink:href="#DejaVuSans-101"/>
      <use x="575.15625" xlink:href="#DejaVuSans-114"/>
      <use x="616.175781" xlink:href="#DejaVuSans-45"/>
      <use x="652.259766" xlink:href="#DejaVuSans-55"/>
      <use x="715.882812" xlink:href="#DejaVuSans-50"/>
      <use x="779.505859" xlink:href="#DejaVuSans-32"/>
      <use x="811.292969" xlink:href="#DejaVuSans-80"/>
      <use x="871.580078" xlink:href="#DejaVuSans-114"/>
      <use x="912.662109" xlink:href="#DejaVuSans-101"/>
      <use x="974.185547" xlink:href="#DejaVuSans-100"/>
      <use x="1037.662109" xlink:href="#DejaVuSans-105"/>
      <use x="1065.445312" xlink:href="#DejaVuSans-99"/>
      <use x="1120.425781" xlink:href="#DejaVuSans-116"/>
      <use x="1159.634766" xlink:href="#DejaVuSans-105"/>
      <use x="1187.417969" xlink:href="#DejaVuSans-111"/>
      <use x="1248.599609" xlink:href="#DejaVuSans-110"/>
     </g>
    </g>
    <g id="line2d_30">
     <path d="M 479.804688 79.616562 
L 499.804688 79.616562 
" style="fill:none;stroke:#0000ff;stroke-linecap:square;stroke-width:1.5;"/>
    </g>
    <g id="line2d_31"/>
    <g id="text_16">
     <!-- GroundTruth(smoothed) -->
     <defs>
      <path d="M 59.515625 10.40625 
L 59.515625 29.984375 
L 43.40625 29.984375 
L 43.40625 38.09375 
L 69.28125 38.09375 
L 69.28125 6.78125 
Q 63.578125 2.734375 56.6875 0.65625 
Q 49.8125 -1.421875 42 -1.421875 
Q 24.90625 -1.421875 15.25 8.5625 
Q 5.609375 18.5625 5.609375 36.375 
Q 5.609375 54.25 15.25 64.234375 
Q 24.90625 74.21875 42 74.21875 
Q 49.125 74.21875 55.546875 72.453125 
Q 61.96875 70.703125 67.390625 67.28125 
L 67.390625 56.78125 
Q 61.921875 61.421875 55.765625 63.765625 
Q 49.609375 66.109375 42.828125 66.109375 
Q 29.4375 66.109375 22.71875 58.640625 
Q 16.015625 51.171875 16.015625 36.375 
Q 16.015625 21.625 22.71875 14.15625 
Q 29.4375 6.6875 42.828125 6.6875 
Q 48.046875 6.6875 52.140625 7.59375 
Q 56.25 8.5 59.515625 10.40625 
z
" id="DejaVuSans-71"/>
      <path d="M 31 75.875 
Q 24.46875 64.65625 21.28125 53.65625 
Q 18.109375 42.671875 18.109375 31.390625 
Q 18.109375 20.125 21.3125 9.0625 
Q 24.515625 -2 31 -13.1875 
L 23.1875 -13.1875 
Q 15.875 -1.703125 12.234375 9.375 
Q 8.59375 20.453125 8.59375 31.390625 
Q 8.59375 42.28125 12.203125 53.3125 
Q 15.828125 64.359375 23.1875 75.875 
z
" id="DejaVuSans-40"/>
      <path d="M 8.015625 75.875 
L 15.828125 75.875 
Q 23.140625 64.359375 26.78125 53.3125 
Q 30.421875 42.28125 30.421875 31.390625 
Q 30.421875 20.453125 26.78125 9.375 
Q 23.140625 -1.703125 15.828125 -13.1875 
L 8.015625 -13.1875 
Q 14.5 -2 17.703125 9.0625 
Q 20.90625 20.125 20.90625 31.390625 
Q 20.90625 42.671875 17.703125 53.65625 
Q 14.5 64.65625 8.015625 75.875 
z
" id="DejaVuSans-41"/>
     </defs>
     <g transform="translate(507.804688 83.116562)scale(0.1 -0.1)">
      <use xlink:href="#DejaVuSans-71"/>
      <use x="77.490234" xlink:href="#DejaVuSans-114"/>
      <use x="118.572266" xlink:href="#DejaVuSans-111"/>
      <use x="179.753906" xlink:href="#DejaVuSans-117"/>
      <use x="243.132812" xlink:href="#DejaVuSans-110"/>
      <use x="306.511719" xlink:href="#DejaVuSans-100"/>
      <use x="369.988281" xlink:href="#DejaVuSans-84"/>
      <use x="430.853516" xlink:href="#DejaVuSans-114"/>
      <use x="471.966797" xlink:href="#DejaVuSans-117"/>
      <use x="535.345703" xlink:href="#DejaVuSans-116"/>
      <use x="574.554688" xlink:href="#DejaVuSans-104"/>
      <use x="637.933594" xlink:href="#DejaVuSans-40"/>
      <use x="676.947266" xlink:href="#DejaVuSans-115"/>
      <use x="729.046875" xlink:href="#DejaVuSans-109"/>
      <use x="826.458984" xlink:href="#DejaVuSans-111"/>
      <use x="887.640625" xlink:href="#DejaVuSans-111"/>
      <use x="948.822266" xlink:href="#DejaVuSans-116"/>
      <use x="988.03125" xlink:href="#DejaVuSans-104"/>
      <use x="1051.410156" xlink:href="#DejaVuSans-101"/>
      <use x="1112.933594" xlink:href="#DejaVuSans-100"/>
      <use x="1176.410156" xlink:href="#DejaVuSans-41"/>
     </g>
    </g>
    <g id="line2d_32">
     <path d="M 479.804688 94.294687 
L 499.804688 94.294687 
" style="fill:none;stroke:#008000;stroke-linecap:square;stroke-width:1.5;"/>
    </g>
    <g id="line2d_33"/>
    <g id="text_17">
     <!-- LSTM-72 Prediction -->
     <defs>
      <path d="M 9.8125 72.90625 
L 19.671875 72.90625 
L 19.671875 8.296875 
L 55.171875 8.296875 
L 55.171875 0 
L 9.8125 0 
z
" id="DejaVuSans-76"/>
      <path d="M 53.515625 70.515625 
L 53.515625 60.890625 
Q 47.90625 63.578125 42.921875 64.890625 
Q 37.9375 66.21875 33.296875 66.21875 
Q 25.25 66.21875 20.875 63.09375 
Q 16.5 59.96875 16.5 54.203125 
Q 16.5 49.359375 19.40625 46.890625 
Q 22.3125 44.4375 30.421875 42.921875 
L 36.375 41.703125 
Q 47.40625 39.59375 52.65625 34.296875 
Q 57.90625 29 57.90625 20.125 
Q 57.90625 9.515625 50.796875 4.046875 
Q 43.703125 -1.421875 29.984375 -1.421875 
Q 24.8125 -1.421875 18.96875 -0.25 
Q 13.140625 0.921875 6.890625 3.21875 
L 6.890625 13.375 
Q 12.890625 10.015625 18.65625 8.296875 
Q 24.421875 6.59375 29.984375 6.59375 
Q 38.421875 6.59375 43.015625 9.90625 
Q 47.609375 13.234375 47.609375 19.390625 
Q 47.609375 24.75 44.3125 27.78125 
Q 41.015625 30.8125 33.5 32.328125 
L 27.484375 33.5 
Q 16.453125 35.6875 11.515625 40.375 
Q 6.59375 45.0625 6.59375 53.421875 
Q 6.59375 63.09375 13.40625 68.65625 
Q 20.21875 74.21875 32.171875 74.21875 
Q 37.3125 74.21875 42.625 73.28125 
Q 47.953125 72.359375 53.515625 70.515625 
z
" id="DejaVuSans-83"/>
      <path d="M 9.8125 72.90625 
L 24.515625 72.90625 
L 43.109375 23.296875 
L 61.8125 72.90625 
L 76.515625 72.90625 
L 76.515625 0 
L 66.890625 0 
L 66.890625 64.015625 
L 48.09375 14.015625 
L 38.1875 14.015625 
L 19.390625 64.015625 
L 19.390625 0 
L 9.8125 0 
z
" id="DejaVuSans-77"/>
     </defs>
     <g transform="translate(507.804688 97.794687)scale(0.1 -0.1)">
      <use xlink:href="#DejaVuSans-76"/>
      <use x="55.712891" xlink:href="#DejaVuSans-83"/>
      <use x="119.189453" xlink:href="#DejaVuSans-84"/>
      <use x="180.273438" xlink:href="#DejaVuSans-77"/>
      <use x="266.552734" xlink:href="#DejaVuSans-45"/>
      <use x="302.636719" xlink:href="#DejaVuSans-55"/>
      <use x="366.259766" xlink:href="#DejaVuSans-50"/>
      <use x="429.882812" xlink:href="#DejaVuSans-32"/>
      <use x="461.669922" xlink:href="#DejaVuSans-80"/>
      <use x="521.957031" xlink:href="#DejaVuSans-114"/>
      <use x="563.039062" xlink:href="#DejaVuSans-101"/>
      <use x="624.5625" xlink:href="#DejaVuSans-100"/>
      <use x="688.039062" xlink:href="#DejaVuSans-105"/>
      <use x="715.822266" xlink:href="#DejaVuSans-99"/>
      <use x="770.802734" xlink:href="#DejaVuSans-116"/>
      <use x="810.011719" xlink:href="#DejaVuSans-105"/>
      <use x="837.794922" xlink:href="#DejaVuSans-111"/>
      <use x="898.976562" xlink:href="#DejaVuSans-110"/>
     </g>
    </g>
    <g id="line2d_34">
     <path d="M 479.804688 108.972812 
L 499.804688 108.972812 
" style="fill:none;stroke:#ffa500;stroke-linecap:square;stroke-width:1.5;"/>
    </g>
    <g id="line2d_35"/>
    <g id="text_18">
     <!-- GRU-72 Prediction -->
     <defs>
      <path d="M 44.390625 34.1875 
Q 47.5625 33.109375 50.5625 29.59375 
Q 53.5625 26.078125 56.59375 19.921875 
L 66.609375 0 
L 56 0 
L 46.6875 18.703125 
Q 43.0625 26.03125 39.671875 28.421875 
Q 36.28125 30.8125 30.421875 30.8125 
L 19.671875 30.8125 
L 19.671875 0 
L 9.8125 0 
L 9.8125 72.90625 
L 32.078125 72.90625 
Q 44.578125 72.90625 50.734375 67.671875 
Q 56.890625 62.453125 56.890625 51.90625 
Q 56.890625 45.015625 53.6875 40.46875 
Q 50.484375 35.9375 44.390625 34.1875 
z
M 19.671875 64.796875 
L 19.671875 38.921875 
L 32.078125 38.921875 
Q 39.203125 38.921875 42.84375 42.21875 
Q 46.484375 45.515625 46.484375 51.90625 
Q 46.484375 58.296875 42.84375 61.546875 
Q 39.203125 64.796875 32.078125 64.796875 
z
" id="DejaVuSans-82"/>
      <path d="M 8.6875 72.90625 
L 18.609375 72.90625 
L 18.609375 28.609375 
Q 18.609375 16.890625 22.84375 11.734375 
Q 27.09375 6.59375 36.625 6.59375 
Q 46.09375 6.59375 50.34375 11.734375 
Q 54.59375 16.890625 54.59375 28.609375 
L 54.59375 72.90625 
L 64.5 72.90625 
L 64.5 27.390625 
Q 64.5 13.140625 57.4375 5.859375 
Q 50.390625 -1.421875 36.625 -1.421875 
Q 22.796875 -1.421875 15.734375 5.859375 
Q 8.6875 13.140625 8.6875 27.390625 
z
" id="DejaVuSans-85"/>
     </defs>
     <g transform="translate(507.804688 112.472812)scale(0.1 -0.1)">
      <use xlink:href="#DejaVuSans-71"/>
      <use x="77.490234" xlink:href="#DejaVuSans-82"/>
      <use x="146.972656" xlink:href="#DejaVuSans-85"/>
      <use x="220.166016" xlink:href="#DejaVuSans-45"/>
      <use x="256.25" xlink:href="#DejaVuSans-55"/>
      <use x="319.873047" xlink:href="#DejaVuSans-50"/>
      <use x="383.496094" xlink:href="#DejaVuSans-32"/>
      <use x="415.283203" xlink:href="#DejaVuSans-80"/>
      <use x="475.570312" xlink:href="#DejaVuSans-114"/>
      <use x="516.652344" xlink:href="#DejaVuSans-101"/>
      <use x="578.175781" xlink:href="#DejaVuSans-100"/>
      <use x="641.652344" xlink:href="#DejaVuSans-105"/>
      <use x="669.435547" xlink:href="#DejaVuSans-99"/>
      <use x="724.416016" xlink:href="#DejaVuSans-116"/>
      <use x="763.625" xlink:href="#DejaVuSans-105"/>
      <use x="791.408203" xlink:href="#DejaVuSans-111"/>
      <use x="852.589844" xlink:href="#DejaVuSans-110"/>
     </g>
    </g>
    <g id="line2d_36">
     <path d="M 479.804688 123.650937 
L 499.804688 123.650937 
" style="fill:none;stroke:#800080;stroke-linecap:square;stroke-width:1.5;"/>
    </g>
    <g id="line2d_37"/>
    <g id="text_19">
     <!-- RNN-72 Prediction -->
     <defs>
      <path d="M 9.8125 72.90625 
L 23.09375 72.90625 
L 55.421875 11.921875 
L 55.421875 72.90625 
L 64.984375 72.90625 
L 64.984375 0 
L 51.703125 0 
L 19.390625 60.984375 
L 19.390625 0 
L 9.8125 0 
z
" id="DejaVuSans-78"/>
     </defs>
     <g transform="translate(507.804688 127.150937)scale(0.1 -0.1)">
      <use xlink:href="#DejaVuSans-82"/>
      <use x="69.482422" xlink:href="#DejaVuSans-78"/>
      <use x="144.287109" xlink:href="#DejaVuSans-78"/>
      <use x="219.091797" xlink:href="#DejaVuSans-45"/>
      <use x="255.175781" xlink:href="#DejaVuSans-55"/>
      <use x="318.798828" xlink:href="#DejaVuSans-50"/>
      <use x="382.421875" xlink:href="#DejaVuSans-32"/>
      <use x="414.208984" xlink:href="#DejaVuSans-80"/>
      <use x="474.496094" xlink:href="#DejaVuSans-114"/>
      <use x="515.578125" xlink:href="#DejaVuSans-101"/>
      <use x="577.101562" xlink:href="#DejaVuSans-100"/>
      <use x="640.578125" xlink:href="#DejaVuSans-105"/>
      <use x="668.361328" xlink:href="#DejaVuSans-99"/>
      <use x="723.341797" xlink:href="#DejaVuSans-116"/>
      <use x="762.550781" xlink:href="#DejaVuSans-105"/>
      <use x="790.333984" xlink:href="#DejaVuSans-111"/>
      <use x="851.515625" xlink:href="#DejaVuSans-110"/>
     </g>
    </g>
   </g>
  </g>
 </g>
 <defs>
  <clipPath id="pf034f9a320">
   <rect height="332.64" width="558" x="90" y="51.84"/>
  </clipPath>
 </defs>
</svg>
