<?xml version="1.0" encoding="utf-8" standalone="no"?>
<!DOCTYPE svg PUBLIC "-//W3C//DTD SVG 1.1//EN"
  "http://www.w3.org/Graphics/SVG/1.1/DTD/svg11.dtd">
<!-- Created with matplotlib (https://matplotlib.org/) -->
<svg height="432pt" version="1.1" viewBox="0 0 720 432" width="720pt" xmlns="http://www.w3.org/2000/svg" xmlns:xlink="http://www.w3.org/1999/xlink">
 <defs>
  <style type="text/css">
*{stroke-linecap:butt;stroke-linejoin:round;}
  </style>
 </defs>
 <g id="figure_1">
  <g id="patch_1">
   <path d="M 0 432 
L 720 432 
L 720 0 
L 0 0 
z
" style="fill:#ffffff;"/>
  </g>
  <g id="axes_1">
   <g id="patch_2">
    <path d="M 90 384.48 
L 648 384.48 
L 648 51.84 
L 90 51.84 
z
" style="fill:#ffffff;"/>
   </g>
   <g id="matplotlib.axis_1">
    <g id="xtick_1">
     <g id="line2d_1">
      <path clip-path="url(#pb5eaeb335e)" d="M 164.4 384.48 
L 164.4 51.84 
" style="fill:none;stroke:#b0b0b0;stroke-linecap:square;stroke-width:0.8;"/>
     </g>
     <g id="line2d_2">
      <defs>
       <path d="M 0 0 
L 0 3.5 
" id="mea8dfee8e2" style="stroke:#000000;stroke-width:0.8;"/>
      </defs>
      <g>
       <use style="stroke:#000000;stroke-width:0.8;" x="164.4" xlink:href="#mea8dfee8e2" y="384.48"/>
      </g>
     </g>
     <g id="text_1">
      <!-- 110 -->
      <defs>
       <path d="M 12.40625 8.296875 
L 28.515625 8.296875 
L 28.515625 63.921875 
L 10.984375 60.40625 
L 10.984375 69.390625 
L 28.421875 72.90625 
L 38.28125 72.90625 
L 38.28125 8.296875 
L 54.390625 8.296875 
L 54.390625 0 
L 12.40625 0 
z
" id="DejaVuSans-49"/>
       <path d="M 31.78125 66.40625 
Q 24.171875 66.40625 20.328125 58.90625 
Q 16.5 51.421875 16.5 36.375 
Q 16.5 21.390625 20.328125 13.890625 
Q 24.171875 6.390625 31.78125 6.390625 
Q 39.453125 6.390625 43.28125 13.890625 
Q 47.125 21.390625 47.125 36.375 
Q 47.125 51.421875 43.28125 58.90625 
Q 39.453125 66.40625 31.78125 66.40625 
z
M 31.78125 74.21875 
Q 44.046875 74.21875 50.515625 64.515625 
Q 56.984375 54.828125 56.984375 36.375 
Q 56.984375 17.96875 50.515625 8.265625 
Q 44.046875 -1.421875 31.78125 -1.421875 
Q 19.53125 -1.421875 13.0625 8.265625 
Q 6.59375 17.96875 6.59375 36.375 
Q 6.59375 54.828125 13.0625 64.515625 
Q 19.53125 74.21875 31.78125 74.21875 
z
" id="DejaVuSans-48"/>
      </defs>
      <g transform="translate(154.85625 399.078438)scale(0.1 -0.1)">
       <use xlink:href="#DejaVuSans-49"/>
       <use x="63.623047" xlink:href="#DejaVuSans-49"/>
       <use x="127.246094" xlink:href="#DejaVuSans-48"/>
      </g>
     </g>
    </g>
    <g id="xtick_2">
     <g id="line2d_3">
      <path clip-path="url(#pb5eaeb335e)" d="M 257.4 384.48 
L 257.4 51.84 
" style="fill:none;stroke:#b0b0b0;stroke-linecap:square;stroke-width:0.8;"/>
     </g>
     <g id="line2d_4">
      <g>
       <use style="stroke:#000000;stroke-width:0.8;" x="257.4" xlink:href="#mea8dfee8e2" y="384.48"/>
      </g>
     </g>
     <g id="text_2">
      <!-- 115 -->
      <defs>
       <path d="M 10.796875 72.90625 
L 49.515625 72.90625 
L 49.515625 64.59375 
L 19.828125 64.59375 
L 19.828125 46.734375 
Q 21.96875 47.46875 24.109375 47.828125 
Q 26.265625 48.1875 28.421875 48.1875 
Q 40.625 48.1875 47.75 41.5 
Q 54.890625 34.8125 54.890625 23.390625 
Q 54.890625 11.625 47.5625 5.09375 
Q 40.234375 -1.421875 26.90625 -1.421875 
Q 22.3125 -1.421875 17.546875 -0.640625 
Q 12.796875 0.140625 7.71875 1.703125 
L 7.71875 11.625 
Q 12.109375 9.234375 16.796875 8.0625 
Q 21.484375 6.890625 26.703125 6.890625 
Q 35.15625 6.890625 40.078125 11.328125 
Q 45.015625 15.765625 45.015625 23.390625 
Q 45.015625 31 40.078125 35.4375 
Q 35.15625 39.890625 26.703125 39.890625 
Q 22.75 39.890625 18.8125 39.015625 
Q 14.890625 38.140625 10.796875 36.28125 
z
" id="DejaVuSans-53"/>
      </defs>
      <g transform="translate(247.85625 399.078438)scale(0.1 -0.1)">
       <use xlink:href="#DejaVuSans-49"/>
       <use x="63.623047" xlink:href="#DejaVuSans-49"/>
       <use x="127.246094" xlink:href="#DejaVuSans-53"/>
      </g>
     </g>
    </g>
    <g id="xtick_3">
     <g id="line2d_5">
      <path clip-path="url(#pb5eaeb335e)" d="M 350.4 384.48 
L 350.4 51.84 
" style="fill:none;stroke:#b0b0b0;stroke-linecap:square;stroke-width:0.8;"/>
     </g>
     <g id="line2d_6">
      <g>
       <use style="stroke:#000000;stroke-width:0.8;" x="350.4" xlink:href="#mea8dfee8e2" y="384.48"/>
      </g>
     </g>
     <g id="text_3">
      <!-- 120 -->
      <defs>
       <path d="M 19.1875 8.296875 
L 53.609375 8.296875 
L 53.609375 0 
L 7.328125 0 
L 7.328125 8.296875 
Q 12.9375 14.109375 22.625 23.890625 
Q 32.328125 33.6875 34.8125 36.53125 
Q 39.546875 41.84375 41.421875 45.53125 
Q 43.3125 49.21875 43.3125 52.78125 
Q 43.3125 58.59375 39.234375 62.25 
Q 35.15625 65.921875 28.609375 65.921875 
Q 23.96875 65.921875 18.8125 64.3125 
Q 13.671875 62.703125 7.8125 59.421875 
L 7.8125 69.390625 
Q 13.765625 71.78125 18.9375 73 
Q 24.125 74.21875 28.421875 74.21875 
Q 39.75 74.21875 46.484375 68.546875 
Q 53.21875 62.890625 53.21875 53.421875 
Q 53.21875 48.921875 51.53125 44.890625 
Q 49.859375 40.875 45.40625 35.40625 
Q 44.1875 33.984375 37.640625 27.21875 
Q 31.109375 20.453125 19.1875 8.296875 
z
" id="DejaVuSans-50"/>
      </defs>
      <g transform="translate(340.85625 399.078438)scale(0.1 -0.1)">
       <use xlink:href="#DejaVuSans-49"/>
       <use x="63.623047" xlink:href="#DejaVuSans-50"/>
       <use x="127.246094" xlink:href="#DejaVuSans-48"/>
      </g>
     </g>
    </g>
    <g id="xtick_4">
     <g id="line2d_7">
      <path clip-path="url(#pb5eaeb335e)" d="M 443.4 384.48 
L 443.4 51.84 
" style="fill:none;stroke:#b0b0b0;stroke-linecap:square;stroke-width:0.8;"/>
     </g>
     <g id="line2d_8">
      <g>
       <use style="stroke:#000000;stroke-width:0.8;" x="443.4" xlink:href="#mea8dfee8e2" y="384.48"/>
      </g>
     </g>
     <g id="text_4">
      <!-- 125 -->
      <g transform="translate(433.85625 399.078438)scale(0.1 -0.1)">
       <use xlink:href="#DejaVuSans-49"/>
       <use x="63.623047" xlink:href="#DejaVuSans-50"/>
       <use x="127.246094" xlink:href="#DejaVuSans-53"/>
      </g>
     </g>
    </g>
    <g id="xtick_5">
     <g id="line2d_9">
      <path clip-path="url(#pb5eaeb335e)" d="M 536.4 384.48 
L 536.4 51.84 
" style="fill:none;stroke:#b0b0b0;stroke-linecap:square;stroke-width:0.8;"/>
     </g>
     <g id="line2d_10">
      <g>
       <use style="stroke:#000000;stroke-width:0.8;" x="536.4" xlink:href="#mea8dfee8e2" y="384.48"/>
      </g>
     </g>
     <g id="text_5">
      <!-- 130 -->
      <defs>
       <path d="M 40.578125 39.3125 
Q 47.65625 37.796875 51.625 33 
Q 55.609375 28.21875 55.609375 21.1875 
Q 55.609375 10.40625 48.1875 4.484375 
Q 40.765625 -1.421875 27.09375 -1.421875 
Q 22.515625 -1.421875 17.65625 -0.515625 
Q 12.796875 0.390625 7.625 2.203125 
L 7.625 11.71875 
Q 11.71875 9.328125 16.59375 8.109375 
Q 21.484375 6.890625 26.8125 6.890625 
Q 36.078125 6.890625 40.9375 10.546875 
Q 45.796875 14.203125 45.796875 21.1875 
Q 45.796875 27.640625 41.28125 31.265625 
Q 36.765625 34.90625 28.71875 34.90625 
L 20.21875 34.90625 
L 20.21875 43.015625 
L 29.109375 43.015625 
Q 36.375 43.015625 40.234375 45.921875 
Q 44.09375 48.828125 44.09375 54.296875 
Q 44.09375 59.90625 40.109375 62.90625 
Q 36.140625 65.921875 28.71875 65.921875 
Q 24.65625 65.921875 20.015625 65.03125 
Q 15.375 64.15625 9.8125 62.3125 
L 9.8125 71.09375 
Q 15.4375 72.65625 20.34375 73.4375 
Q 25.25 74.21875 29.59375 74.21875 
Q 40.828125 74.21875 47.359375 69.109375 
Q 53.90625 64.015625 53.90625 55.328125 
Q 53.90625 49.265625 50.4375 45.09375 
Q 46.96875 40.921875 40.578125 39.3125 
z
" id="DejaVuSans-51"/>
      </defs>
      <g transform="translate(526.85625 399.078438)scale(0.1 -0.1)">
       <use xlink:href="#DejaVuSans-49"/>
       <use x="63.623047" xlink:href="#DejaVuSans-51"/>
       <use x="127.246094" xlink:href="#DejaVuSans-48"/>
      </g>
     </g>
    </g>
    <g id="xtick_6">
     <g id="line2d_11">
      <path clip-path="url(#pb5eaeb335e)" d="M 629.4 384.48 
L 629.4 51.84 
" style="fill:none;stroke:#b0b0b0;stroke-linecap:square;stroke-width:0.8;"/>
     </g>
     <g id="line2d_12">
      <g>
       <use style="stroke:#000000;stroke-width:0.8;" x="629.4" xlink:href="#mea8dfee8e2" y="384.48"/>
      </g>
     </g>
     <g id="text_6">
      <!-- 135 -->
      <g transform="translate(619.85625 399.078438)scale(0.1 -0.1)">
       <use xlink:href="#DejaVuSans-49"/>
       <use x="63.623047" xlink:href="#DejaVuSans-51"/>
       <use x="127.246094" xlink:href="#DejaVuSans-53"/>
      </g>
     </g>
    </g>
    <g id="text_7">
     <!-- Time /ms -->
     <defs>
      <path d="M -0.296875 72.90625 
L 61.375 72.90625 
L 61.375 64.59375 
L 35.5 64.59375 
L 35.5 0 
L 25.59375 0 
L 25.59375 64.59375 
L -0.296875 64.59375 
z
" id="DejaVuSans-84"/>
      <path d="M 9.421875 54.6875 
L 18.40625 54.6875 
L 18.40625 0 
L 9.421875 0 
z
M 9.421875 75.984375 
L 18.40625 75.984375 
L 18.40625 64.59375 
L 9.421875 64.59375 
z
" id="DejaVuSans-105"/>
      <path d="M 52 44.1875 
Q 55.375 50.25 60.0625 53.125 
Q 64.75 56 71.09375 56 
Q 79.640625 56 84.28125 50.015625 
Q 88.921875 44.046875 88.921875 33.015625 
L 88.921875 0 
L 79.890625 0 
L 79.890625 32.71875 
Q 79.890625 40.578125 77.09375 44.375 
Q 74.3125 48.1875 68.609375 48.1875 
Q 61.625 48.1875 57.5625 43.546875 
Q 53.515625 38.921875 53.515625 30.90625 
L 53.515625 0 
L 44.484375 0 
L 44.484375 32.71875 
Q 44.484375 40.625 41.703125 44.40625 
Q 38.921875 48.1875 33.109375 48.1875 
Q 26.21875 48.1875 22.15625 43.53125 
Q 18.109375 38.875 18.109375 30.90625 
L 18.109375 0 
L 9.078125 0 
L 9.078125 54.6875 
L 18.109375 54.6875 
L 18.109375 46.1875 
Q 21.1875 51.21875 25.484375 53.609375 
Q 29.78125 56 35.6875 56 
Q 41.65625 56 45.828125 52.96875 
Q 50 49.953125 52 44.1875 
z
" id="DejaVuSans-109"/>
      <path d="M 56.203125 29.59375 
L 56.203125 25.203125 
L 14.890625 25.203125 
Q 15.484375 15.921875 20.484375 11.0625 
Q 25.484375 6.203125 34.421875 6.203125 
Q 39.59375 6.203125 44.453125 7.46875 
Q 49.3125 8.734375 54.109375 11.28125 
L 54.109375 2.78125 
Q 49.265625 0.734375 44.1875 -0.34375 
Q 39.109375 -1.421875 33.890625 -1.421875 
Q 20.796875 -1.421875 13.15625 6.1875 
Q 5.515625 13.8125 5.515625 26.8125 
Q 5.515625 40.234375 12.765625 48.109375 
Q 20.015625 56 32.328125 56 
Q 43.359375 56 49.78125 48.890625 
Q 56.203125 41.796875 56.203125 29.59375 
z
M 47.21875 32.234375 
Q 47.125 39.59375 43.09375 43.984375 
Q 39.0625 48.390625 32.421875 48.390625 
Q 24.90625 48.390625 20.390625 44.140625 
Q 15.875 39.890625 15.1875 32.171875 
z
" id="DejaVuSans-101"/>
      <path id="DejaVuSans-32"/>
      <path d="M 25.390625 72.90625 
L 33.6875 72.90625 
L 8.296875 -9.28125 
L 0 -9.28125 
z
" id="DejaVuSans-47"/>
      <path d="M 44.28125 53.078125 
L 44.28125 44.578125 
Q 40.484375 46.53125 36.375 47.5 
Q 32.28125 48.484375 27.875 48.484375 
Q 21.1875 48.484375 17.84375 46.4375 
Q 14.5 44.390625 14.5 40.28125 
Q 14.5 37.15625 16.890625 35.375 
Q 19.28125 33.59375 26.515625 31.984375 
L 29.59375 31.296875 
Q 39.15625 29.25 43.1875 25.515625 
Q 47.21875 21.78125 47.21875 15.09375 
Q 47.21875 7.46875 41.1875 3.015625 
Q 35.15625 -1.421875 24.609375 -1.421875 
Q 20.21875 -1.421875 15.453125 -0.5625 
Q 10.6875 0.296875 5.421875 2 
L 5.421875 11.28125 
Q 10.40625 8.6875 15.234375 7.390625 
Q 20.0625 6.109375 24.8125 6.109375 
Q 31.15625 6.109375 34.5625 8.28125 
Q 37.984375 10.453125 37.984375 14.40625 
Q 37.984375 18.0625 35.515625 20.015625 
Q 33.0625 21.96875 24.703125 23.78125 
L 21.578125 24.515625 
Q 13.234375 26.265625 9.515625 29.90625 
Q 5.8125 33.546875 5.8125 39.890625 
Q 5.8125 47.609375 11.28125 51.796875 
Q 16.75 56 26.8125 56 
Q 31.78125 56 36.171875 55.265625 
Q 40.578125 54.546875 44.28125 53.078125 
z
" id="DejaVuSans-115"/>
     </defs>
     <g transform="translate(345.864062 412.756563)scale(0.1 -0.1)">
      <use xlink:href="#DejaVuSans-84"/>
      <use x="61.037109" xlink:href="#DejaVuSans-105"/>
      <use x="88.820312" xlink:href="#DejaVuSans-109"/>
      <use x="186.232422" xlink:href="#DejaVuSans-101"/>
      <use x="247.755859" xlink:href="#DejaVuSans-32"/>
      <use x="279.542969" xlink:href="#DejaVuSans-47"/>
      <use x="313.234375" xlink:href="#DejaVuSans-109"/>
      <use x="410.646484" xlink:href="#DejaVuSans-115"/>
     </g>
    </g>
   </g>
   <g id="matplotlib.axis_2">
    <g id="ytick_1">
     <g id="line2d_13">
      <path clip-path="url(#pb5eaeb335e)" d="M 90 357.388872 
L 648 357.388872 
" style="fill:none;stroke:#b0b0b0;stroke-linecap:square;stroke-width:0.8;"/>
     </g>
     <g id="line2d_14">
      <defs>
       <path d="M 0 0 
L -3.5 0 
" id="m414003ab2a" style="stroke:#000000;stroke-width:0.8;"/>
      </defs>
      <g>
       <use style="stroke:#000000;stroke-width:0.8;" x="90" xlink:href="#m414003ab2a" y="357.388872"/>
      </g>
     </g>
     <g id="text_8">
      <!-- 0 -->
      <g transform="translate(76.6375 361.18809)scale(0.1 -0.1)">
       <use xlink:href="#DejaVuSans-48"/>
      </g>
     </g>
    </g>
    <g id="ytick_2">
     <g id="line2d_15">
      <path clip-path="url(#pb5eaeb335e)" d="M 90 292.410751 
L 648 292.410751 
" style="fill:none;stroke:#b0b0b0;stroke-linecap:square;stroke-width:0.8;"/>
     </g>
     <g id="line2d_16">
      <g>
       <use style="stroke:#000000;stroke-width:0.8;" x="90" xlink:href="#m414003ab2a" y="292.410751"/>
      </g>
     </g>
     <g id="text_9">
      <!-- 2 -->
      <g transform="translate(76.6375 296.209969)scale(0.1 -0.1)">
       <use xlink:href="#DejaVuSans-50"/>
      </g>
     </g>
    </g>
    <g id="ytick_3">
     <g id="line2d_17">
      <path clip-path="url(#pb5eaeb335e)" d="M 90 227.43263 
L 648 227.43263 
" style="fill:none;stroke:#b0b0b0;stroke-linecap:square;stroke-width:0.8;"/>
     </g>
     <g id="line2d_18">
      <g>
       <use style="stroke:#000000;stroke-width:0.8;" x="90" xlink:href="#m414003ab2a" y="227.43263"/>
      </g>
     </g>
     <g id="text_10">
      <!-- 4 -->
      <defs>
       <path d="M 37.796875 64.3125 
L 12.890625 25.390625 
L 37.796875 25.390625 
z
M 35.203125 72.90625 
L 47.609375 72.90625 
L 47.609375 25.390625 
L 58.015625 25.390625 
L 58.015625 17.1875 
L 47.609375 17.1875 
L 47.609375 0 
L 37.796875 0 
L 37.796875 17.1875 
L 4.890625 17.1875 
L 4.890625 26.703125 
z
" id="DejaVuSans-52"/>
      </defs>
      <g transform="translate(76.6375 231.231848)scale(0.1 -0.1)">
       <use xlink:href="#DejaVuSans-52"/>
      </g>
     </g>
    </g>
    <g id="ytick_4">
     <g id="line2d_19">
      <path clip-path="url(#pb5eaeb335e)" d="M 90 162.454509 
L 648 162.454509 
" style="fill:none;stroke:#b0b0b0;stroke-linecap:square;stroke-width:0.8;"/>
     </g>
     <g id="line2d_20">
      <g>
       <use style="stroke:#000000;stroke-width:0.8;" x="90" xlink:href="#m414003ab2a" y="162.454509"/>
      </g>
     </g>
     <g id="text_11">
      <!-- 6 -->
      <defs>
       <path d="M 33.015625 40.375 
Q 26.375 40.375 22.484375 35.828125 
Q 18.609375 31.296875 18.609375 23.390625 
Q 18.609375 15.53125 22.484375 10.953125 
Q 26.375 6.390625 33.015625 6.390625 
Q 39.65625 6.390625 43.53125 10.953125 
Q 47.40625 15.53125 47.40625 23.390625 
Q 47.40625 31.296875 43.53125 35.828125 
Q 39.65625 40.375 33.015625 40.375 
z
M 52.59375 71.296875 
L 52.59375 62.3125 
Q 48.875 64.0625 45.09375 64.984375 
Q 41.3125 65.921875 37.59375 65.921875 
Q 27.828125 65.921875 22.671875 59.328125 
Q 17.53125 52.734375 16.796875 39.40625 
Q 19.671875 43.65625 24.015625 45.921875 
Q 28.375 48.1875 33.59375 48.1875 
Q 44.578125 48.1875 50.953125 41.515625 
Q 57.328125 34.859375 57.328125 23.390625 
Q 57.328125 12.15625 50.6875 5.359375 
Q 44.046875 -1.421875 33.015625 -1.421875 
Q 20.359375 -1.421875 13.671875 8.265625 
Q 6.984375 17.96875 6.984375 36.375 
Q 6.984375 53.65625 15.1875 63.9375 
Q 23.390625 74.21875 37.203125 74.21875 
Q 40.921875 74.21875 44.703125 73.484375 
Q 48.484375 72.75 52.59375 71.296875 
z
" id="DejaVuSans-54"/>
      </defs>
      <g transform="translate(76.6375 166.253727)scale(0.1 -0.1)">
       <use xlink:href="#DejaVuSans-54"/>
      </g>
     </g>
    </g>
    <g id="ytick_5">
     <g id="line2d_21">
      <path clip-path="url(#pb5eaeb335e)" d="M 90 97.476388 
L 648 97.476388 
" style="fill:none;stroke:#b0b0b0;stroke-linecap:square;stroke-width:0.8;"/>
     </g>
     <g id="line2d_22">
      <g>
       <use style="stroke:#000000;stroke-width:0.8;" x="90" xlink:href="#m414003ab2a" y="97.476388"/>
      </g>
     </g>
     <g id="text_12">
      <!-- 8 -->
      <defs>
       <path d="M 31.78125 34.625 
Q 24.75 34.625 20.71875 30.859375 
Q 16.703125 27.09375 16.703125 20.515625 
Q 16.703125 13.921875 20.71875 10.15625 
Q 24.75 6.390625 31.78125 6.390625 
Q 38.8125 6.390625 42.859375 10.171875 
Q 46.921875 13.96875 46.921875 20.515625 
Q 46.921875 27.09375 42.890625 30.859375 
Q 38.875 34.625 31.78125 34.625 
z
M 21.921875 38.8125 
Q 15.578125 40.375 12.03125 44.71875 
Q 8.5 49.078125 8.5 55.328125 
Q 8.5 64.0625 14.71875 69.140625 
Q 20.953125 74.21875 31.78125 74.21875 
Q 42.671875 74.21875 48.875 69.140625 
Q 55.078125 64.0625 55.078125 55.328125 
Q 55.078125 49.078125 51.53125 44.71875 
Q 48 40.375 41.703125 38.8125 
Q 48.828125 37.15625 52.796875 32.3125 
Q 56.78125 27.484375 56.78125 20.515625 
Q 56.78125 9.90625 50.3125 4.234375 
Q 43.84375 -1.421875 31.78125 -1.421875 
Q 19.734375 -1.421875 13.25 4.234375 
Q 6.78125 9.90625 6.78125 20.515625 
Q 6.78125 27.484375 10.78125 32.3125 
Q 14.796875 37.15625 21.921875 38.8125 
z
M 18.3125 54.390625 
Q 18.3125 48.734375 21.84375 45.5625 
Q 25.390625 42.390625 31.78125 42.390625 
Q 38.140625 42.390625 41.71875 45.5625 
Q 45.3125 48.734375 45.3125 54.390625 
Q 45.3125 60.0625 41.71875 63.234375 
Q 38.140625 66.40625 31.78125 66.40625 
Q 25.390625 66.40625 21.84375 63.234375 
Q 18.3125 60.0625 18.3125 54.390625 
z
" id="DejaVuSans-56"/>
      </defs>
      <g transform="translate(76.6375 101.275607)scale(0.1 -0.1)">
       <use xlink:href="#DejaVuSans-56"/>
      </g>
     </g>
    </g>
    <g id="text_13">
     <!-- Channel impulse response -->
     <defs>
      <path d="M 64.40625 67.28125 
L 64.40625 56.890625 
Q 59.421875 61.53125 53.78125 63.8125 
Q 48.140625 66.109375 41.796875 66.109375 
Q 29.296875 66.109375 22.65625 58.46875 
Q 16.015625 50.828125 16.015625 36.375 
Q 16.015625 21.96875 22.65625 14.328125 
Q 29.296875 6.6875 41.796875 6.6875 
Q 48.140625 6.6875 53.78125 8.984375 
Q 59.421875 11.28125 64.40625 15.921875 
L 64.40625 5.609375 
Q 59.234375 2.09375 53.4375 0.328125 
Q 47.65625 -1.421875 41.21875 -1.421875 
Q 24.65625 -1.421875 15.125 8.703125 
Q 5.609375 18.84375 5.609375 36.375 
Q 5.609375 53.953125 15.125 64.078125 
Q 24.65625 74.21875 41.21875 74.21875 
Q 47.75 74.21875 53.53125 72.484375 
Q 59.328125 70.75 64.40625 67.28125 
z
" id="DejaVuSans-67"/>
      <path d="M 54.890625 33.015625 
L 54.890625 0 
L 45.90625 0 
L 45.90625 32.71875 
Q 45.90625 40.484375 42.875 44.328125 
Q 39.84375 48.1875 33.796875 48.1875 
Q 26.515625 48.1875 22.3125 43.546875 
Q 18.109375 38.921875 18.109375 30.90625 
L 18.109375 0 
L 9.078125 0 
L 9.078125 75.984375 
L 18.109375 75.984375 
L 18.109375 46.1875 
Q 21.34375 51.125 25.703125 53.5625 
Q 30.078125 56 35.796875 56 
Q 45.21875 56 50.046875 50.171875 
Q 54.890625 44.34375 54.890625 33.015625 
z
" id="DejaVuSans-104"/>
      <path d="M 34.28125 27.484375 
Q 23.390625 27.484375 19.1875 25 
Q 14.984375 22.515625 14.984375 16.5 
Q 14.984375 11.71875 18.140625 8.90625 
Q 21.296875 6.109375 26.703125 6.109375 
Q 34.1875 6.109375 38.703125 11.40625 
Q 43.21875 16.703125 43.21875 25.484375 
L 43.21875 27.484375 
z
M 52.203125 31.203125 
L 52.203125 0 
L 43.21875 0 
L 43.21875 8.296875 
Q 40.140625 3.328125 35.546875 0.953125 
Q 30.953125 -1.421875 24.3125 -1.421875 
Q 15.921875 -1.421875 10.953125 3.296875 
Q 6 8.015625 6 15.921875 
Q 6 25.140625 12.171875 29.828125 
Q 18.359375 34.515625 30.609375 34.515625 
L 43.21875 34.515625 
L 43.21875 35.40625 
Q 43.21875 41.609375 39.140625 45 
Q 35.0625 48.390625 27.6875 48.390625 
Q 23 48.390625 18.546875 47.265625 
Q 14.109375 46.140625 10.015625 43.890625 
L 10.015625 52.203125 
Q 14.9375 54.109375 19.578125 55.046875 
Q 24.21875 56 28.609375 56 
Q 40.484375 56 46.34375 49.84375 
Q 52.203125 43.703125 52.203125 31.203125 
z
" id="DejaVuSans-97"/>
      <path d="M 54.890625 33.015625 
L 54.890625 0 
L 45.90625 0 
L 45.90625 32.71875 
Q 45.90625 40.484375 42.875 44.328125 
Q 39.84375 48.1875 33.796875 48.1875 
Q 26.515625 48.1875 22.3125 43.546875 
Q 18.109375 38.921875 18.109375 30.90625 
L 18.109375 0 
L 9.078125 0 
L 9.078125 54.6875 
L 18.109375 54.6875 
L 18.109375 46.1875 
Q 21.34375 51.125 25.703125 53.5625 
Q 30.078125 56 35.796875 56 
Q 45.21875 56 50.046875 50.171875 
Q 54.890625 44.34375 54.890625 33.015625 
z
" id="DejaVuSans-110"/>
      <path d="M 9.421875 75.984375 
L 18.40625 75.984375 
L 18.40625 0 
L 9.421875 0 
z
" id="DejaVuSans-108"/>
      <path d="M 18.109375 8.203125 
L 18.109375 -20.796875 
L 9.078125 -20.796875 
L 9.078125 54.6875 
L 18.109375 54.6875 
L 18.109375 46.390625 
Q 20.953125 51.265625 25.265625 53.625 
Q 29.59375 56 35.59375 56 
Q 45.5625 56 51.78125 48.09375 
Q 58.015625 40.1875 58.015625 27.296875 
Q 58.015625 14.40625 51.78125 6.484375 
Q 45.5625 -1.421875 35.59375 -1.421875 
Q 29.59375 -1.421875 25.265625 0.953125 
Q 20.953125 3.328125 18.109375 8.203125 
z
M 48.6875 27.296875 
Q 48.6875 37.203125 44.609375 42.84375 
Q 40.53125 48.484375 33.40625 48.484375 
Q 26.265625 48.484375 22.1875 42.84375 
Q 18.109375 37.203125 18.109375 27.296875 
Q 18.109375 17.390625 22.1875 11.75 
Q 26.265625 6.109375 33.40625 6.109375 
Q 40.53125 6.109375 44.609375 11.75 
Q 48.6875 17.390625 48.6875 27.296875 
z
" id="DejaVuSans-112"/>
      <path d="M 8.5 21.578125 
L 8.5 54.6875 
L 17.484375 54.6875 
L 17.484375 21.921875 
Q 17.484375 14.15625 20.5 10.265625 
Q 23.53125 6.390625 29.59375 6.390625 
Q 36.859375 6.390625 41.078125 11.03125 
Q 45.3125 15.671875 45.3125 23.6875 
L 45.3125 54.6875 
L 54.296875 54.6875 
L 54.296875 0 
L 45.3125 0 
L 45.3125 8.40625 
Q 42.046875 3.421875 37.71875 1 
Q 33.40625 -1.421875 27.6875 -1.421875 
Q 18.265625 -1.421875 13.375 4.4375 
Q 8.5 10.296875 8.5 21.578125 
z
M 31.109375 56 
z
" id="DejaVuSans-117"/>
      <path d="M 41.109375 46.296875 
Q 39.59375 47.171875 37.8125 47.578125 
Q 36.03125 48 33.890625 48 
Q 26.265625 48 22.1875 43.046875 
Q 18.109375 38.09375 18.109375 28.8125 
L 18.109375 0 
L 9.078125 0 
L 9.078125 54.6875 
L 18.109375 54.6875 
L 18.109375 46.1875 
Q 20.953125 51.171875 25.484375 53.578125 
Q 30.03125 56 36.53125 56 
Q 37.453125 56 38.578125 55.875 
Q 39.703125 55.765625 41.0625 55.515625 
z
" id="DejaVuSans-114"/>
      <path d="M 30.609375 48.390625 
Q 23.390625 48.390625 19.1875 42.75 
Q 14.984375 37.109375 14.984375 27.296875 
Q 14.984375 17.484375 19.15625 11.84375 
Q 23.34375 6.203125 30.609375 6.203125 
Q 37.796875 6.203125 41.984375 11.859375 
Q 46.1875 17.53125 46.1875 27.296875 
Q 46.1875 37.015625 41.984375 42.703125 
Q 37.796875 48.390625 30.609375 48.390625 
z
M 30.609375 56 
Q 42.328125 56 49.015625 48.375 
Q 55.71875 40.765625 55.71875 27.296875 
Q 55.71875 13.875 49.015625 6.21875 
Q 42.328125 -1.421875 30.609375 -1.421875 
Q 18.84375 -1.421875 12.171875 6.21875 
Q 5.515625 13.875 5.515625 27.296875 
Q 5.515625 40.765625 12.171875 48.375 
Q 18.84375 56 30.609375 56 
z
" id="DejaVuSans-111"/>
     </defs>
     <g transform="translate(70.557812 284.356875)rotate(-90)scale(0.1 -0.1)">
      <use xlink:href="#DejaVuSans-67"/>
      <use x="69.824219" xlink:href="#DejaVuSans-104"/>
      <use x="133.203125" xlink:href="#DejaVuSans-97"/>
      <use x="194.482422" xlink:href="#DejaVuSans-110"/>
      <use x="257.861328" xlink:href="#DejaVuSans-110"/>
      <use x="321.240234" xlink:href="#DejaVuSans-101"/>
      <use x="382.763672" xlink:href="#DejaVuSans-108"/>
      <use x="410.546875" xlink:href="#DejaVuSans-32"/>
      <use x="442.333984" xlink:href="#DejaVuSans-105"/>
      <use x="470.117188" xlink:href="#DejaVuSans-109"/>
      <use x="567.529297" xlink:href="#DejaVuSans-112"/>
      <use x="631.005859" xlink:href="#DejaVuSans-117"/>
      <use x="694.384766" xlink:href="#DejaVuSans-108"/>
      <use x="722.167969" xlink:href="#DejaVuSans-115"/>
      <use x="774.267578" xlink:href="#DejaVuSans-101"/>
      <use x="835.791016" xlink:href="#DejaVuSans-32"/>
      <use x="867.578125" xlink:href="#DejaVuSans-114"/>
      <use x="908.660156" xlink:href="#DejaVuSans-101"/>
      <use x="970.183594" xlink:href="#DejaVuSans-115"/>
      <use x="1022.283203" xlink:href="#DejaVuSans-112"/>
      <use x="1085.759766" xlink:href="#DejaVuSans-111"/>
      <use x="1146.941406" xlink:href="#DejaVuSans-110"/>
      <use x="1210.320312" xlink:href="#DejaVuSans-115"/>
      <use x="1262.419922" xlink:href="#DejaVuSans-101"/>
     </g>
    </g>
   </g>
   <g id="line2d_23">
    <path clip-path="url(#pb5eaeb335e)" d="M 88.8375 366.349807 
L 90 366.268623 
L 91.1625 365.813176 
L 95.8125 367.039069 
L 96.975 367.095995 
L 99.3 366.99968 
L 101.625 367.227517 
L 103.95 366.775437 
L 105.1125 367.03485 
L 107.4375 367.137126 
L 108.6 367.406166 
L 110.925 367.402636 
L 113.25 367.293112 
L 114.4125 367.493238 
L 115.575 367.55352 
L 116.7375 367.416048 
L 119.0625 367.440738 
L 120.225 367.363182 
L 122.55 367.517431 
L 124.875 367.756432 
L 128.3625 367.487175 
L 129.525 367.588576 
L 131.85 367.573049 
L 133.0125 367.7845 
L 134.175 367.787061 
L 135.3375 367.677384 
L 148.125 368.180728 
L 151.6125 368.177924 
L 152.775 368.055906 
L 153.9375 367.77501 
L 158.5875 368.192224 
L 160.9125 368.050406 
L 163.2375 368.135211 
L 169.05 367.995015 
L 170.2125 368.343313 
L 173.7 368.198385 
L 174.8625 368.231732 
L 178.35 368.045428 
L 181.8375 367.997199 
L 183 368.21739 
L 185.325 368.034235 
L 186.4875 367.725884 
L 187.65 351.031286 
L 188.8125 323.455965 
L 189.975 329.792875 
L 191.1375 348.74451 
L 192.3 359.14926 
L 193.4625 362.61077 
L 194.625 364.079413 
L 198.1125 363.339547 
L 199.275 344.502807 
L 200.4375 318.759305 
L 201.6 317.742248 
L 202.7625 321.29374 
L 203.925 322.723004 
L 205.0875 320.101732 
L 206.25 321.990194 
L 208.575 326.30722 
L 209.7375 326.963036 
L 210.9 328.635912 
L 213.225 329.604967 
L 214.3875 330.31098 
L 215.55 330.451389 
L 216.7125 332.901682 
L 217.875 331.671198 
L 219.0375 328.982328 
L 220.2 329.223295 
L 221.3625 329.835196 
L 222.525 329.895175 
L 224.85 330.666153 
L 226.0125 330.686287 
L 228.3375 331.101013 
L 230.6625 331.418103 
L 237.6375 332.144612 
L 238.8 332.393028 
L 239.9625 330.885756 
L 241.125 330.599433 
L 243.45 330.833505 
L 245.775 331.016357 
L 246.9375 331.200778 
L 248.1 331.100293 
L 249.2625 331.461138 
L 250.425 331.614939 
L 251.5875 331.587613 
L 252.75 331.818236 
L 253.9125 334.514184 
L 255.075 339.739673 
L 256.2375 340.33206 
L 257.4 341.557492 
L 258.5625 342.447111 
L 259.725 340.006063 
L 260.8875 338.030319 
L 262.05 334.806841 
L 263.2125 333.171096 
L 264.375 332.511435 
L 265.5375 335.470382 
L 266.7 336.266508 
L 267.8625 338.736543 
L 269.025 332.570922 
L 270.1875 341.913308 
L 271.35 346.398416 
L 273.675 348.250929 
L 274.8375 345.818986 
L 276 339.49404 
L 277.1625 347.881227 
L 278.325 344.32525 
L 279.4875 348.947125 
L 280.65 349.479854 
L 281.8125 347.671886 
L 282.975 343.484181 
L 284.1375 347.352916 
L 285.3 350.76489 
L 286.4625 351.751621 
L 287.625 349.266951 
L 288.7875 348.111613 
L 289.95 348.922483 
L 291.1125 345.485922 
L 292.275 344.886335 
L 293.4375 347.887465 
L 294.6 348.56056 
L 295.7625 351.775093 
L 296.925 351.859848 
L 298.0875 347.489598 
L 299.25 351.386281 
L 300.4125 352.301149 
L 301.575 348.874598 
L 302.7375 347.861391 
L 303.9 347.57086 
L 305.0625 346.662024 
L 307.3875 350.39583 
L 308.55 350.754703 
L 309.7125 348.541364 
L 312.0375 350.57317 
L 313.2 349.359907 
L 314.3625 347.138582 
L 315.525 349.611539 
L 316.6875 349.726299 
L 317.85 347.947113 
L 319.0125 347.299188 
L 320.175 346.913555 
L 321.3375 347.410256 
L 322.5 350.857417 
L 323.6625 351.590514 
L 324.825 350.948161 
L 325.9875 351.390067 
L 327.15 348.660275 
L 328.3125 350.443018 
L 330.6375 352.068197 
L 331.8 352.508786 
L 332.9625 351.7076 
L 334.125 351.856286 
L 335.2875 352.802808 
L 336.45 353.468434 
L 337.6125 353.341352 
L 338.775 353.55962 
L 339.9375 353.474328 
L 341.1 353.235242 
L 342.2625 353.29104 
L 344.5875 353.043584 
L 346.9125 354.826987 
L 348.075 355.191671 
L 349.2375 354.897069 
L 351.5625 355.882372 
L 352.725 355.851946 
L 353.8875 356.070739 
L 356.2125 357.51429 
L 357.375 357.175819 
L 358.5375 357.143048 
L 359.7 357.644897 
L 360.8625 357.683431 
L 362.025 357.429791 
L 363.1875 357.41625 
L 364.35 357.806958 
L 366.675 358.114655 
L 367.8375 358.086405 
L 369 357.906602 
L 370.1625 357.427739 
L 371.325 358.091587 
L 372.4875 358.463812 
L 373.65 358.017773 
L 377.1375 358.42899 
L 378.3 358.322514 
L 379.4625 358.469496 
L 382.95 358.229041 
L 384.1125 357.765319 
L 386.4375 358.613478 
L 389.925 358.685096 
L 391.0875 358.611041 
L 392.25 358.658008 
L 394.575 358.475539 
L 395.7375 358.891225 
L 396.9 358.61262 
L 398.0625 358.80376 
L 399.225 358.774816 
L 400.3875 358.387338 
L 401.55 358.790128 
L 402.7125 358.883595 
L 403.875 358.652928 
L 405.0375 358.613049 
L 406.2 358.780184 
L 407.3625 358.736934 
L 408.525 358.551048 
L 409.6875 358.104049 
L 412.0125 358.899228 
L 413.175 358.896728 
L 414.3375 359.145155 
L 416.6625 358.959121 
L 417.825 359.000418 
L 421.3125 358.883114 
L 427.125 358.923658 
L 428.2875 358.684494 
L 429.45 359.207695 
L 430.6125 359.270194 
L 432.9375 359.107249 
L 434.1 358.860931 
L 435.2625 361.128212 
L 436.425 361.312754 
L 439.9125 361.354709 
L 443.4 361.668042 
L 446.8875 361.291116 
L 448.05 361.164532 
L 450.375 361.291841 
L 451.5375 361.24466 
L 452.7 361.350298 
L 457.35 361.127418 
L 459.675 361.08425 
L 460.8375 360.804989 
L 462 360.986412 
L 463.1625 361.359531 
L 464.325 361.927509 
L 465.4875 361.81771 
L 466.65 362.063353 
L 468.975 362.138992 
L 472.4625 361.85139 
L 474.7875 362.196589 
L 477.1125 362.167203 
L 478.275 361.747131 
L 480.6 361.748066 
L 481.7625 361.561883 
L 484.0875 361.963412 
L 488.7375 361.981455 
L 489.9 361.896251 
L 491.0625 362.027988 
L 493.3875 362.020124 
L 495.7125 362.037809 
L 500.3625 362.077502 
L 501.525 362.465239 
L 503.85 362.096706 
L 505.0125 362.306805 
L 507.3375 362.335538 
L 508.5 362.238815 
L 509.6625 362.27403 
L 511.9875 362.004255 
L 514.3125 361.97183 
L 515.475 361.598356 
L 516.6375 361.526779 
L 517.8 361.693868 
L 518.9625 362.007445 
L 522.45 361.636587 
L 528.2625 362.143442 
L 529.425 362.034733 
L 531.75 362.203911 
L 532.9125 362.193641 
L 534.075 362.370357 
L 535.2375 362.414138 
L 536.4 362.22361 
L 537.5625 362.306704 
L 538.725 362.237474 
L 539.8875 362.503872 
L 541.05 362.56812 
L 542.2125 362.363124 
L 546.8625 362.59387 
L 548.025 362.177231 
L 549.1875 362.412495 
L 550.35 362.439849 
L 552.675 362.161579 
L 556.1625 362.33713 
L 558.4875 362.484058 
L 560.8125 362.544176 
L 563.1375 362.466813 
L 565.4625 362.285117 
L 566.625 362.59377 
L 572.4375 362.96476 
L 574.7625 362.98903 
L 575.925 363.079064 
L 577.0875 363.314588 
L 579.4125 363.387014 
L 581.7375 363.113495 
L 582.9 363.052886 
L 585.225 363.128127 
L 587.55 362.807856 
L 588.7125 362.879814 
L 591.0375 362.576727 
L 593.3625 362.603724 
L 594.525 362.554794 
L 595.6875 362.710657 
L 598.0125 362.771044 
L 600.3375 362.3494 
L 601.5 362.363124 
L 603.825 362.651841 
L 604.9875 362.65913 
L 606.15 362.808409 
L 609.6375 362.688462 
L 611.9625 362.446748 
L 615.45 362.139984 
L 616.6125 362.340088 
L 620.1 362.536973 
L 621.2625 362.468923 
L 622.425 362.19384 
L 623.5875 362.298474 
L 625.9125 362.065342 
L 627.075 362.08046 
L 629.4 361.566238 
L 629.4 361.566238 
" style="fill:none;stroke:#ff0000;stroke-linecap:square;stroke-width:1.5;"/>
   </g>
   <g id="line2d_24">
    <path clip-path="url(#pb5eaeb335e)" d="M 88.8375 367.5746 
L 90 367.842518 
L 91.1625 367.839256 
L 93.4875 367.548602 
L 98.1375 367.424742 
L 99.3 367.618819 
L 100.4625 367.656657 
L 101.625 367.5728 
L 102.7875 366.935146 
L 103.95 366.032412 
L 105.1125 365.818953 
L 107.4375 366.077235 
L 109.7625 366.93751 
L 110.925 367.246677 
L 112.0875 366.801937 
L 113.25 366.025101 
L 114.4125 366.021852 
L 115.575 366.607526 
L 116.7375 366.839306 
L 119.0625 367.97501 
L 120.225 368.173419 
L 121.3875 367.805245 
L 123.7125 366.652764 
L 124.875 366.838428 
L 126.0375 366.439355 
L 128.3625 367.194167 
L 130.6875 367.427075 
L 133.0125 366.54544 
L 134.175 366.616867 
L 135.3375 366.148089 
L 136.5 364.813771 
L 137.6625 364.468782 
L 138.825 364.246769 
L 139.9875 362.466128 
L 141.15 361.690608 
L 142.3125 361.213859 
L 143.475 359.835752 
L 144.6375 357.714842 
L 145.8 357.233542 
L 146.9625 354.068621 
L 148.125 349.862212 
L 149.2875 346.421628 
L 150.45 345.762051 
L 151.6125 344.386089 
L 152.775 326.024769 
L 155.1 245.290782 
L 156.2625 197.991993 
L 157.425 145.878061 
L 158.5875 127.370924 
L 159.75 141.058557 
L 160.9125 167.154756 
L 162.075 201.562955 
L 163.2375 252.060126 
L 164.4 271.534555 
L 165.5625 279.014702 
L 166.725 265.329295 
L 167.8875 269.893689 
L 169.05 234.398113 
L 171.375 126.0733 
L 173.7 66.96 
L 174.8625 89.779872 
L 176.025 108.538777 
L 177.1875 156.760599 
L 178.35 173.060504 
L 179.5125 143.974374 
L 180.675 134.711925 
L 181.8375 179.455161 
L 183 186.036876 
L 184.1625 200.622899 
L 185.325 242.39561 
L 186.4875 254.776688 
L 187.65 258.050532 
L 188.8125 266.897782 
L 191.1375 315.260126 
L 192.3 318.707873 
L 193.4625 318.12252 
L 194.625 311.704439 
L 195.7875 298.677929 
L 196.95 295.824052 
L 198.1125 290.894839 
L 199.275 284.531784 
L 200.4375 294.58892 
L 201.6 306.898238 
L 202.7625 308.554113 
L 203.925 321.182671 
L 205.0875 331.851331 
L 206.25 328.942844 
L 207.4125 323.057368 
L 208.575 321.554184 
L 209.7375 315.071466 
L 210.9 310.641379 
L 212.0625 313.87207 
L 213.225 323.281157 
L 214.3875 321.335402 
L 215.55 321.126775 
L 216.7125 327.698364 
L 217.875 333.16859 
L 219.0375 335.074639 
L 220.2 340.356539 
L 221.3625 337.18177 
L 222.525 327.927635 
L 223.6875 319.780194 
L 224.85 308.02228 
L 226.0125 306.642384 
L 227.175 309.332885 
L 228.3375 310.527618 
L 229.5 307.132927 
L 230.6625 304.805685 
L 231.825 299.814771 
L 232.9875 299.95524 
L 235.3125 299.494317 
L 236.475 304.19879 
L 237.6375 304.958184 
L 238.8 306.585533 
L 239.9625 313.64359 
L 241.125 321.39193 
L 243.45 329.459186 
L 244.6125 327.122001 
L 245.775 321.085582 
L 246.9375 318.998113 
L 248.1 324.058305 
L 249.2625 319.439965 
L 250.425 322.676743 
L 251.5875 332.256488 
L 252.75 330.499601 
L 253.9125 322.56513 
L 255.075 332.035181 
L 256.2375 334.037708 
L 257.4 329.71544 
L 258.5625 336.979923 
L 259.725 346.941021 
L 260.8875 343.396798 
L 262.05 343.007501 
L 263.2125 345.971234 
L 264.375 346.64146 
L 265.5375 343.785034 
L 266.7 347.807939 
L 267.8625 350.226163 
L 269.025 347.018859 
L 270.1875 345.26277 
L 271.35 345.80283 
L 272.5125 341.574718 
L 273.675 341.053576 
L 274.8375 345.557218 
L 276 349.609374 
L 277.1625 351.301645 
L 278.325 356.276817 
L 279.4875 358.265226 
L 280.65 359.056071 
L 281.8125 357.08209 
L 282.975 351.025426 
L 284.1375 345.848477 
L 285.3 344.945542 
L 286.4625 344.658923 
L 287.625 346.349859 
L 288.7875 350.919394 
L 289.95 353.313288 
L 291.1125 354.799354 
L 292.275 353.72045 
L 293.4375 350.599048 
L 294.6 351.323436 
L 295.7625 350.09738 
L 296.925 349.695039 
L 298.0875 351.360448 
L 299.25 351.249926 
L 300.4125 349.588842 
L 301.575 351.537146 
L 302.7375 349.438592 
L 303.9 346.987448 
L 305.0625 351.367135 
L 306.225 351.161353 
L 307.3875 353.128009 
L 308.55 352.377985 
L 309.7125 352.147058 
L 310.875 349.516765 
L 312.0375 348.831044 
L 313.2 348.340644 
L 314.3625 350.000875 
L 315.525 351.293209 
L 316.6875 351.72278 
L 317.85 355.150445 
L 319.0125 354.356823 
L 320.175 355.951177 
L 321.3375 358.041808 
L 322.5 359.248337 
L 323.6625 356.471143 
L 324.825 356.128591 
L 325.9875 354.283654 
L 327.15 350.178274 
L 328.3125 348.062027 
L 329.475 351.235723 
L 330.6375 352.400857 
L 331.8 354.990163 
L 332.9625 356.651642 
L 334.125 356.716587 
L 335.2875 354.927498 
L 336.45 352.770517 
L 337.6125 351.539826 
L 338.775 352.27935 
L 339.9375 352.705645 
L 341.1 352.579707 
L 342.2625 353.767578 
L 343.425 353.901812 
L 344.5875 354.65475 
L 345.75 355.745111 
L 346.9125 357.385887 
L 348.075 358.196539 
L 349.2375 357.992285 
L 351.5625 356.582268 
L 352.725 355.658291 
L 353.8875 354.303089 
L 355.05 355.010558 
L 356.2125 356.131493 
L 357.375 356.41242 
L 358.5375 354.788274 
L 359.7 351.925152 
L 360.8625 348.466399 
L 362.025 345.731121 
L 363.1875 345.813349 
L 365.5125 351.717104 
L 366.675 354.925616 
L 367.8375 358.490135 
L 369 359.443353 
L 370.1625 356.388574 
L 371.325 354.842234 
L 372.4875 353.916248 
L 373.65 353.309263 
L 374.8125 353.298722 
L 375.975 355.020425 
L 377.1375 358.717524 
L 378.3 360.069489 
L 379.4625 360.98121 
L 380.625 362.860386 
L 381.7875 363.278927 
L 382.95 361.194792 
L 384.1125 360.091086 
L 385.275 358.45824 
L 386.4375 355.65782 
L 387.6 354.990682 
L 388.7625 355.206093 
L 389.925 356.245945 
L 391.0875 357.983084 
L 392.25 359.980654 
L 393.4125 360.033927 
L 394.575 359.936383 
L 395.7375 360.55867 
L 396.9 359.865117 
L 398.0625 357.076435 
L 399.225 354.711812 
L 400.3875 354.041724 
L 401.55 354.42972 
L 402.7125 356.113839 
L 403.875 357.325761 
L 405.0375 358.776042 
L 406.2 359.940896 
L 408.525 355.053238 
L 409.6875 355.201746 
L 410.85 356.078814 
L 412.0125 356.212813 
L 413.175 357.737668 
L 414.3375 360.03647 
L 415.5 362.006612 
L 416.6625 363.112636 
L 417.825 362.754852 
L 418.9875 363.956909 
L 420.15 363.620914 
L 421.3125 363.779011 
L 422.475 363.330635 
L 423.6375 362.291168 
L 424.8 360.091968 
L 427.125 357.223461 
L 428.2875 358.08468 
L 429.45 359.673062 
L 430.6125 359.636265 
L 432.9375 356.373064 
L 434.1 355.505071 
L 435.2625 356.881298 
L 436.425 359.550081 
L 437.5875 363.461728 
L 438.75 365.394689 
L 441.075 363.563359 
L 442.2375 361.406506 
L 443.4 358.71235 
L 444.5625 358.391501 
L 445.725 358.574293 
L 446.8875 359.540543 
L 449.2125 359.709988 
L 450.375 360.66294 
L 451.5375 362.66831 
L 452.7 362.327371 
L 455.025 365.365164 
L 456.1875 363.372233 
L 457.35 360.377717 
L 458.5125 358.760865 
L 459.675 358.047104 
L 460.8375 356.96032 
L 462 357.290594 
L 463.1625 357.160795 
L 464.325 355.034582 
L 465.4875 353.570569 
L 466.65 354.279568 
L 467.8125 353.586747 
L 468.975 353.624384 
L 470.1375 355.580856 
L 471.3 356.993468 
L 475.95 356.474821 
L 477.1125 355.680405 
L 478.275 355.244148 
L 479.4375 357.361794 
L 480.6 360.443223 
L 481.7625 362.7296 
L 482.925 364.314865 
L 484.0875 365.181247 
L 485.25 365.424931 
L 486.4125 365.160111 
L 487.575 363.983949 
L 488.7375 363.702213 
L 489.9 364.200233 
L 491.0625 364.066313 
L 492.225 363.698104 
L 493.3875 364.051606 
L 494.55 363.547322 
L 495.7125 361.79565 
L 496.875 360.551023 
L 498.0375 360.452487 
L 499.2 359.875164 
L 500.3625 358.291786 
L 501.525 357.219512 
L 502.6875 358.03189 
L 503.85 357.5643 
L 505.0125 356.561483 
L 506.175 358.74238 
L 507.3375 361.502706 
L 508.5 361.691559 
L 509.6625 362.466292 
L 510.825 364.274165 
L 513.15 364.193722 
L 514.3125 364.982074 
L 515.475 364.27129 
L 516.6375 362.475605 
L 518.9625 360.001068 
L 520.125 359.215569 
L 522.45 361.962291 
L 523.6125 363.530934 
L 524.775 364.841209 
L 525.9375 365.097423 
L 527.1 363.795402 
L 528.2625 362.881336 
L 529.425 362.434659 
L 531.75 363.133452 
L 532.9125 362.306403 
L 534.075 361.713113 
L 535.2375 361.905229 
L 536.4 361.419939 
L 537.5625 360.073641 
L 538.725 360.245894 
L 539.8875 360.605874 
L 541.05 359.622847 
L 543.375 358.076946 
L 544.5375 357.439168 
L 546.8625 359.919644 
L 548.025 360.238968 
L 549.1875 363.103101 
L 550.35 364.100637 
L 551.5125 363.300832 
L 552.675 361.613438 
L 553.8375 359.543574 
L 555 357.953323 
L 556.1625 358.607313 
L 557.325 358.168029 
L 558.4875 359.212201 
L 559.65 362.301784 
L 560.8125 362.96426 
L 561.975 362.101072 
L 564.3 361.515841 
L 565.4625 360.022248 
L 566.625 358.215074 
L 567.7875 357.250634 
L 568.95 357.772987 
L 570.1125 359.314607 
L 571.275 360.263315 
L 573.6 364.192481 
L 574.7625 364.268221 
L 575.925 362.095568 
L 577.0875 361.104356 
L 578.25 359.526494 
L 579.4125 358.415544 
L 580.575 358.327092 
L 582.9 354.983912 
L 584.0625 356.37638 
L 585.225 356.600523 
L 586.3875 355.82918 
L 587.55 357.797263 
L 588.7125 360.026944 
L 589.875 360.253471 
L 591.0375 361.940376 
L 592.2 363.300503 
L 593.3625 363.17735 
L 594.525 362.755454 
L 595.6875 362.776178 
L 596.85 361.30014 
L 598.0125 361.755023 
L 599.175 363.700771 
L 600.3375 364.841897 
L 601.5 365.117125 
L 602.6625 365.769677 
L 603.825 365.428199 
L 606.15 362.420112 
L 607.3125 361.985389 
L 608.475 361.733843 
L 609.6375 360.462286 
L 610.8 360.152315 
L 611.9625 360.498725 
L 613.125 359.077403 
L 614.2875 358.087033 
L 615.45 359.004945 
L 616.6125 360.210324 
L 617.775 360.973247 
L 618.9375 361.206708 
L 620.1 360.88048 
L 621.2625 359.930668 
L 622.425 358.659613 
L 623.5875 358.15248 
L 624.75 358.930299 
L 624.75 358.930299 
" style="fill:none;stroke:#0000ff;stroke-linecap:square;stroke-width:1.5;"/>
   </g>
   <g id="line2d_25">
    <path clip-path="url(#pb5eaeb335e)" d="M 88.8375 365.739086 
L 94.65 365.550742 
L 110.925 365.518348 
L 116.7375 365.523519 
L 123.7125 365.568376 
L 128.3625 365.525983 
L 131.85 365.543893 
L 137.6625 365.642216 
L 148.125 365.688503 
L 155.1 365.630199 
L 160.9125 365.566381 
L 169.05 365.643056 
L 172.5375 365.630457 
L 177.1875 365.668353 
L 187.65 365.1828 
L 189.975 364.91002 
L 192.3 364.583058 
L 193.4625 364.187807 
L 195.7875 363.114459 
L 198.1125 362.651236 
L 199.275 359.129004 
L 200.4375 348.138178 
L 201.6 341.462195 
L 202.7625 338.713356 
L 203.925 337.377824 
L 205.0875 336.88751 
L 206.25 336.702404 
L 208.575 336.912156 
L 209.7375 337.244331 
L 212.0625 337.179255 
L 213.225 336.992139 
L 214.3875 337.198831 
L 215.55 336.899644 
L 216.7125 336.224834 
L 217.875 335.775462 
L 219.0375 335.558747 
L 220.2 335.564513 
L 221.3625 335.784337 
L 222.525 335.610567 
L 223.6875 335.724658 
L 224.85 335.670382 
L 226.0125 335.444805 
L 228.3375 335.842287 
L 229.5 336.004935 
L 231.825 336.126332 
L 236.475 337.121246 
L 237.6375 337.449471 
L 239.9625 337.80633 
L 242.2875 337.750703 
L 243.45 337.989531 
L 246.9375 338.160106 
L 249.2625 338.675005 
L 250.425 339.045405 
L 251.5875 339.23757 
L 253.9125 339.190226 
L 256.2375 339.445511 
L 257.4 339.408504 
L 258.5625 339.502969 
L 259.725 339.858301 
L 262.05 339.925755 
L 264.375 340.524433 
L 265.5375 341.019873 
L 266.7 341.33391 
L 270.1875 340.399607 
L 271.35 340.148636 
L 272.5125 340.365532 
L 273.675 340.303945 
L 277.1625 339.511278 
L 280.65 339.404407 
L 281.8125 339.218499 
L 284.1375 339.307946 
L 287.625 339.785175 
L 289.95 340.193923 
L 293.4375 339.982833 
L 294.6 340.436884 
L 295.7625 340.368013 
L 296.925 340.47068 
L 298.0875 340.851136 
L 299.25 340.674864 
L 300.4125 340.619357 
L 301.575 341.14618 
L 302.7375 341.349997 
L 303.9 341.40136 
L 305.0625 341.704246 
L 306.225 342.415311 
L 307.3875 342.679666 
L 308.55 342.788701 
L 310.875 343.397819 
L 312.0375 343.874943 
L 313.2 344.639386 
L 314.3625 344.994587 
L 315.525 344.723903 
L 316.6875 344.796324 
L 317.85 345.357455 
L 320.175 345.724976 
L 321.3375 346.105523 
L 322.5 346.842346 
L 323.6625 347.780134 
L 324.825 348.86651 
L 327.15 349.986652 
L 328.3125 350.296894 
L 329.475 349.845563 
L 330.6375 349.706914 
L 332.9625 350.421691 
L 335.2875 351.684667 
L 336.45 352.074763 
L 337.6125 352.715666 
L 338.775 352.784403 
L 339.9375 352.616621 
L 341.1 353.316271 
L 342.2625 353.331413 
L 344.5875 354.224723 
L 345.75 353.977284 
L 346.9125 354.209032 
L 348.075 354.649044 
L 349.2375 354.56056 
L 350.4 354.330141 
L 351.5625 355.118767 
L 352.725 355.266878 
L 353.8875 356.123272 
L 356.2125 355.507605 
L 357.375 355.606726 
L 358.5375 355.548288 
L 359.7 356.252444 
L 363.1875 356.456156 
L 364.35 357.14841 
L 366.675 357.954479 
L 369 358.64584 
L 370.1625 358.637036 
L 371.325 358.90367 
L 372.4875 358.807639 
L 373.65 358.265184 
L 374.8125 358.127805 
L 375.975 358.745922 
L 378.3 359.609499 
L 380.625 359.280119 
L 381.7875 359.486065 
L 385.275 359.558371 
L 386.4375 359.499448 
L 391.0875 360.10621 
L 392.25 360.230784 
L 394.575 360.974671 
L 395.7375 361.031186 
L 398.0625 360.862829 
L 399.225 361.065715 
L 403.875 361.293365 
L 405.0375 361.218139 
L 408.525 359.933613 
L 409.6875 359.940665 
L 410.85 360.418612 
L 413.175 360.667381 
L 415.5 361.043653 
L 418.9875 360.736431 
L 421.3125 360.98186 
L 422.475 361.166131 
L 423.6375 361.564544 
L 425.9625 361.896504 
L 427.125 362.25107 
L 428.2875 362.41889 
L 430.6125 362.361729 
L 432.9375 362.193055 
L 437.5875 362.495582 
L 438.75 362.680346 
L 443.4 362.879625 
L 446.8875 362.302315 
L 449.2125 362.754237 
L 457.35 362.517989 
L 460.8375 362.899311 
L 463.1625 363.271905 
L 464.325 363.281548 
L 468.975 363.807528 
L 472.4625 363.488809 
L 473.625 363.49475 
L 474.7875 363.648017 
L 475.95 363.686547 
L 478.275 363.309106 
L 479.4375 363.132952 
L 480.6 363.203324 
L 484.0875 363.831244 
L 487.575 363.892509 
L 491.0625 363.697582 
L 492.225 363.649379 
L 493.3875 363.845695 
L 495.7125 363.675668 
L 501.525 364.225513 
L 505.0125 363.873533 
L 507.3375 363.81752 
L 509.6625 363.549521 
L 510.825 363.27369 
L 511.9875 363.136323 
L 513.15 363.190069 
L 515.475 362.896852 
L 517.8 362.96465 
L 518.9625 363.024542 
L 522.45 362.720792 
L 524.775 362.720522 
L 527.1 363.11071 
L 529.425 363.51887 
L 541.05 364.278604 
L 543.375 364.087096 
L 545.7 364.146056 
L 548.025 363.746317 
L 555 363.942098 
L 560.8125 364.380167 
L 563.1375 364.275695 
L 565.4625 364.11928 
L 566.625 364.143212 
L 568.95 364.33405 
L 573.6 364.492801 
L 575.925 364.442209 
L 578.25 364.597387 
L 581.7375 364.404907 
L 582.9 364.456106 
L 592.2 363.961829 
L 596.85 364.234342 
L 599.175 364.111523 
L 600.3375 363.909023 
L 604.9875 363.945629 
L 607.3125 364.169732 
L 613.125 363.885065 
L 614.2875 363.74542 
L 614.2875 363.74542 
" style="fill:none;stroke:#008000;stroke-linecap:square;stroke-width:1.5;"/>
   </g>
   <g id="line2d_26">
    <path clip-path="url(#pb5eaeb335e)" d="M 88.8375 366.016646 
L 92.325 365.64377 
L 95.8125 365.43767 
L 98.1375 365.427662 
L 99.3 365.565336 
L 101.625 365.485447 
L 103.95 365.214206 
L 107.4375 365.285042 
L 110.925 365.401239 
L 114.4125 365.62697 
L 116.7375 365.428169 
L 121.3875 365.363508 
L 123.7125 365.551232 
L 127.2 365.550421 
L 129.525 365.356785 
L 131.85 365.480601 
L 134.175 365.59391 
L 136.5 365.681799 
L 138.825 365.801366 
L 142.3125 365.784167 
L 144.6375 365.886352 
L 149.2875 365.792289 
L 150.45 365.613441 
L 152.775 365.583518 
L 155.1 365.692827 
L 159.75 365.46479 
L 167.8875 365.802815 
L 171.375 365.707678 
L 176.025 365.73495 
L 177.1875 365.803597 
L 179.5125 365.649055 
L 180.675 365.690676 
L 185.325 365.078106 
L 189.975 363.764535 
L 191.1375 363.302058 
L 192.3 362.964507 
L 193.4625 362.044109 
L 195.7875 359.813439 
L 198.1125 359.040211 
L 199.275 353.903116 
L 200.4375 345.280428 
L 201.6 340.539712 
L 202.7625 337.587405 
L 203.925 335.66751 
L 205.0875 334.919568 
L 206.25 334.655267 
L 207.4125 334.894969 
L 208.575 335.279653 
L 209.7375 336.134659 
L 210.9 336.177123 
L 212.0625 336.043433 
L 213.225 335.572525 
L 214.3875 336.089101 
L 215.55 335.316692 
L 216.7125 333.633057 
L 217.875 332.692347 
L 219.0375 332.298724 
L 220.2 332.359395 
L 221.3625 332.886243 
L 222.525 332.457244 
L 223.6875 332.737558 
L 224.85 332.602991 
L 226.0125 332.06325 
L 227.175 332.408725 
L 228.3375 333.017448 
L 229.5 333.421047 
L 231.825 333.667506 
L 235.3125 335.409346 
L 237.6375 337.147406 
L 238.8 337.690619 
L 239.9625 338.104716 
L 242.2875 337.83167 
L 243.45 338.439602 
L 244.6125 338.482507 
L 245.775 338.32954 
L 246.9375 338.796457 
L 249.2625 340.153735 
L 250.425 341.139822 
L 251.5875 341.660777 
L 253.9125 341.513967 
L 255.075 341.929137 
L 256.2375 342.109146 
L 257.4 341.995924 
L 258.5625 342.206423 
L 259.725 343.041241 
L 262.05 343.186458 
L 263.2125 343.738562 
L 264.375 344.536384 
L 265.5375 345.620023 
L 266.7 346.29307 
L 267.8625 345.551512 
L 269.025 344.585109 
L 270.1875 344.12095 
L 271.35 343.51082 
L 272.5125 343.937164 
L 273.675 343.781846 
L 276 342.556616 
L 277.1625 341.918768 
L 279.4875 341.957703 
L 280.65 341.646794 
L 281.8125 341.208343 
L 282.975 341.255036 
L 284.1375 341.424756 
L 285.3 341.734185 
L 287.625 342.611096 
L 289.95 343.600834 
L 291.1125 343.48138 
L 292.275 343.111275 
L 293.4375 343.115849 
L 294.6 344.11839 
L 295.7625 343.971244 
L 296.925 344.194986 
L 298.0875 345.012865 
L 299.25 344.629114 
L 300.4125 344.495142 
L 301.575 345.570728 
L 302.7375 345.988791 
L 303.9 346.084821 
L 305.0625 346.659477 
L 306.225 347.96455 
L 307.3875 348.419295 
L 308.55 348.567961 
L 309.7125 348.939695 
L 310.875 349.455561 
L 312.0375 350.126737 
L 313.2 351.16828 
L 314.3625 351.566563 
L 315.525 351.054662 
L 316.6875 351.017287 
L 317.85 351.635982 
L 319.0125 351.668249 
L 320.175 351.834159 
L 321.3375 352.170496 
L 322.5 352.908538 
L 324.825 354.82693 
L 325.9875 355.268529 
L 327.15 355.580754 
L 328.3125 355.656853 
L 329.475 354.955507 
L 330.6375 354.585562 
L 332.9625 354.863699 
L 335.2875 355.68841 
L 336.45 355.864173 
L 337.6125 356.27548 
L 338.775 356.132438 
L 339.9375 355.769768 
L 341.1 356.234086 
L 342.2625 356.054326 
L 344.5875 356.536658 
L 345.75 356.115638 
L 346.9125 356.16578 
L 348.075 356.425096 
L 349.2375 356.18007 
L 350.4 355.808677 
L 351.5625 356.426053 
L 352.725 356.433441 
L 353.8875 357.151604 
L 356.2125 356.241651 
L 357.375 356.210449 
L 358.5375 356.034749 
L 359.7 356.632784 
L 363.1875 356.535582 
L 364.35 357.162013 
L 366.675 357.835776 
L 369 358.392587 
L 370.1625 358.243363 
L 371.325 358.432679 
L 372.4875 358.175179 
L 373.65 357.392559 
L 374.8125 357.123247 
L 377.1375 358.248595 
L 378.3 358.647823 
L 380.625 358.007754 
L 381.7875 358.170185 
L 382.95 358.112811 
L 384.1125 358.188017 
L 386.4375 357.830831 
L 391.0875 358.321294 
L 392.25 358.412188 
L 394.575 359.322212 
L 395.7375 359.327994 
L 398.0625 358.920166 
L 399.225 359.149478 
L 400.3875 359.170599 
L 401.55 359.318943 
L 402.7125 359.33333 
L 405.0375 359.042769 
L 408.525 357.101845 
L 409.6875 357.112742 
L 410.85 357.760544 
L 413.175 358.148117 
L 415.5 358.713281 
L 416.6625 358.580909 
L 417.825 358.315704 
L 418.9875 358.237957 
L 421.3125 358.580881 
L 422.475 358.850854 
L 423.6375 359.462663 
L 425.9625 359.964786 
L 427.125 360.532416 
L 428.2875 360.785243 
L 429.45 360.759206 
L 432.9375 360.15346 
L 436.425 360.291792 
L 439.9125 360.865465 
L 441.075 360.832306 
L 442.2375 361.021749 
L 443.4 361.027743 
L 444.5625 360.605605 
L 445.725 360.051649 
L 446.8875 359.858529 
L 448.05 360.174367 
L 449.2125 360.636573 
L 452.7 360.500705 
L 453.8625 360.186955 
L 456.1875 360.039342 
L 459.675 360.345314 
L 462 361.227061 
L 463.1625 361.517657 
L 464.325 361.519353 
L 467.8125 362.425486 
L 468.975 362.500875 
L 471.3 361.818544 
L 473.625 361.676286 
L 474.7875 361.966369 
L 475.95 362.02584 
L 477.1125 361.708986 
L 478.275 361.196006 
L 479.4375 360.824442 
L 480.6 360.94863 
L 484.0875 362.24834 
L 485.25 362.342549 
L 486.4125 362.188235 
L 487.575 362.35321 
L 489.9 361.892152 
L 492.225 361.752492 
L 493.3875 362.159113 
L 495.7125 361.77409 
L 496.875 361.99833 
L 499.2 362.678105 
L 501.525 362.951574 
L 505.0125 362.104645 
L 506.175 362.108218 
L 508.5 361.759098 
L 509.6625 361.369522 
L 510.825 360.803017 
L 511.9875 360.534178 
L 513.15 360.650919 
L 515.475 360.123978 
L 516.6375 360.143206 
L 518.9625 360.459435 
L 521.2875 359.965176 
L 524.775 360.02783 
L 525.9375 360.332585 
L 528.2625 361.369634 
L 529.425 361.695633 
L 531.75 362.130831 
L 532.9125 362.430002 
L 541.05 363.171449 
L 543.375 362.664082 
L 545.7 362.73824 
L 548.025 361.808916 
L 550.35 361.875804 
L 551.5125 361.697552 
L 560.8125 363.204754 
L 561.975 363.193886 
L 564.3 362.696058 
L 565.4625 362.540137 
L 566.625 362.57876 
L 567.7875 362.895935 
L 573.6 363.349537 
L 574.7625 363.194184 
L 575.925 363.20241 
L 578.25 363.551441 
L 580.575 362.999602 
L 582.9 363.164795 
L 587.55 362.469163 
L 588.7125 362.423397 
L 591.0375 361.83973 
L 594.525 362.308091 
L 595.6875 362.724034 
L 598.0125 362.655722 
L 599.175 362.42279 
L 600.3375 361.970195 
L 601.5 361.992028 
L 602.6625 362.126977 
L 603.825 362.012199 
L 604.9875 362.06894 
L 606.15 362.396838 
L 607.3125 362.592912 
L 608.475 362.513736 
L 609.6375 362.316591 
L 611.9625 362.219095 
L 614.2875 361.667555 
L 614.2875 361.667555 
" style="fill:none;stroke:#ffa500;stroke-linecap:square;stroke-width:1.5;"/>
   </g>
   <g id="line2d_27">
    <path clip-path="url(#pb5eaeb335e)" d="M 88.8375 367.115814 
L 91.1625 366.516228 
L 93.4875 366.297271 
L 94.65 366.15026 
L 98.1375 366.140875 
L 99.3 366.393347 
L 100.4625 366.427894 
L 102.7875 366.027376 
L 103.95 365.799974 
L 105.1125 365.779062 
L 107.4375 365.960866 
L 109.7625 366.085432 
L 114.4125 366.578733 
L 116.7375 366.216626 
L 120.225 366.023264 
L 121.3875 366.098084 
L 122.55 366.340171 
L 124.875 366.498476 
L 126.0375 366.519352 
L 127.2 366.42607 
L 129.525 366.069234 
L 130.6875 366.115746 
L 133.0125 366.484066 
L 136.5 366.642821 
L 138.825 366.834986 
L 141.15 366.719956 
L 146.9625 366.887172 
L 148.125 366.888436 
L 149.2875 366.741959 
L 150.45 366.427349 
L 152.775 366.370064 
L 155.1 366.591941 
L 156.2625 366.478486 
L 157.425 366.544247 
L 159.75 366.20552 
L 162.075 366.416969 
L 164.4 366.708987 
L 165.5625 366.726795 
L 166.725 366.863896 
L 169.05 366.68295 
L 170.2125 366.537526 
L 174.8625 366.747137 
L 176.025 366.666875 
L 177.1875 366.778444 
L 178.35 366.568907 
L 179.5125 366.506093 
L 180.675 366.571407 
L 181.8375 366.32008 
L 184.1625 365.617 
L 185.325 365.532479 
L 187.65 364.531439 
L 188.8125 364.086447 
L 192.3 362.124244 
L 193.4625 360.659761 
L 195.7875 357.221863 
L 198.1125 356.317508 
L 199.275 349.903874 
L 200.4375 342.7569 
L 201.6 340.15042 
L 202.7625 338.977608 
L 203.925 338.408233 
L 205.0875 338.297523 
L 206.25 338.370814 
L 208.575 339.037086 
L 209.7375 339.758641 
L 210.9 339.765852 
L 212.0625 339.606409 
L 213.225 339.222881 
L 214.3875 339.596076 
L 215.55 339.053323 
L 216.7125 338.236779 
L 217.875 337.902708 
L 219.0375 337.829661 
L 220.2 337.957048 
L 221.3625 338.348207 
L 222.525 338.135744 
L 223.6875 338.323186 
L 224.85 338.233753 
L 226.0125 337.971702 
L 227.175 338.205586 
L 228.3375 338.617675 
L 229.5 338.856602 
L 231.825 338.837994 
L 235.3125 339.970217 
L 237.6375 341.396498 
L 238.8 341.676907 
L 239.9625 341.771425 
L 242.2875 340.845716 
L 243.45 341.245406 
L 244.6125 341.113142 
L 245.775 340.844186 
L 246.9375 341.165923 
L 249.2625 342.28336 
L 250.425 343.203542 
L 251.5875 343.572126 
L 253.9125 342.906756 
L 255.075 343.135667 
L 256.2375 343.156171 
L 257.4 342.916286 
L 258.5625 343.013507 
L 259.725 343.780646 
L 262.05 343.71679 
L 263.2125 344.170703 
L 264.375 344.92509 
L 265.5375 346.055121 
L 266.7 346.699021 
L 267.8625 345.618576 
L 269.025 344.385102 
L 271.35 343.167645 
L 272.5125 343.576042 
L 273.675 343.462534 
L 277.1625 341.96158 
L 279.4875 342.12179 
L 281.8125 341.651839 
L 284.1375 341.937693 
L 285.3 342.251631 
L 286.4625 342.735172 
L 288.7875 343.499536 
L 289.95 343.980907 
L 291.1125 343.764613 
L 292.275 343.311514 
L 293.4375 343.241034 
L 294.6 344.204043 
L 295.7625 344.012703 
L 296.925 344.188855 
L 298.0875 344.980642 
L 299.25 344.498052 
L 300.4125 344.269283 
L 301.575 345.3336 
L 302.7375 345.725958 
L 303.9 345.746585 
L 305.0625 346.28068 
L 306.225 347.735755 
L 307.3875 348.153605 
L 308.55 348.150261 
L 309.7125 348.394631 
L 310.875 348.841699 
L 312.0375 349.518057 
L 313.2 350.744166 
L 314.3625 351.10212 
L 315.525 350.190673 
L 316.6875 349.89874 
L 317.85 350.516404 
L 319.0125 350.42593 
L 320.175 350.531574 
L 321.3375 350.865321 
L 322.5 351.770487 
L 323.6625 352.964792 
L 324.825 354.326232 
L 325.9875 354.826198 
L 327.15 355.075257 
L 328.3125 354.939039 
L 329.475 353.679216 
L 330.6375 352.945665 
L 331.8 352.951059 
L 332.9625 353.147637 
L 335.2875 354.296304 
L 336.45 354.508343 
L 337.6125 355.036866 
L 338.775 354.726127 
L 339.9375 354.08883 
L 341.1 354.668141 
L 342.2625 354.350398 
L 344.5875 354.982429 
L 345.75 354.33123 
L 346.9125 354.341551 
L 348.075 354.679224 
L 349.2375 354.304078 
L 350.4 353.744573 
L 351.5625 354.619395 
L 352.725 354.637131 
L 353.8875 355.722562 
L 356.2125 354.306726 
L 357.375 354.184192 
L 358.5375 353.907586 
L 359.7 354.790452 
L 360.8625 354.768464 
L 362.025 354.579058 
L 363.1875 354.664696 
L 364.35 355.583014 
L 365.5125 356.168587 
L 369 357.346375 
L 370.1625 357.030719 
L 371.325 357.234522 
L 372.4875 356.759813 
L 373.65 355.517011 
L 374.8125 355.054425 
L 377.1375 356.820084 
L 378.3 357.502362 
L 380.625 356.435012 
L 381.7875 356.603681 
L 382.95 356.484657 
L 384.1125 356.591527 
L 386.4375 356.036266 
L 387.6 356.244737 
L 388.7625 356.626801 
L 389.925 356.822492 
L 391.0875 356.804639 
L 392.25 356.925858 
L 393.4125 357.713714 
L 394.575 358.338541 
L 395.7375 358.327711 
L 398.0625 357.545433 
L 399.225 357.849782 
L 400.3875 357.865722 
L 401.55 358.097252 
L 402.7125 358.109264 
L 403.875 357.912486 
L 405.0375 357.59993 
L 407.3625 355.474742 
L 408.525 354.613419 
L 409.6875 354.676646 
L 410.85 355.746037 
L 413.175 356.534927 
L 414.3375 357.056366 
L 415.5 357.416558 
L 416.6625 357.174235 
L 417.825 356.70995 
L 418.9875 356.540816 
L 420.15 356.729423 
L 422.475 357.503385 
L 423.6375 358.491332 
L 425.9625 359.25914 
L 427.125 360.123448 
L 428.2875 360.477242 
L 429.45 360.351914 
L 432.9375 359.084386 
L 436.425 359.271646 
L 437.5875 359.638362 
L 438.75 360.134448 
L 439.9125 360.208416 
L 441.075 360.118577 
L 442.2375 360.382789 
L 443.4 360.355874 
L 444.5625 359.631616 
L 445.725 358.690734 
L 446.8875 358.34462 
L 448.05 358.865471 
L 449.2125 359.679704 
L 450.375 359.616693 
L 451.5375 359.35925 
L 452.7 359.4975 
L 453.8625 358.965292 
L 455.025 358.766718 
L 456.1875 358.701101 
L 457.35 358.829252 
L 458.5125 359.114837 
L 459.675 359.26876 
L 462 360.742124 
L 463.1625 361.219663 
L 464.325 361.182451 
L 466.65 361.976074 
L 467.8125 362.523401 
L 468.975 362.601627 
L 471.3 361.309397 
L 472.4625 361.041062 
L 473.625 360.975119 
L 474.7875 361.472664 
L 475.95 361.602223 
L 477.1125 361.08636 
L 478.275 360.211836 
L 479.4375 359.5664 
L 480.6 359.765116 
L 484.0875 362.112783 
L 485.25 362.275266 
L 486.4125 361.96809 
L 487.575 362.165747 
L 489.9 361.296397 
L 491.0625 361.230036 
L 492.225 361.029009 
L 493.3875 361.723347 
L 495.7125 361.112234 
L 496.875 361.465819 
L 499.2 362.634071 
L 500.3625 362.948028 
L 501.525 363.071538 
L 502.6875 362.486348 
L 503.85 361.72038 
L 505.0125 361.468948 
L 506.175 361.46423 
L 508.5 360.936943 
L 509.6625 360.310198 
L 510.825 359.397076 
L 511.9875 358.972985 
L 513.15 359.209634 
L 515.475 358.514964 
L 516.6375 358.595629 
L 518.9625 359.222035 
L 521.2875 358.484898 
L 523.6125 358.503727 
L 524.775 358.643339 
L 525.9375 359.174802 
L 528.2625 360.955585 
L 529.425 361.499882 
L 531.75 362.111597 
L 532.9125 362.539313 
L 535.2375 362.824612 
L 536.4 363.081023 
L 539.8875 363.52445 
L 541.05 363.373546 
L 543.375 362.402471 
L 544.5375 362.502709 
L 545.7 362.48797 
L 546.8625 361.791371 
L 548.025 360.935135 
L 550.35 361.063239 
L 551.5125 360.819586 
L 558.4875 362.80008 
L 559.65 363.031591 
L 560.8125 363.391976 
L 561.975 363.339686 
L 564.3 362.401377 
L 565.4625 362.098483 
L 566.625 362.153927 
L 567.7875 362.711399 
L 572.4375 363.559016 
L 573.6 363.468943 
L 574.7625 363.167778 
L 575.925 363.146719 
L 577.0875 363.503941 
L 578.25 363.729299 
L 579.4125 363.3131 
L 580.575 362.767564 
L 581.7375 362.825239 
L 582.9 363.014328 
L 587.55 361.872618 
L 588.7125 361.811188 
L 591.0375 360.889575 
L 594.525 361.806412 
L 595.6875 362.540893 
L 598.0125 362.429861 
L 599.175 362.000197 
L 600.3375 361.210834 
L 601.5 361.220686 
L 602.6625 361.463816 
L 603.825 361.320357 
L 604.9875 361.445479 
L 606.15 362.019505 
L 607.3125 362.375515 
L 608.475 362.24849 
L 609.6375 361.892722 
L 611.9625 361.674974 
L 614.2875 360.757717 
L 614.2875 360.757717 
" style="fill:none;stroke:#800080;stroke-linecap:square;stroke-width:1.5;"/>
   </g>
   <g id="patch_3">
    <path d="M 90 384.48 
L 90 51.84 
" style="fill:none;stroke:#000000;stroke-linecap:square;stroke-linejoin:miter;stroke-width:0.8;"/>
   </g>
   <g id="patch_4">
    <path d="M 648 384.48 
L 648 51.84 
" style="fill:none;stroke:#000000;stroke-linecap:square;stroke-linejoin:miter;stroke-width:0.8;"/>
   </g>
   <g id="patch_5">
    <path d="M 90 384.48 
L 648 384.48 
" style="fill:none;stroke:#000000;stroke-linecap:square;stroke-linejoin:miter;stroke-width:0.8;"/>
   </g>
   <g id="patch_6">
    <path d="M 90 51.84 
L 648 51.84 
" style="fill:none;stroke:#000000;stroke-linecap:square;stroke-linejoin:miter;stroke-width:0.8;"/>
   </g>
   <g id="text_14">
    <!-- 36 point Prediction -->
    <defs>
     <path d="M 18.3125 70.21875 
L 18.3125 54.6875 
L 36.8125 54.6875 
L 36.8125 47.703125 
L 18.3125 47.703125 
L 18.3125 18.015625 
Q 18.3125 11.328125 20.140625 9.421875 
Q 21.96875 7.515625 27.59375 7.515625 
L 36.8125 7.515625 
L 36.8125 0 
L 27.59375 0 
Q 17.1875 0 13.234375 3.875 
Q 9.28125 7.765625 9.28125 18.015625 
L 9.28125 47.703125 
L 2.6875 47.703125 
L 2.6875 54.6875 
L 9.28125 54.6875 
L 9.28125 70.21875 
z
" id="DejaVuSans-116"/>
     <path d="M 19.671875 64.796875 
L 19.671875 37.40625 
L 32.078125 37.40625 
Q 38.96875 37.40625 42.71875 40.96875 
Q 46.484375 44.53125 46.484375 51.125 
Q 46.484375 57.671875 42.71875 61.234375 
Q 38.96875 64.796875 32.078125 64.796875 
z
M 9.8125 72.90625 
L 32.078125 72.90625 
Q 44.34375 72.90625 50.609375 67.359375 
Q 56.890625 61.8125 56.890625 51.125 
Q 56.890625 40.328125 50.609375 34.8125 
Q 44.34375 29.296875 32.078125 29.296875 
L 19.671875 29.296875 
L 19.671875 0 
L 9.8125 0 
z
" id="DejaVuSans-80"/>
     <path d="M 45.40625 46.390625 
L 45.40625 75.984375 
L 54.390625 75.984375 
L 54.390625 0 
L 45.40625 0 
L 45.40625 8.203125 
Q 42.578125 3.328125 38.25 0.953125 
Q 33.9375 -1.421875 27.875 -1.421875 
Q 17.96875 -1.421875 11.734375 6.484375 
Q 5.515625 14.40625 5.515625 27.296875 
Q 5.515625 40.1875 11.734375 48.09375 
Q 17.96875 56 27.875 56 
Q 33.9375 56 38.25 53.625 
Q 42.578125 51.265625 45.40625 46.390625 
z
M 14.796875 27.296875 
Q 14.796875 17.390625 18.875 11.75 
Q 22.953125 6.109375 30.078125 6.109375 
Q 37.203125 6.109375 41.296875 11.75 
Q 45.40625 17.390625 45.40625 27.296875 
Q 45.40625 37.203125 41.296875 42.84375 
Q 37.203125 48.484375 30.078125 48.484375 
Q 22.953125 48.484375 18.875 42.84375 
Q 14.796875 37.203125 14.796875 27.296875 
z
" id="DejaVuSans-100"/>
     <path d="M 48.78125 52.59375 
L 48.78125 44.1875 
Q 44.96875 46.296875 41.140625 47.34375 
Q 37.3125 48.390625 33.40625 48.390625 
Q 24.65625 48.390625 19.8125 42.84375 
Q 14.984375 37.3125 14.984375 27.296875 
Q 14.984375 17.28125 19.8125 11.734375 
Q 24.65625 6.203125 33.40625 6.203125 
Q 37.3125 6.203125 41.140625 7.25 
Q 44.96875 8.296875 48.78125 10.40625 
L 48.78125 2.09375 
Q 45.015625 0.34375 40.984375 -0.53125 
Q 36.96875 -1.421875 32.421875 -1.421875 
Q 20.0625 -1.421875 12.78125 6.34375 
Q 5.515625 14.109375 5.515625 27.296875 
Q 5.515625 40.671875 12.859375 48.328125 
Q 20.21875 56 33.015625 56 
Q 37.15625 56 41.109375 55.140625 
Q 45.0625 54.296875 48.78125 52.59375 
z
" id="DejaVuSans-99"/>
    </defs>
    <g transform="translate(312.208125 45.84)scale(0.12 -0.12)">
     <use xlink:href="#DejaVuSans-51"/>
     <use x="63.623047" xlink:href="#DejaVuSans-54"/>
     <use x="127.246094" xlink:href="#DejaVuSans-32"/>
     <use x="159.033203" xlink:href="#DejaVuSans-112"/>
     <use x="222.509766" xlink:href="#DejaVuSans-111"/>
     <use x="283.691406" xlink:href="#DejaVuSans-105"/>
     <use x="311.474609" xlink:href="#DejaVuSans-110"/>
     <use x="374.853516" xlink:href="#DejaVuSans-116"/>
     <use x="414.0625" xlink:href="#DejaVuSans-32"/>
     <use x="445.849609" xlink:href="#DejaVuSans-80"/>
     <use x="506.136719" xlink:href="#DejaVuSans-114"/>
     <use x="547.21875" xlink:href="#DejaVuSans-101"/>
     <use x="608.742188" xlink:href="#DejaVuSans-100"/>
     <use x="672.21875" xlink:href="#DejaVuSans-105"/>
     <use x="700.001953" xlink:href="#DejaVuSans-99"/>
     <use x="754.982422" xlink:href="#DejaVuSans-116"/>
     <use x="794.191406" xlink:href="#DejaVuSans-105"/>
     <use x="821.974609" xlink:href="#DejaVuSans-111"/>
     <use x="883.15625" xlink:href="#DejaVuSans-110"/>
    </g>
   </g>
   <g id="legend_1">
    <g id="patch_7">
     <path d="M 477.804688 133.230625 
L 641 133.230625 
Q 643 133.230625 643 131.230625 
L 643 58.84 
Q 643 56.84 641 56.84 
L 477.804688 56.84 
Q 475.804688 56.84 475.804688 58.84 
L 475.804688 131.230625 
Q 475.804688 133.230625 477.804688 133.230625 
z
" style="fill:#ffffff;opacity:0.8;stroke:#cccccc;stroke-linejoin:miter;"/>
    </g>
    <g id="line2d_28">
     <path d="M 479.804688 64.938437 
L 499.804688 64.938437 
" style="fill:none;stroke:#ff0000;stroke-linecap:square;stroke-width:1.5;"/>
    </g>
    <g id="line2d_29"/>
    <g id="text_15">
     <!-- Transformer-36 Prediction -->
     <defs>
      <path d="M 37.109375 75.984375 
L 37.109375 68.5 
L 28.515625 68.5 
Q 23.6875 68.5 21.796875 66.546875 
Q 19.921875 64.59375 19.921875 59.515625 
L 19.921875 54.6875 
L 34.71875 54.6875 
L 34.71875 47.703125 
L 19.921875 47.703125 
L 19.921875 0 
L 10.890625 0 
L 10.890625 47.703125 
L 2.296875 47.703125 
L 2.296875 54.6875 
L 10.890625 54.6875 
L 10.890625 58.5 
Q 10.890625 67.625 15.140625 71.796875 
Q 19.390625 75.984375 28.609375 75.984375 
z
" id="DejaVuSans-102"/>
      <path d="M 4.890625 31.390625 
L 31.203125 31.390625 
L 31.203125 23.390625 
L 4.890625 23.390625 
z
" id="DejaVuSans-45"/>
     </defs>
     <g transform="translate(507.804688 68.438437)scale(0.1 -0.1)">
      <use xlink:href="#DejaVuSans-84"/>
      <use x="60.865234" xlink:href="#DejaVuSans-114"/>
      <use x="101.978516" xlink:href="#DejaVuSans-97"/>
      <use x="163.257812" xlink:href="#DejaVuSans-110"/>
      <use x="226.636719" xlink:href="#DejaVuSans-115"/>
      <use x="278.736328" xlink:href="#DejaVuSans-102"/>
      <use x="313.941406" xlink:href="#DejaVuSans-111"/>
      <use x="375.123047" xlink:href="#DejaVuSans-114"/>
      <use x="416.220703" xlink:href="#DejaVuSans-109"/>
      <use x="513.632812" xlink:href="#DejaVuSans-101"/>
      <use x="575.15625" xlink:href="#DejaVuSans-114"/>
      <use x="616.175781" xlink:href="#DejaVuSans-45"/>
      <use x="652.259766" xlink:href="#DejaVuSans-51"/>
      <use x="715.882812" xlink:href="#DejaVuSans-54"/>
      <use x="779.505859" xlink:href="#DejaVuSans-32"/>
      <use x="811.292969" xlink:href="#DejaVuSans-80"/>
      <use x="871.580078" xlink:href="#DejaVuSans-114"/>
      <use x="912.662109" xlink:href="#DejaVuSans-101"/>
      <use x="974.185547" xlink:href="#DejaVuSans-100"/>
      <use x="1037.662109" xlink:href="#DejaVuSans-105"/>
      <use x="1065.445312" xlink:href="#DejaVuSans-99"/>
      <use x="1120.425781" xlink:href="#DejaVuSans-116"/>
      <use x="1159.634766" xlink:href="#DejaVuSans-105"/>
      <use x="1187.417969" xlink:href="#DejaVuSans-111"/>
      <use x="1248.599609" xlink:href="#DejaVuSans-110"/>
     </g>
    </g>
    <g id="line2d_30">
     <path d="M 479.804688 79.616562 
L 499.804688 79.616562 
" style="fill:none;stroke:#0000ff;stroke-linecap:square;stroke-width:1.5;"/>
    </g>
    <g id="line2d_31"/>
    <g id="text_16">
     <!-- GroundTruth(smoothed) -->
     <defs>
      <path d="M 59.515625 10.40625 
L 59.515625 29.984375 
L 43.40625 29.984375 
L 43.40625 38.09375 
L 69.28125 38.09375 
L 69.28125 6.78125 
Q 63.578125 2.734375 56.6875 0.65625 
Q 49.8125 -1.421875 42 -1.421875 
Q 24.90625 -1.421875 15.25 8.5625 
Q 5.609375 18.5625 5.609375 36.375 
Q 5.609375 54.25 15.25 64.234375 
Q 24.90625 74.21875 42 74.21875 
Q 49.125 74.21875 55.546875 72.453125 
Q 61.96875 70.703125 67.390625 67.28125 
L 67.390625 56.78125 
Q 61.921875 61.421875 55.765625 63.765625 
Q 49.609375 66.109375 42.828125 66.109375 
Q 29.4375 66.109375 22.71875 58.640625 
Q 16.015625 51.171875 16.015625 36.375 
Q 16.015625 21.625 22.71875 14.15625 
Q 29.4375 6.6875 42.828125 6.6875 
Q 48.046875 6.6875 52.140625 7.59375 
Q 56.25 8.5 59.515625 10.40625 
z
" id="DejaVuSans-71"/>
      <path d="M 31 75.875 
Q 24.46875 64.65625 21.28125 53.65625 
Q 18.109375 42.671875 18.109375 31.390625 
Q 18.109375 20.125 21.3125 9.0625 
Q 24.515625 -2 31 -13.1875 
L 23.1875 -13.1875 
Q 15.875 -1.703125 12.234375 9.375 
Q 8.59375 20.453125 8.59375 31.390625 
Q 8.59375 42.28125 12.203125 53.3125 
Q 15.828125 64.359375 23.1875 75.875 
z
" id="DejaVuSans-40"/>
      <path d="M 8.015625 75.875 
L 15.828125 75.875 
Q 23.140625 64.359375 26.78125 53.3125 
Q 30.421875 42.28125 30.421875 31.390625 
Q 30.421875 20.453125 26.78125 9.375 
Q 23.140625 -1.703125 15.828125 -13.1875 
L 8.015625 -13.1875 
Q 14.5 -2 17.703125 9.0625 
Q 20.90625 20.125 20.90625 31.390625 
Q 20.90625 42.671875 17.703125 53.65625 
Q 14.5 64.65625 8.015625 75.875 
z
" id="DejaVuSans-41"/>
     </defs>
     <g transform="translate(507.804688 83.116562)scale(0.1 -0.1)">
      <use xlink:href="#DejaVuSans-71"/>
      <use x="77.490234" xlink:href="#DejaVuSans-114"/>
      <use x="118.572266" xlink:href="#DejaVuSans-111"/>
      <use x="179.753906" xlink:href="#DejaVuSans-117"/>
      <use x="243.132812" xlink:href="#DejaVuSans-110"/>
      <use x="306.511719" xlink:href="#DejaVuSans-100"/>
      <use x="369.988281" xlink:href="#DejaVuSans-84"/>
      <use x="430.853516" xlink:href="#DejaVuSans-114"/>
      <use x="471.966797" xlink:href="#DejaVuSans-117"/>
      <use x="535.345703" xlink:href="#DejaVuSans-116"/>
      <use x="574.554688" xlink:href="#DejaVuSans-104"/>
      <use x="637.933594" xlink:href="#DejaVuSans-40"/>
      <use x="676.947266" xlink:href="#DejaVuSans-115"/>
      <use x="729.046875" xlink:href="#DejaVuSans-109"/>
      <use x="826.458984" xlink:href="#DejaVuSans-111"/>
      <use x="887.640625" xlink:href="#DejaVuSans-111"/>
      <use x="948.822266" xlink:href="#DejaVuSans-116"/>
      <use x="988.03125" xlink:href="#DejaVuSans-104"/>
      <use x="1051.410156" xlink:href="#DejaVuSans-101"/>
      <use x="1112.933594" xlink:href="#DejaVuSans-100"/>
      <use x="1176.410156" xlink:href="#DejaVuSans-41"/>
     </g>
    </g>
    <g id="line2d_32">
     <path d="M 479.804688 94.294687 
L 499.804688 94.294687 
" style="fill:none;stroke:#008000;stroke-linecap:square;stroke-width:1.5;"/>
    </g>
    <g id="line2d_33"/>
    <g id="text_17">
     <!-- LSTM-36 Prediction -->
     <defs>
      <path d="M 9.8125 72.90625 
L 19.671875 72.90625 
L 19.671875 8.296875 
L 55.171875 8.296875 
L 55.171875 0 
L 9.8125 0 
z
" id="DejaVuSans-76"/>
      <path d="M 53.515625 70.515625 
L 53.515625 60.890625 
Q 47.90625 63.578125 42.921875 64.890625 
Q 37.9375 66.21875 33.296875 66.21875 
Q 25.25 66.21875 20.875 63.09375 
Q 16.5 59.96875 16.5 54.203125 
Q 16.5 49.359375 19.40625 46.890625 
Q 22.3125 44.4375 30.421875 42.921875 
L 36.375 41.703125 
Q 47.40625 39.59375 52.65625 34.296875 
Q 57.90625 29 57.90625 20.125 
Q 57.90625 9.515625 50.796875 4.046875 
Q 43.703125 -1.421875 29.984375 -1.421875 
Q 24.8125 -1.421875 18.96875 -0.25 
Q 13.140625 0.921875 6.890625 3.21875 
L 6.890625 13.375 
Q 12.890625 10.015625 18.65625 8.296875 
Q 24.421875 6.59375 29.984375 6.59375 
Q 38.421875 6.59375 43.015625 9.90625 
Q 47.609375 13.234375 47.609375 19.390625 
Q 47.609375 24.75 44.3125 27.78125 
Q 41.015625 30.8125 33.5 32.328125 
L 27.484375 33.5 
Q 16.453125 35.6875 11.515625 40.375 
Q 6.59375 45.0625 6.59375 53.421875 
Q 6.59375 63.09375 13.40625 68.65625 
Q 20.21875 74.21875 32.171875 74.21875 
Q 37.3125 74.21875 42.625 73.28125 
Q 47.953125 72.359375 53.515625 70.515625 
z
" id="DejaVuSans-83"/>
      <path d="M 9.8125 72.90625 
L 24.515625 72.90625 
L 43.109375 23.296875 
L 61.8125 72.90625 
L 76.515625 72.90625 
L 76.515625 0 
L 66.890625 0 
L 66.890625 64.015625 
L 48.09375 14.015625 
L 38.1875 14.015625 
L 19.390625 64.015625 
L 19.390625 0 
L 9.8125 0 
z
" id="DejaVuSans-77"/>
     </defs>
     <g transform="translate(507.804688 97.794687)scale(0.1 -0.1)">
      <use xlink:href="#DejaVuSans-76"/>
      <use x="55.712891" xlink:href="#DejaVuSans-83"/>
      <use x="119.189453" xlink:href="#DejaVuSans-84"/>
      <use x="180.273438" xlink:href="#DejaVuSans-77"/>
      <use x="266.552734" xlink:href="#DejaVuSans-45"/>
      <use x="302.636719" xlink:href="#DejaVuSans-51"/>
      <use x="366.259766" xlink:href="#DejaVuSans-54"/>
      <use x="429.882812" xlink:href="#DejaVuSans-32"/>
      <use x="461.669922" xlink:href="#DejaVuSans-80"/>
      <use x="521.957031" xlink:href="#DejaVuSans-114"/>
      <use x="563.039062" xlink:href="#DejaVuSans-101"/>
      <use x="624.5625" xlink:href="#DejaVuSans-100"/>
      <use x="688.039062" xlink:href="#DejaVuSans-105"/>
      <use x="715.822266" xlink:href="#DejaVuSans-99"/>
      <use x="770.802734" xlink:href="#DejaVuSans-116"/>
      <use x="810.011719" xlink:href="#DejaVuSans-105"/>
      <use x="837.794922" xlink:href="#DejaVuSans-111"/>
      <use x="898.976562" xlink:href="#DejaVuSans-110"/>
     </g>
    </g>
    <g id="line2d_34">
     <path d="M 479.804688 108.972812 
L 499.804688 108.972812 
" style="fill:none;stroke:#ffa500;stroke-linecap:square;stroke-width:1.5;"/>
    </g>
    <g id="line2d_35"/>
    <g id="text_18">
     <!-- GRU-36 Prediction -->
     <defs>
      <path d="M 44.390625 34.1875 
Q 47.5625 33.109375 50.5625 29.59375 
Q 53.5625 26.078125 56.59375 19.921875 
L 66.609375 0 
L 56 0 
L 46.6875 18.703125 
Q 43.0625 26.03125 39.671875 28.421875 
Q 36.28125 30.8125 30.421875 30.8125 
L 19.671875 30.8125 
L 19.671875 0 
L 9.8125 0 
L 9.8125 72.90625 
L 32.078125 72.90625 
Q 44.578125 72.90625 50.734375 67.671875 
Q 56.890625 62.453125 56.890625 51.90625 
Q 56.890625 45.015625 53.6875 40.46875 
Q 50.484375 35.9375 44.390625 34.1875 
z
M 19.671875 64.796875 
L 19.671875 38.921875 
L 32.078125 38.921875 
Q 39.203125 38.921875 42.84375 42.21875 
Q 46.484375 45.515625 46.484375 51.90625 
Q 46.484375 58.296875 42.84375 61.546875 
Q 39.203125 64.796875 32.078125 64.796875 
z
" id="DejaVuSans-82"/>
      <path d="M 8.6875 72.90625 
L 18.609375 72.90625 
L 18.609375 28.609375 
Q 18.609375 16.890625 22.84375 11.734375 
Q 27.09375 6.59375 36.625 6.59375 
Q 46.09375 6.59375 50.34375 11.734375 
Q 54.59375 16.890625 54.59375 28.609375 
L 54.59375 72.90625 
L 64.5 72.90625 
L 64.5 27.390625 
Q 64.5 13.140625 57.4375 5.859375 
Q 50.390625 -1.421875 36.625 -1.421875 
Q 22.796875 -1.421875 15.734375 5.859375 
Q 8.6875 13.140625 8.6875 27.390625 
z
" id="DejaVuSans-85"/>
     </defs>
     <g transform="translate(507.804688 112.472812)scale(0.1 -0.1)">
      <use xlink:href="#DejaVuSans-71"/>
      <use x="77.490234" xlink:href="#DejaVuSans-82"/>
      <use x="146.972656" xlink:href="#DejaVuSans-85"/>
      <use x="220.166016" xlink:href="#DejaVuSans-45"/>
      <use x="256.25" xlink:href="#DejaVuSans-51"/>
      <use x="319.873047" xlink:href="#DejaVuSans-54"/>
      <use x="383.496094" xlink:href="#DejaVuSans-32"/>
      <use x="415.283203" xlink:href="#DejaVuSans-80"/>
      <use x="475.570312" xlink:href="#DejaVuSans-114"/>
      <use x="516.652344" xlink:href="#DejaVuSans-101"/>
      <use x="578.175781" xlink:href="#DejaVuSans-100"/>
      <use x="641.652344" xlink:href="#DejaVuSans-105"/>
      <use x="669.435547" xlink:href="#DejaVuSans-99"/>
      <use x="724.416016" xlink:href="#DejaVuSans-116"/>
      <use x="763.625" xlink:href="#DejaVuSans-105"/>
      <use x="791.408203" xlink:href="#DejaVuSans-111"/>
      <use x="852.589844" xlink:href="#DejaVuSans-110"/>
     </g>
    </g>
    <g id="line2d_36">
     <path d="M 479.804688 123.650937 
L 499.804688 123.650937 
" style="fill:none;stroke:#800080;stroke-linecap:square;stroke-width:1.5;"/>
    </g>
    <g id="line2d_37"/>
    <g id="text_19">
     <!-- RNN-36 Prediction -->
     <defs>
      <path d="M 9.8125 72.90625 
L 23.09375 72.90625 
L 55.421875 11.921875 
L 55.421875 72.90625 
L 64.984375 72.90625 
L 64.984375 0 
L 51.703125 0 
L 19.390625 60.984375 
L 19.390625 0 
L 9.8125 0 
z
" id="DejaVuSans-78"/>
     </defs>
     <g transform="translate(507.804688 127.150937)scale(0.1 -0.1)">
      <use xlink:href="#DejaVuSans-82"/>
      <use x="69.482422" xlink:href="#DejaVuSans-78"/>
      <use x="144.287109" xlink:href="#DejaVuSans-78"/>
      <use x="219.091797" xlink:href="#DejaVuSans-45"/>
      <use x="255.175781" xlink:href="#DejaVuSans-51"/>
      <use x="318.798828" xlink:href="#DejaVuSans-54"/>
      <use x="382.421875" xlink:href="#DejaVuSans-32"/>
      <use x="414.208984" xlink:href="#DejaVuSans-80"/>
      <use x="474.496094" xlink:href="#DejaVuSans-114"/>
      <use x="515.578125" xlink:href="#DejaVuSans-101"/>
      <use x="577.101562" xlink:href="#DejaVuSans-100"/>
      <use x="640.578125" xlink:href="#DejaVuSans-105"/>
      <use x="668.361328" xlink:href="#DejaVuSans-99"/>
      <use x="723.341797" xlink:href="#DejaVuSans-116"/>
      <use x="762.550781" xlink:href="#DejaVuSans-105"/>
      <use x="790.333984" xlink:href="#DejaVuSans-111"/>
      <use x="851.515625" xlink:href="#DejaVuSans-110"/>
     </g>
    </g>
   </g>
  </g>
 </g>
 <defs>
  <clipPath id="pb5eaeb335e">
   <rect height="332.64" width="558" x="90" y="51.84"/>
  </clipPath>
 </defs>
</svg>
