<?xml version="1.0" encoding="utf-8" standalone="no"?>
<!DOCTYPE svg PUBLIC "-//W3C//DTD SVG 1.1//EN"
  "http://www.w3.org/Graphics/SVG/1.1/DTD/svg11.dtd">
<!-- Created with matplotlib (https://matplotlib.org/) -->
<svg height="432pt" version="1.1" viewBox="0 0 720 432" width="720pt" xmlns="http://www.w3.org/2000/svg" xmlns:xlink="http://www.w3.org/1999/xlink">
 <defs>
  <style type="text/css">
*{stroke-linecap:butt;stroke-linejoin:round;}
  </style>
 </defs>
 <g id="figure_1">
  <g id="patch_1">
   <path d="M 0 432 
L 720 432 
L 720 0 
L 0 0 
z
" style="fill:#ffffff;"/>
  </g>
  <g id="axes_1">
   <g id="patch_2">
    <path d="M 90 384.48 
L 648 384.48 
L 648 51.84 
L 90 51.84 
z
" style="fill:#ffffff;"/>
   </g>
   <g id="matplotlib.axis_1">
    <g id="xtick_1">
     <g id="line2d_1">
      <path clip-path="url(#p66e120cb3c)" d="M 164.4 384.48 
L 164.4 51.84 
" style="fill:none;stroke:#b0b0b0;stroke-linecap:square;stroke-width:0.8;"/>
     </g>
     <g id="line2d_2">
      <defs>
       <path d="M 0 0 
L 0 3.5 
" id="mef47c2032a" style="stroke:#000000;stroke-width:0.8;"/>
      </defs>
      <g>
       <use style="stroke:#000000;stroke-width:0.8;" x="164.4" xlink:href="#mef47c2032a" y="384.48"/>
      </g>
     </g>
     <g id="text_1">
      <!-- 110 -->
      <defs>
       <path d="M 12.40625 8.296875 
L 28.515625 8.296875 
L 28.515625 63.921875 
L 10.984375 60.40625 
L 10.984375 69.390625 
L 28.421875 72.90625 
L 38.28125 72.90625 
L 38.28125 8.296875 
L 54.390625 8.296875 
L 54.390625 0 
L 12.40625 0 
z
" id="DejaVuSans-49"/>
       <path d="M 31.78125 66.40625 
Q 24.171875 66.40625 20.328125 58.90625 
Q 16.5 51.421875 16.5 36.375 
Q 16.5 21.390625 20.328125 13.890625 
Q 24.171875 6.390625 31.78125 6.390625 
Q 39.453125 6.390625 43.28125 13.890625 
Q 47.125 21.390625 47.125 36.375 
Q 47.125 51.421875 43.28125 58.90625 
Q 39.453125 66.40625 31.78125 66.40625 
z
M 31.78125 74.21875 
Q 44.046875 74.21875 50.515625 64.515625 
Q 56.984375 54.828125 56.984375 36.375 
Q 56.984375 17.96875 50.515625 8.265625 
Q 44.046875 -1.421875 31.78125 -1.421875 
Q 19.53125 -1.421875 13.0625 8.265625 
Q 6.59375 17.96875 6.59375 36.375 
Q 6.59375 54.828125 13.0625 64.515625 
Q 19.53125 74.21875 31.78125 74.21875 
z
" id="DejaVuSans-48"/>
      </defs>
      <g transform="translate(154.85625 399.078438)scale(0.1 -0.1)">
       <use xlink:href="#DejaVuSans-49"/>
       <use x="63.623047" xlink:href="#DejaVuSans-49"/>
       <use x="127.246094" xlink:href="#DejaVuSans-48"/>
      </g>
     </g>
    </g>
    <g id="xtick_2">
     <g id="line2d_3">
      <path clip-path="url(#p66e120cb3c)" d="M 257.4 384.48 
L 257.4 51.84 
" style="fill:none;stroke:#b0b0b0;stroke-linecap:square;stroke-width:0.8;"/>
     </g>
     <g id="line2d_4">
      <g>
       <use style="stroke:#000000;stroke-width:0.8;" x="257.4" xlink:href="#mef47c2032a" y="384.48"/>
      </g>
     </g>
     <g id="text_2">
      <!-- 115 -->
      <defs>
       <path d="M 10.796875 72.90625 
L 49.515625 72.90625 
L 49.515625 64.59375 
L 19.828125 64.59375 
L 19.828125 46.734375 
Q 21.96875 47.46875 24.109375 47.828125 
Q 26.265625 48.1875 28.421875 48.1875 
Q 40.625 48.1875 47.75 41.5 
Q 54.890625 34.8125 54.890625 23.390625 
Q 54.890625 11.625 47.5625 5.09375 
Q 40.234375 -1.421875 26.90625 -1.421875 
Q 22.3125 -1.421875 17.546875 -0.640625 
Q 12.796875 0.140625 7.71875 1.703125 
L 7.71875 11.625 
Q 12.109375 9.234375 16.796875 8.0625 
Q 21.484375 6.890625 26.703125 6.890625 
Q 35.15625 6.890625 40.078125 11.328125 
Q 45.015625 15.765625 45.015625 23.390625 
Q 45.015625 31 40.078125 35.4375 
Q 35.15625 39.890625 26.703125 39.890625 
Q 22.75 39.890625 18.8125 39.015625 
Q 14.890625 38.140625 10.796875 36.28125 
z
" id="DejaVuSans-53"/>
      </defs>
      <g transform="translate(247.85625 399.078438)scale(0.1 -0.1)">
       <use xlink:href="#DejaVuSans-49"/>
       <use x="63.623047" xlink:href="#DejaVuSans-49"/>
       <use x="127.246094" xlink:href="#DejaVuSans-53"/>
      </g>
     </g>
    </g>
    <g id="xtick_3">
     <g id="line2d_5">
      <path clip-path="url(#p66e120cb3c)" d="M 350.4 384.48 
L 350.4 51.84 
" style="fill:none;stroke:#b0b0b0;stroke-linecap:square;stroke-width:0.8;"/>
     </g>
     <g id="line2d_6">
      <g>
       <use style="stroke:#000000;stroke-width:0.8;" x="350.4" xlink:href="#mef47c2032a" y="384.48"/>
      </g>
     </g>
     <g id="text_3">
      <!-- 120 -->
      <defs>
       <path d="M 19.1875 8.296875 
L 53.609375 8.296875 
L 53.609375 0 
L 7.328125 0 
L 7.328125 8.296875 
Q 12.9375 14.109375 22.625 23.890625 
Q 32.328125 33.6875 34.8125 36.53125 
Q 39.546875 41.84375 41.421875 45.53125 
Q 43.3125 49.21875 43.3125 52.78125 
Q 43.3125 58.59375 39.234375 62.25 
Q 35.15625 65.921875 28.609375 65.921875 
Q 23.96875 65.921875 18.8125 64.3125 
Q 13.671875 62.703125 7.8125 59.421875 
L 7.8125 69.390625 
Q 13.765625 71.78125 18.9375 73 
Q 24.125 74.21875 28.421875 74.21875 
Q 39.75 74.21875 46.484375 68.546875 
Q 53.21875 62.890625 53.21875 53.421875 
Q 53.21875 48.921875 51.53125 44.890625 
Q 49.859375 40.875 45.40625 35.40625 
Q 44.1875 33.984375 37.640625 27.21875 
Q 31.109375 20.453125 19.1875 8.296875 
z
" id="DejaVuSans-50"/>
      </defs>
      <g transform="translate(340.85625 399.078438)scale(0.1 -0.1)">
       <use xlink:href="#DejaVuSans-49"/>
       <use x="63.623047" xlink:href="#DejaVuSans-50"/>
       <use x="127.246094" xlink:href="#DejaVuSans-48"/>
      </g>
     </g>
    </g>
    <g id="xtick_4">
     <g id="line2d_7">
      <path clip-path="url(#p66e120cb3c)" d="M 443.4 384.48 
L 443.4 51.84 
" style="fill:none;stroke:#b0b0b0;stroke-linecap:square;stroke-width:0.8;"/>
     </g>
     <g id="line2d_8">
      <g>
       <use style="stroke:#000000;stroke-width:0.8;" x="443.4" xlink:href="#mef47c2032a" y="384.48"/>
      </g>
     </g>
     <g id="text_4">
      <!-- 125 -->
      <g transform="translate(433.85625 399.078438)scale(0.1 -0.1)">
       <use xlink:href="#DejaVuSans-49"/>
       <use x="63.623047" xlink:href="#DejaVuSans-50"/>
       <use x="127.246094" xlink:href="#DejaVuSans-53"/>
      </g>
     </g>
    </g>
    <g id="xtick_5">
     <g id="line2d_9">
      <path clip-path="url(#p66e120cb3c)" d="M 536.4 384.48 
L 536.4 51.84 
" style="fill:none;stroke:#b0b0b0;stroke-linecap:square;stroke-width:0.8;"/>
     </g>
     <g id="line2d_10">
      <g>
       <use style="stroke:#000000;stroke-width:0.8;" x="536.4" xlink:href="#mef47c2032a" y="384.48"/>
      </g>
     </g>
     <g id="text_5">
      <!-- 130 -->
      <defs>
       <path d="M 40.578125 39.3125 
Q 47.65625 37.796875 51.625 33 
Q 55.609375 28.21875 55.609375 21.1875 
Q 55.609375 10.40625 48.1875 4.484375 
Q 40.765625 -1.421875 27.09375 -1.421875 
Q 22.515625 -1.421875 17.65625 -0.515625 
Q 12.796875 0.390625 7.625 2.203125 
L 7.625 11.71875 
Q 11.71875 9.328125 16.59375 8.109375 
Q 21.484375 6.890625 26.8125 6.890625 
Q 36.078125 6.890625 40.9375 10.546875 
Q 45.796875 14.203125 45.796875 21.1875 
Q 45.796875 27.640625 41.28125 31.265625 
Q 36.765625 34.90625 28.71875 34.90625 
L 20.21875 34.90625 
L 20.21875 43.015625 
L 29.109375 43.015625 
Q 36.375 43.015625 40.234375 45.921875 
Q 44.09375 48.828125 44.09375 54.296875 
Q 44.09375 59.90625 40.109375 62.90625 
Q 36.140625 65.921875 28.71875 65.921875 
Q 24.65625 65.921875 20.015625 65.03125 
Q 15.375 64.15625 9.8125 62.3125 
L 9.8125 71.09375 
Q 15.4375 72.65625 20.34375 73.4375 
Q 25.25 74.21875 29.59375 74.21875 
Q 40.828125 74.21875 47.359375 69.109375 
Q 53.90625 64.015625 53.90625 55.328125 
Q 53.90625 49.265625 50.4375 45.09375 
Q 46.96875 40.921875 40.578125 39.3125 
z
" id="DejaVuSans-51"/>
      </defs>
      <g transform="translate(526.85625 399.078438)scale(0.1 -0.1)">
       <use xlink:href="#DejaVuSans-49"/>
       <use x="63.623047" xlink:href="#DejaVuSans-51"/>
       <use x="127.246094" xlink:href="#DejaVuSans-48"/>
      </g>
     </g>
    </g>
    <g id="xtick_6">
     <g id="line2d_11">
      <path clip-path="url(#p66e120cb3c)" d="M 629.4 384.48 
L 629.4 51.84 
" style="fill:none;stroke:#b0b0b0;stroke-linecap:square;stroke-width:0.8;"/>
     </g>
     <g id="line2d_12">
      <g>
       <use style="stroke:#000000;stroke-width:0.8;" x="629.4" xlink:href="#mef47c2032a" y="384.48"/>
      </g>
     </g>
     <g id="text_6">
      <!-- 135 -->
      <g transform="translate(619.85625 399.078438)scale(0.1 -0.1)">
       <use xlink:href="#DejaVuSans-49"/>
       <use x="63.623047" xlink:href="#DejaVuSans-51"/>
       <use x="127.246094" xlink:href="#DejaVuSans-53"/>
      </g>
     </g>
    </g>
    <g id="text_7">
     <!-- Time /ms -->
     <defs>
      <path d="M -0.296875 72.90625 
L 61.375 72.90625 
L 61.375 64.59375 
L 35.5 64.59375 
L 35.5 0 
L 25.59375 0 
L 25.59375 64.59375 
L -0.296875 64.59375 
z
" id="DejaVuSans-84"/>
      <path d="M 9.421875 54.6875 
L 18.40625 54.6875 
L 18.40625 0 
L 9.421875 0 
z
M 9.421875 75.984375 
L 18.40625 75.984375 
L 18.40625 64.59375 
L 9.421875 64.59375 
z
" id="DejaVuSans-105"/>
      <path d="M 52 44.1875 
Q 55.375 50.25 60.0625 53.125 
Q 64.75 56 71.09375 56 
Q 79.640625 56 84.28125 50.015625 
Q 88.921875 44.046875 88.921875 33.015625 
L 88.921875 0 
L 79.890625 0 
L 79.890625 32.71875 
Q 79.890625 40.578125 77.09375 44.375 
Q 74.3125 48.1875 68.609375 48.1875 
Q 61.625 48.1875 57.5625 43.546875 
Q 53.515625 38.921875 53.515625 30.90625 
L 53.515625 0 
L 44.484375 0 
L 44.484375 32.71875 
Q 44.484375 40.625 41.703125 44.40625 
Q 38.921875 48.1875 33.109375 48.1875 
Q 26.21875 48.1875 22.15625 43.53125 
Q 18.109375 38.875 18.109375 30.90625 
L 18.109375 0 
L 9.078125 0 
L 9.078125 54.6875 
L 18.109375 54.6875 
L 18.109375 46.1875 
Q 21.1875 51.21875 25.484375 53.609375 
Q 29.78125 56 35.6875 56 
Q 41.65625 56 45.828125 52.96875 
Q 50 49.953125 52 44.1875 
z
" id="DejaVuSans-109"/>
      <path d="M 56.203125 29.59375 
L 56.203125 25.203125 
L 14.890625 25.203125 
Q 15.484375 15.921875 20.484375 11.0625 
Q 25.484375 6.203125 34.421875 6.203125 
Q 39.59375 6.203125 44.453125 7.46875 
Q 49.3125 8.734375 54.109375 11.28125 
L 54.109375 2.78125 
Q 49.265625 0.734375 44.1875 -0.34375 
Q 39.109375 -1.421875 33.890625 -1.421875 
Q 20.796875 -1.421875 13.15625 6.1875 
Q 5.515625 13.8125 5.515625 26.8125 
Q 5.515625 40.234375 12.765625 48.109375 
Q 20.015625 56 32.328125 56 
Q 43.359375 56 49.78125 48.890625 
Q 56.203125 41.796875 56.203125 29.59375 
z
M 47.21875 32.234375 
Q 47.125 39.59375 43.09375 43.984375 
Q 39.0625 48.390625 32.421875 48.390625 
Q 24.90625 48.390625 20.390625 44.140625 
Q 15.875 39.890625 15.1875 32.171875 
z
" id="DejaVuSans-101"/>
      <path id="DejaVuSans-32"/>
      <path d="M 25.390625 72.90625 
L 33.6875 72.90625 
L 8.296875 -9.28125 
L 0 -9.28125 
z
" id="DejaVuSans-47"/>
      <path d="M 44.28125 53.078125 
L 44.28125 44.578125 
Q 40.484375 46.53125 36.375 47.5 
Q 32.28125 48.484375 27.875 48.484375 
Q 21.1875 48.484375 17.84375 46.4375 
Q 14.5 44.390625 14.5 40.28125 
Q 14.5 37.15625 16.890625 35.375 
Q 19.28125 33.59375 26.515625 31.984375 
L 29.59375 31.296875 
Q 39.15625 29.25 43.1875 25.515625 
Q 47.21875 21.78125 47.21875 15.09375 
Q 47.21875 7.46875 41.1875 3.015625 
Q 35.15625 -1.421875 24.609375 -1.421875 
Q 20.21875 -1.421875 15.453125 -0.5625 
Q 10.6875 0.296875 5.421875 2 
L 5.421875 11.28125 
Q 10.40625 8.6875 15.234375 7.390625 
Q 20.0625 6.109375 24.8125 6.109375 
Q 31.15625 6.109375 34.5625 8.28125 
Q 37.984375 10.453125 37.984375 14.40625 
Q 37.984375 18.0625 35.515625 20.015625 
Q 33.0625 21.96875 24.703125 23.78125 
L 21.578125 24.515625 
Q 13.234375 26.265625 9.515625 29.90625 
Q 5.8125 33.546875 5.8125 39.890625 
Q 5.8125 47.609375 11.28125 51.796875 
Q 16.75 56 26.8125 56 
Q 31.78125 56 36.171875 55.265625 
Q 40.578125 54.546875 44.28125 53.078125 
z
" id="DejaVuSans-115"/>
     </defs>
     <g transform="translate(345.864062 412.756563)scale(0.1 -0.1)">
      <use xlink:href="#DejaVuSans-84"/>
      <use x="61.037109" xlink:href="#DejaVuSans-105"/>
      <use x="88.820312" xlink:href="#DejaVuSans-109"/>
      <use x="186.232422" xlink:href="#DejaVuSans-101"/>
      <use x="247.755859" xlink:href="#DejaVuSans-32"/>
      <use x="279.542969" xlink:href="#DejaVuSans-47"/>
      <use x="313.234375" xlink:href="#DejaVuSans-109"/>
      <use x="410.646484" xlink:href="#DejaVuSans-115"/>
     </g>
    </g>
   </g>
   <g id="matplotlib.axis_2">
    <g id="ytick_1">
     <g id="line2d_13">
      <path clip-path="url(#p66e120cb3c)" d="M 90 345.439565 
L 648 345.439565 
" style="fill:none;stroke:#b0b0b0;stroke-linecap:square;stroke-width:0.8;"/>
     </g>
     <g id="line2d_14">
      <defs>
       <path d="M 0 0 
L -3.5 0 
" id="md20a404c9d" style="stroke:#000000;stroke-width:0.8;"/>
      </defs>
      <g>
       <use style="stroke:#000000;stroke-width:0.8;" x="90" xlink:href="#md20a404c9d" y="345.439565"/>
      </g>
     </g>
     <g id="text_8">
      <!-- 0 -->
      <g transform="translate(76.6375 349.238784)scale(0.1 -0.1)">
       <use xlink:href="#DejaVuSans-48"/>
      </g>
     </g>
    </g>
    <g id="ytick_2">
     <g id="line2d_15">
      <path clip-path="url(#p66e120cb3c)" d="M 90 283.134882 
L 648 283.134882 
" style="fill:none;stroke:#b0b0b0;stroke-linecap:square;stroke-width:0.8;"/>
     </g>
     <g id="line2d_16">
      <g>
       <use style="stroke:#000000;stroke-width:0.8;" x="90" xlink:href="#md20a404c9d" y="283.134882"/>
      </g>
     </g>
     <g id="text_9">
      <!-- 2 -->
      <g transform="translate(76.6375 286.934101)scale(0.1 -0.1)">
       <use xlink:href="#DejaVuSans-50"/>
      </g>
     </g>
    </g>
    <g id="ytick_3">
     <g id="line2d_17">
      <path clip-path="url(#p66e120cb3c)" d="M 90 220.830199 
L 648 220.830199 
" style="fill:none;stroke:#b0b0b0;stroke-linecap:square;stroke-width:0.8;"/>
     </g>
     <g id="line2d_18">
      <g>
       <use style="stroke:#000000;stroke-width:0.8;" x="90" xlink:href="#md20a404c9d" y="220.830199"/>
      </g>
     </g>
     <g id="text_10">
      <!-- 4 -->
      <defs>
       <path d="M 37.796875 64.3125 
L 12.890625 25.390625 
L 37.796875 25.390625 
z
M 35.203125 72.90625 
L 47.609375 72.90625 
L 47.609375 25.390625 
L 58.015625 25.390625 
L 58.015625 17.1875 
L 47.609375 17.1875 
L 47.609375 0 
L 37.796875 0 
L 37.796875 17.1875 
L 4.890625 17.1875 
L 4.890625 26.703125 
z
" id="DejaVuSans-52"/>
      </defs>
      <g transform="translate(76.6375 224.629417)scale(0.1 -0.1)">
       <use xlink:href="#DejaVuSans-52"/>
      </g>
     </g>
    </g>
    <g id="ytick_4">
     <g id="line2d_19">
      <path clip-path="url(#p66e120cb3c)" d="M 90 158.525515 
L 648 158.525515 
" style="fill:none;stroke:#b0b0b0;stroke-linecap:square;stroke-width:0.8;"/>
     </g>
     <g id="line2d_20">
      <g>
       <use style="stroke:#000000;stroke-width:0.8;" x="90" xlink:href="#md20a404c9d" y="158.525515"/>
      </g>
     </g>
     <g id="text_11">
      <!-- 6 -->
      <defs>
       <path d="M 33.015625 40.375 
Q 26.375 40.375 22.484375 35.828125 
Q 18.609375 31.296875 18.609375 23.390625 
Q 18.609375 15.53125 22.484375 10.953125 
Q 26.375 6.390625 33.015625 6.390625 
Q 39.65625 6.390625 43.53125 10.953125 
Q 47.40625 15.53125 47.40625 23.390625 
Q 47.40625 31.296875 43.53125 35.828125 
Q 39.65625 40.375 33.015625 40.375 
z
M 52.59375 71.296875 
L 52.59375 62.3125 
Q 48.875 64.0625 45.09375 64.984375 
Q 41.3125 65.921875 37.59375 65.921875 
Q 27.828125 65.921875 22.671875 59.328125 
Q 17.53125 52.734375 16.796875 39.40625 
Q 19.671875 43.65625 24.015625 45.921875 
Q 28.375 48.1875 33.59375 48.1875 
Q 44.578125 48.1875 50.953125 41.515625 
Q 57.328125 34.859375 57.328125 23.390625 
Q 57.328125 12.15625 50.6875 5.359375 
Q 44.046875 -1.421875 33.015625 -1.421875 
Q 20.359375 -1.421875 13.671875 8.265625 
Q 6.984375 17.96875 6.984375 36.375 
Q 6.984375 53.65625 15.1875 63.9375 
Q 23.390625 74.21875 37.203125 74.21875 
Q 40.921875 74.21875 44.703125 73.484375 
Q 48.484375 72.75 52.59375 71.296875 
z
" id="DejaVuSans-54"/>
      </defs>
      <g transform="translate(76.6375 162.324734)scale(0.1 -0.1)">
       <use xlink:href="#DejaVuSans-54"/>
      </g>
     </g>
    </g>
    <g id="ytick_5">
     <g id="line2d_21">
      <path clip-path="url(#p66e120cb3c)" d="M 90 96.220832 
L 648 96.220832 
" style="fill:none;stroke:#b0b0b0;stroke-linecap:square;stroke-width:0.8;"/>
     </g>
     <g id="line2d_22">
      <g>
       <use style="stroke:#000000;stroke-width:0.8;" x="90" xlink:href="#md20a404c9d" y="96.220832"/>
      </g>
     </g>
     <g id="text_12">
      <!-- 8 -->
      <defs>
       <path d="M 31.78125 34.625 
Q 24.75 34.625 20.71875 30.859375 
Q 16.703125 27.09375 16.703125 20.515625 
Q 16.703125 13.921875 20.71875 10.15625 
Q 24.75 6.390625 31.78125 6.390625 
Q 38.8125 6.390625 42.859375 10.171875 
Q 46.921875 13.96875 46.921875 20.515625 
Q 46.921875 27.09375 42.890625 30.859375 
Q 38.875 34.625 31.78125 34.625 
z
M 21.921875 38.8125 
Q 15.578125 40.375 12.03125 44.71875 
Q 8.5 49.078125 8.5 55.328125 
Q 8.5 64.0625 14.71875 69.140625 
Q 20.953125 74.21875 31.78125 74.21875 
Q 42.671875 74.21875 48.875 69.140625 
Q 55.078125 64.0625 55.078125 55.328125 
Q 55.078125 49.078125 51.53125 44.71875 
Q 48 40.375 41.703125 38.8125 
Q 48.828125 37.15625 52.796875 32.3125 
Q 56.78125 27.484375 56.78125 20.515625 
Q 56.78125 9.90625 50.3125 4.234375 
Q 43.84375 -1.421875 31.78125 -1.421875 
Q 19.734375 -1.421875 13.25 4.234375 
Q 6.78125 9.90625 6.78125 20.515625 
Q 6.78125 27.484375 10.78125 32.3125 
Q 14.796875 37.15625 21.921875 38.8125 
z
M 18.3125 54.390625 
Q 18.3125 48.734375 21.84375 45.5625 
Q 25.390625 42.390625 31.78125 42.390625 
Q 38.140625 42.390625 41.71875 45.5625 
Q 45.3125 48.734375 45.3125 54.390625 
Q 45.3125 60.0625 41.71875 63.234375 
Q 38.140625 66.40625 31.78125 66.40625 
Q 25.390625 66.40625 21.84375 63.234375 
Q 18.3125 60.0625 18.3125 54.390625 
z
" id="DejaVuSans-56"/>
      </defs>
      <g transform="translate(76.6375 100.020051)scale(0.1 -0.1)">
       <use xlink:href="#DejaVuSans-56"/>
      </g>
     </g>
    </g>
    <g id="text_13">
     <!-- Channel impulse response -->
     <defs>
      <path d="M 64.40625 67.28125 
L 64.40625 56.890625 
Q 59.421875 61.53125 53.78125 63.8125 
Q 48.140625 66.109375 41.796875 66.109375 
Q 29.296875 66.109375 22.65625 58.46875 
Q 16.015625 50.828125 16.015625 36.375 
Q 16.015625 21.96875 22.65625 14.328125 
Q 29.296875 6.6875 41.796875 6.6875 
Q 48.140625 6.6875 53.78125 8.984375 
Q 59.421875 11.28125 64.40625 15.921875 
L 64.40625 5.609375 
Q 59.234375 2.09375 53.4375 0.328125 
Q 47.65625 -1.421875 41.21875 -1.421875 
Q 24.65625 -1.421875 15.125 8.703125 
Q 5.609375 18.84375 5.609375 36.375 
Q 5.609375 53.953125 15.125 64.078125 
Q 24.65625 74.21875 41.21875 74.21875 
Q 47.75 74.21875 53.53125 72.484375 
Q 59.328125 70.75 64.40625 67.28125 
z
" id="DejaVuSans-67"/>
      <path d="M 54.890625 33.015625 
L 54.890625 0 
L 45.90625 0 
L 45.90625 32.71875 
Q 45.90625 40.484375 42.875 44.328125 
Q 39.84375 48.1875 33.796875 48.1875 
Q 26.515625 48.1875 22.3125 43.546875 
Q 18.109375 38.921875 18.109375 30.90625 
L 18.109375 0 
L 9.078125 0 
L 9.078125 75.984375 
L 18.109375 75.984375 
L 18.109375 46.1875 
Q 21.34375 51.125 25.703125 53.5625 
Q 30.078125 56 35.796875 56 
Q 45.21875 56 50.046875 50.171875 
Q 54.890625 44.34375 54.890625 33.015625 
z
" id="DejaVuSans-104"/>
      <path d="M 34.28125 27.484375 
Q 23.390625 27.484375 19.1875 25 
Q 14.984375 22.515625 14.984375 16.5 
Q 14.984375 11.71875 18.140625 8.90625 
Q 21.296875 6.109375 26.703125 6.109375 
Q 34.1875 6.109375 38.703125 11.40625 
Q 43.21875 16.703125 43.21875 25.484375 
L 43.21875 27.484375 
z
M 52.203125 31.203125 
L 52.203125 0 
L 43.21875 0 
L 43.21875 8.296875 
Q 40.140625 3.328125 35.546875 0.953125 
Q 30.953125 -1.421875 24.3125 -1.421875 
Q 15.921875 -1.421875 10.953125 3.296875 
Q 6 8.015625 6 15.921875 
Q 6 25.140625 12.171875 29.828125 
Q 18.359375 34.515625 30.609375 34.515625 
L 43.21875 34.515625 
L 43.21875 35.40625 
Q 43.21875 41.609375 39.140625 45 
Q 35.0625 48.390625 27.6875 48.390625 
Q 23 48.390625 18.546875 47.265625 
Q 14.109375 46.140625 10.015625 43.890625 
L 10.015625 52.203125 
Q 14.9375 54.109375 19.578125 55.046875 
Q 24.21875 56 28.609375 56 
Q 40.484375 56 46.34375 49.84375 
Q 52.203125 43.703125 52.203125 31.203125 
z
" id="DejaVuSans-97"/>
      <path d="M 54.890625 33.015625 
L 54.890625 0 
L 45.90625 0 
L 45.90625 32.71875 
Q 45.90625 40.484375 42.875 44.328125 
Q 39.84375 48.1875 33.796875 48.1875 
Q 26.515625 48.1875 22.3125 43.546875 
Q 18.109375 38.921875 18.109375 30.90625 
L 18.109375 0 
L 9.078125 0 
L 9.078125 54.6875 
L 18.109375 54.6875 
L 18.109375 46.1875 
Q 21.34375 51.125 25.703125 53.5625 
Q 30.078125 56 35.796875 56 
Q 45.21875 56 50.046875 50.171875 
Q 54.890625 44.34375 54.890625 33.015625 
z
" id="DejaVuSans-110"/>
      <path d="M 9.421875 75.984375 
L 18.40625 75.984375 
L 18.40625 0 
L 9.421875 0 
z
" id="DejaVuSans-108"/>
      <path d="M 18.109375 8.203125 
L 18.109375 -20.796875 
L 9.078125 -20.796875 
L 9.078125 54.6875 
L 18.109375 54.6875 
L 18.109375 46.390625 
Q 20.953125 51.265625 25.265625 53.625 
Q 29.59375 56 35.59375 56 
Q 45.5625 56 51.78125 48.09375 
Q 58.015625 40.1875 58.015625 27.296875 
Q 58.015625 14.40625 51.78125 6.484375 
Q 45.5625 -1.421875 35.59375 -1.421875 
Q 29.59375 -1.421875 25.265625 0.953125 
Q 20.953125 3.328125 18.109375 8.203125 
z
M 48.6875 27.296875 
Q 48.6875 37.203125 44.609375 42.84375 
Q 40.53125 48.484375 33.40625 48.484375 
Q 26.265625 48.484375 22.1875 42.84375 
Q 18.109375 37.203125 18.109375 27.296875 
Q 18.109375 17.390625 22.1875 11.75 
Q 26.265625 6.109375 33.40625 6.109375 
Q 40.53125 6.109375 44.609375 11.75 
Q 48.6875 17.390625 48.6875 27.296875 
z
" id="DejaVuSans-112"/>
      <path d="M 8.5 21.578125 
L 8.5 54.6875 
L 17.484375 54.6875 
L 17.484375 21.921875 
Q 17.484375 14.15625 20.5 10.265625 
Q 23.53125 6.390625 29.59375 6.390625 
Q 36.859375 6.390625 41.078125 11.03125 
Q 45.3125 15.671875 45.3125 23.6875 
L 45.3125 54.6875 
L 54.296875 54.6875 
L 54.296875 0 
L 45.3125 0 
L 45.3125 8.40625 
Q 42.046875 3.421875 37.71875 1 
Q 33.40625 -1.421875 27.6875 -1.421875 
Q 18.265625 -1.421875 13.375 4.4375 
Q 8.5 10.296875 8.5 21.578125 
z
M 31.109375 56 
z
" id="DejaVuSans-117"/>
      <path d="M 41.109375 46.296875 
Q 39.59375 47.171875 37.8125 47.578125 
Q 36.03125 48 33.890625 48 
Q 26.265625 48 22.1875 43.046875 
Q 18.109375 38.09375 18.109375 28.8125 
L 18.109375 0 
L 9.078125 0 
L 9.078125 54.6875 
L 18.109375 54.6875 
L 18.109375 46.1875 
Q 20.953125 51.171875 25.484375 53.578125 
Q 30.03125 56 36.53125 56 
Q 37.453125 56 38.578125 55.875 
Q 39.703125 55.765625 41.0625 55.515625 
z
" id="DejaVuSans-114"/>
      <path d="M 30.609375 48.390625 
Q 23.390625 48.390625 19.1875 42.75 
Q 14.984375 37.109375 14.984375 27.296875 
Q 14.984375 17.484375 19.15625 11.84375 
Q 23.34375 6.203125 30.609375 6.203125 
Q 37.796875 6.203125 41.984375 11.859375 
Q 46.1875 17.53125 46.1875 27.296875 
Q 46.1875 37.015625 41.984375 42.703125 
Q 37.796875 48.390625 30.609375 48.390625 
z
M 30.609375 56 
Q 42.328125 56 49.015625 48.375 
Q 55.71875 40.765625 55.71875 27.296875 
Q 55.71875 13.875 49.015625 6.21875 
Q 42.328125 -1.421875 30.609375 -1.421875 
Q 18.84375 -1.421875 12.171875 6.21875 
Q 5.515625 13.875 5.515625 27.296875 
Q 5.515625 40.765625 12.171875 48.375 
Q 18.84375 56 30.609375 56 
z
" id="DejaVuSans-111"/>
     </defs>
     <g transform="translate(70.557812 284.356875)rotate(-90)scale(0.1 -0.1)">
      <use xlink:href="#DejaVuSans-67"/>
      <use x="69.824219" xlink:href="#DejaVuSans-104"/>
      <use x="133.203125" xlink:href="#DejaVuSans-97"/>
      <use x="194.482422" xlink:href="#DejaVuSans-110"/>
      <use x="257.861328" xlink:href="#DejaVuSans-110"/>
      <use x="321.240234" xlink:href="#DejaVuSans-101"/>
      <use x="382.763672" xlink:href="#DejaVuSans-108"/>
      <use x="410.546875" xlink:href="#DejaVuSans-32"/>
      <use x="442.333984" xlink:href="#DejaVuSans-105"/>
      <use x="470.117188" xlink:href="#DejaVuSans-109"/>
      <use x="567.529297" xlink:href="#DejaVuSans-112"/>
      <use x="631.005859" xlink:href="#DejaVuSans-117"/>
      <use x="694.384766" xlink:href="#DejaVuSans-108"/>
      <use x="722.167969" xlink:href="#DejaVuSans-115"/>
      <use x="774.267578" xlink:href="#DejaVuSans-101"/>
      <use x="835.791016" xlink:href="#DejaVuSans-32"/>
      <use x="867.578125" xlink:href="#DejaVuSans-114"/>
      <use x="908.660156" xlink:href="#DejaVuSans-101"/>
      <use x="970.183594" xlink:href="#DejaVuSans-115"/>
      <use x="1022.283203" xlink:href="#DejaVuSans-112"/>
      <use x="1085.759766" xlink:href="#DejaVuSans-111"/>
      <use x="1146.941406" xlink:href="#DejaVuSans-110"/>
      <use x="1210.320312" xlink:href="#DejaVuSans-115"/>
      <use x="1262.419922" xlink:href="#DejaVuSans-101"/>
     </g>
    </g>
   </g>
   <g id="line2d_23">
    <path clip-path="url(#p66e120cb3c)" d="M 88.8375 350.812555 
L 112.0875 351.167194 
L 115.575 351.27196 
L 117.9 351.155835 
L 150.45 352.816342 
L 166.725 353.410344 
L 169.05 353.323483 
L 176.025 353.499126 
L 179.5125 353.498211 
L 183 353.465696 
L 184.1625 353.624666 
L 192.3 353.686377 
L 195.7875 353.959813 
L 196.95 354.884024 
L 198.1125 356.999045 
L 199.275 357.144805 
L 200.4375 355.512245 
L 201.6 321.131812 
L 202.7625 318.224367 
L 203.925 322.921765 
L 205.0875 344.289481 
L 206.25 357.268726 
L 207.4125 367.381104 
L 208.575 369.36 
L 209.7375 367.632964 
L 210.9 366.590771 
L 212.0625 364.213663 
L 213.225 336.919986 
L 214.3875 316.206374 
L 215.55 318.407279 
L 216.7125 320.191333 
L 217.875 321.63078 
L 219.0375 318.954983 
L 220.2 316.678992 
L 222.525 318.77411 
L 223.6875 319.396955 
L 224.85 320.352848 
L 226.0125 321.052522 
L 227.175 321.408769 
L 228.3375 322.012885 
L 229.5 322.00189 
L 230.6625 322.60699 
L 231.825 323.836678 
L 232.9875 321.130223 
L 234.15 320.400599 
L 235.3125 320.873883 
L 236.475 320.97647 
L 237.6375 321.627651 
L 238.8 321.756177 
L 239.9625 320.65327 
L 242.2875 321.711 
L 244.6125 322.085509 
L 245.775 322.510621 
L 246.9375 322.548675 
L 249.2625 323.257844 
L 250.425 323.152728 
L 251.5875 323.263866 
L 253.9125 323.936179 
L 255.075 323.849822 
L 256.2375 324.085067 
L 259.725 324.487957 
L 260.8875 324.691675 
L 262.05 324.626318 
L 264.375 324.798951 
L 265.5375 325.174483 
L 266.7 325.3081 
L 267.8625 328.070551 
L 269.025 334.276084 
L 270.1875 334.320137 
L 271.35 335.242303 
L 272.5125 336.367974 
L 273.675 333.67297 
L 274.8375 331.482081 
L 276 327.109773 
L 277.1625 326.002025 
L 278.325 325.731773 
L 279.4875 328.752056 
L 280.65 329.702395 
L 281.8125 332.145885 
L 282.975 326.333739 
L 284.1375 334.117427 
L 285.3 339.972319 
L 286.4625 341.532181 
L 287.625 342.468122 
L 288.7875 338.460839 
L 289.95 330.711542 
L 291.1125 341.960335 
L 292.275 335.277755 
L 293.4375 341.323215 
L 294.6 345.207204 
L 295.7625 341.548071 
L 296.925 335.550938 
L 298.0875 339.438628 
L 299.25 344.376122 
L 300.4125 345.727834 
L 301.575 340.87254 
L 302.7375 338.935288 
L 303.9 340.078433 
L 305.0625 335.165915 
L 306.225 334.364504 
L 307.3875 338.421007 
L 308.55 339.264639 
L 309.7125 343.986915 
L 310.875 344.3118 
L 312.0375 337.375781 
L 313.2 342.789538 
L 314.3625 344.426115 
L 315.525 339.228369 
L 316.6875 337.615456 
L 317.85 337.190139 
L 319.0125 335.894564 
L 320.175 338.404512 
L 321.3375 341.411527 
L 322.5 341.855276 
L 323.6625 338.407325 
L 324.825 339.873761 
L 325.9875 341.548231 
L 327.15 339.624942 
L 328.3125 336.485701 
L 329.475 339.936898 
L 330.6375 340.114599 
L 331.8 337.495663 
L 332.9625 336.635261 
L 334.125 336.148589 
L 335.2875 336.91212 
L 336.45 342.102215 
L 337.6125 343.171315 
L 338.775 341.774238 
L 339.9375 342.71 
L 341.1 338.1461 
L 342.2625 341.033486 
L 343.425 342.977737 
L 344.5875 344.032539 
L 345.75 344.793815 
L 346.9125 342.699257 
L 348.075 342.453732 
L 350.4 346.225512 
L 351.5625 345.685895 
L 352.725 345.312253 
L 353.8875 344.641522 
L 355.05 343.654289 
L 356.2125 344.563246 
L 357.375 344.165341 
L 358.5375 343.624367 
L 359.7 346.457284 
L 360.8625 348.105916 
L 362.025 347.45446 
L 363.1875 343.632468 
L 364.35 347.944848 
L 365.5125 346.914265 
L 366.675 344.603777 
L 367.8375 348.920519 
L 369 349.256596 
L 370.1625 346.317157 
L 371.325 347.607728 
L 372.4875 348.568325 
L 373.65 347.411047 
L 374.8125 346.606749 
L 375.975 347.436955 
L 377.1375 348.125549 
L 378.3 347.707049 
L 379.4625 347.691924 
L 381.7875 347.231777 
L 382.95 347.676355 
L 384.1125 349.312344 
L 385.275 348.796333 
L 386.4375 347.891492 
L 387.6 348.482103 
L 391.0875 347.720876 
L 394.575 347.76582 
L 396.9 347.998385 
L 398.0625 349.193448 
L 399.225 348.886936 
L 400.3875 348.306639 
L 401.55 348.299099 
L 402.7125 348.123271 
L 406.2 348.161134 
L 407.3625 348.973148 
L 408.525 349.34231 
L 409.6875 348.703282 
L 410.85 349.121896 
L 412.0125 348.719574 
L 413.175 348.743666 
L 414.3375 349.388142 
L 415.5 348.975907 
L 416.6625 348.844617 
L 417.825 349.300587 
L 418.9875 349.542814 
L 420.15 348.781315 
L 421.3125 348.822685 
L 422.475 348.321106 
L 423.6375 349.022438 
L 424.8 349.152446 
L 425.9625 348.796323 
L 427.125 349.080942 
L 428.2875 348.735609 
L 429.45 349.059354 
L 430.6125 349.195395 
L 432.9375 348.647483 
L 434.1 348.606333 
L 435.2625 347.349072 
L 437.5875 347.453629 
L 438.75 347.835179 
L 439.9125 347.551185 
L 441.075 348.000345 
L 442.2375 348.897918 
L 444.5625 347.722718 
L 446.8875 347.628507 
L 448.05 348.286257 
L 449.2125 348.23323 
L 450.375 347.877043 
L 451.5375 348.113859 
L 452.7 348.070912 
L 453.8625 348.382022 
L 455.025 348.420564 
L 456.1875 348.202474 
L 460.8375 347.91997 
L 462 347.74898 
L 463.1625 348.072523 
L 465.4875 348.459101 
L 466.65 348.416282 
L 467.8125 348.08049 
L 468.975 348.094215 
L 470.1375 347.961549 
L 473.625 348.153003 
L 474.7875 348.805941 
L 477.1125 349.160486 
L 478.275 348.663605 
L 479.4375 348.492533 
L 481.7625 348.664368 
L 484.0875 348.60491 
L 486.4125 348.884071 
L 488.7375 348.718844 
L 489.9 348.720687 
L 491.0625 348.935584 
L 493.3875 348.697842 
L 495.7125 348.800207 
L 496.875 348.810715 
L 501.525 349.230676 
L 503.85 349.034267 
L 507.3375 349.017995 
L 511.9875 349.101168 
L 514.3125 349.576425 
L 517.8 349.270905 
L 518.9625 349.55016 
L 520.125 349.648738 
L 521.2875 349.612779 
L 522.45 349.755136 
L 525.9375 349.503995 
L 528.2625 349.568339 
L 537.5625 349.346647 
L 539.8875 349.569974 
L 542.2125 349.729219 
L 545.7 350.023417 
L 546.8625 350.407626 
L 553.8375 350.491261 
L 555 350.581317 
L 557.325 350.586157 
L 559.65 350.685616 
L 564.3 350.615731 
L 565.4625 350.498952 
L 577.0875 350.782049 
L 579.4125 351.068588 
L 581.7375 350.999757 
L 585.225 351.290884 
L 588.7125 351.399104 
L 591.0375 351.54346 
L 594.525 351.662172 
L 601.5 351.489132 
L 602.6625 351.718996 
L 604.9875 351.540654 
L 609.6375 351.395583 
L 614.2875 351.739824 
L 615.45 351.581217 
L 616.6125 351.596485 
L 617.775 351.431424 
L 618.9375 351.422801 
L 621.2625 351.587734 
L 627.075 351.394949 
L 628.2375 351.65435 
L 629.4 351.387133 
L 629.4 351.387133 
" style="fill:none;stroke:#ff0000;stroke-linecap:square;stroke-width:1.5;"/>
   </g>
   <g id="line2d_24">
    <path clip-path="url(#p66e120cb3c)" d="M 88.8375 355.206216 
L 90 355.463111 
L 91.1625 355.459983 
L 93.4875 355.181288 
L 98.1375 355.062523 
L 99.3 355.248615 
L 100.4625 355.284897 
L 101.625 355.204489 
L 102.7875 354.593071 
L 103.95 353.727479 
L 105.1125 353.522803 
L 107.4375 353.770457 
L 109.7625 354.595338 
L 110.925 354.891785 
L 112.0875 354.465343 
L 113.25 353.720469 
L 114.4125 353.717354 
L 115.575 354.27893 
L 116.7375 354.501174 
L 119.0625 355.590151 
L 120.225 355.780397 
L 121.3875 355.427371 
L 123.7125 354.322308 
L 124.875 354.500332 
L 126.0375 354.117679 
L 128.3625 354.841435 
L 130.6875 355.06476 
L 133.0125 354.219399 
L 134.175 354.287887 
L 135.3375 353.838397 
L 136.5 352.558977 
L 137.6625 352.228182 
L 138.825 352.015303 
L 139.9875 350.307925 
L 141.15 349.564313 
L 142.3125 349.107179 
L 143.475 347.785772 
L 144.6375 345.752124 
L 145.8 345.290627 
L 146.9625 342.255922 
L 148.125 338.22258 
L 149.2875 334.923555 
L 150.45 334.291114 
L 151.6125 332.971765 
L 152.775 315.365896 
L 155.1 237.953601 
L 156.2625 192.600858 
L 157.425 142.631083 
L 158.5875 124.885398 
L 159.75 138.009871 
L 160.9125 163.032377 
L 162.075 196.024897 
L 163.2375 244.44443 
L 164.4 263.117609 
L 165.5625 270.289996 
L 166.725 257.167657 
L 167.8875 261.544255 
L 169.05 227.509097 
L 171.375 123.641163 
L 173.7 66.96 
L 174.8625 88.840979 
L 176.025 106.828074 
L 177.1875 153.065874 
L 178.35 168.695141 
L 179.5125 140.805721 
L 180.675 131.924363 
L 181.8375 174.826699 
L 183 181.137618 
L 184.1625 195.123519 
L 185.325 235.177547 
L 186.4875 247.049223 
L 187.65 250.188368 
L 188.8125 258.67161 
L 191.1375 305.044151 
L 192.3 308.350045 
L 193.4625 307.788776 
L 194.625 301.634758 
L 195.7875 289.144206 
L 196.95 286.407748 
L 198.1125 281.681341 
L 199.275 275.580085 
L 200.4375 285.223434 
L 201.6 297.026301 
L 202.7625 298.614047 
L 203.925 310.72302 
L 205.0875 320.952733 
L 206.25 318.163911 
L 207.4125 312.520585 
L 208.575 311.079248 
L 209.7375 304.863252 
L 210.9 300.615436 
L 212.0625 303.713204 
L 213.225 312.735167 
L 214.3875 310.869468 
L 215.55 310.669424 
L 216.7125 316.970634 
L 217.875 322.215795 
L 219.0375 324.043422 
L 220.2 329.108006 
L 221.3625 326.063857 
L 222.525 317.190472 
L 223.6875 309.378246 
L 224.85 298.104096 
L 226.0125 296.780974 
L 227.175 299.360778 
L 228.3375 300.506355 
L 229.5 297.251335 
L 230.6625 295.019843 
L 231.825 290.234274 
L 232.9875 290.368964 
L 235.3125 289.927005 
L 236.475 294.437918 
L 237.6375 295.166068 
L 238.8 296.726462 
L 239.9625 303.494125 
L 241.125 310.92367 
L 243.45 318.659009 
L 244.6125 316.417984 
L 245.775 310.629926 
L 246.9375 308.628343 
L 248.1 313.480341 
L 249.2625 309.052016 
L 250.425 312.155621 
L 251.5875 321.34122 
L 252.75 319.656618 
L 253.9125 312.0486 
L 255.075 321.129019 
L 256.2375 323.049154 
L 257.4 318.90472 
L 258.5625 325.870315 
L 259.725 335.421577 
L 260.8875 332.023177 
L 262.05 331.649897 
L 263.2125 334.491691 
L 264.375 335.134342 
L 265.5375 332.395439 
L 266.7 336.252827 
L 267.8625 338.571557 
L 269.025 335.496213 
L 270.1875 333.812376 
L 271.35 334.330216 
L 272.5125 330.276064 
L 273.675 329.776364 
L 274.8375 334.094709 
L 276 337.980145 
L 277.1625 339.602789 
L 278.325 344.373265 
L 279.4875 346.279863 
L 280.65 347.03817 
L 281.8125 345.145406 
L 282.975 339.337935 
L 284.1375 334.373985 
L 285.3 333.5082 
L 286.4625 333.233373 
L 287.625 334.854738 
L 288.7875 339.236266 
L 289.95 341.531667 
L 291.1125 342.95659 
L 292.275 341.922076 
L 293.4375 338.9291 
L 294.6 339.623684 
L 295.7625 338.448072 
L 296.925 338.062285 
L 298.0875 339.659173 
L 299.25 339.553199 
L 300.4125 337.960457 
L 301.575 339.828601 
L 302.7375 337.816389 
L 303.9 335.466094 
L 305.0625 339.665585 
L 306.225 339.46827 
L 307.3875 341.35401 
L 308.55 340.634845 
L 309.7125 340.413419 
L 310.875 337.891346 
L 312.0375 337.233838 
L 313.2 336.763615 
L 314.3625 338.355538 
L 315.525 339.5947 
L 316.6875 340.006598 
L 317.85 343.293236 
L 319.0125 342.532266 
L 320.175 344.061023 
L 321.3375 346.065638 
L 322.5 347.222525 
L 323.6625 344.559595 
L 324.825 344.231138 
L 325.9875 342.462108 
L 327.15 338.525639 
L 328.3125 336.496462 
L 329.475 339.53958 
L 330.6375 340.656776 
L 331.8 343.139548 
L 332.9625 344.732668 
L 334.125 344.794941 
L 335.2875 343.079462 
L 336.45 341.011226 
L 337.6125 339.831171 
L 338.775 340.540269 
L 339.9375 340.949024 
L 341.1 340.828267 
L 342.2625 341.967265 
L 343.425 342.095976 
L 344.5875 342.817936 
L 345.75 343.863435 
L 346.9125 345.436704 
L 348.075 346.214003 
L 349.2375 346.018152 
L 351.5625 344.666148 
L 352.725 343.780188 
L 353.8875 342.480743 
L 355.05 343.159105 
L 356.2125 344.23392 
L 357.375 344.503288 
L 358.5375 342.945966 
L 359.7 340.200643 
L 360.8625 336.884195 
L 362.025 334.261457 
L 363.1875 334.340302 
L 365.5125 340.001155 
L 366.675 343.077657 
L 367.8375 346.495518 
L 369 347.409518 
L 370.1625 344.480424 
L 371.325 342.997706 
L 372.4875 342.109818 
L 373.65 341.527807 
L 374.8125 341.517699 
L 375.975 343.168565 
L 377.1375 346.713552 
L 378.3 348.009892 
L 379.4625 348.884102 
L 380.625 350.685962 
L 381.7875 351.087282 
L 382.95 349.088897 
L 384.1125 348.030601 
L 385.275 346.464936 
L 386.4375 343.779736 
L 387.6 343.140046 
L 388.7625 343.346594 
L 389.925 344.343663 
L 391.0875 346.00933 
L 392.25 347.924712 
L 393.4125 347.975793 
L 394.575 347.882263 
L 395.7375 348.478946 
L 396.9 347.813929 
L 398.0625 345.139984 
L 399.225 342.87265 
L 400.3875 342.230132 
L 401.55 342.602164 
L 402.7125 344.216992 
L 403.875 345.379052 
L 405.0375 346.769662 
L 406.2 347.886591 
L 408.525 343.200029 
L 409.6875 343.342426 
L 410.85 344.183408 
L 412.0125 344.311894 
L 413.175 345.774011 
L 414.3375 347.978232 
L 415.5 349.867315 
L 416.6625 350.927834 
L 417.825 350.584769 
L 418.9875 351.73737 
L 420.15 351.415199 
L 421.3125 351.566792 
L 422.475 351.136863 
L 423.6375 350.140163 
L 424.8 348.031447 
L 427.125 345.280961 
L 428.2875 346.106746 
L 429.45 347.629776 
L 430.6125 347.594493 
L 432.9375 344.465552 
L 434.1 343.633272 
L 435.2625 344.952875 
L 436.425 347.511855 
L 437.5875 351.262562 
L 438.75 353.115994 
L 441.075 351.360012 
L 442.2375 349.291899 
L 443.4 346.708591 
L 444.5625 346.400943 
L 445.725 346.576214 
L 446.8875 347.502709 
L 449.2125 347.665183 
L 450.375 348.578927 
L 451.5375 350.501789 
L 452.7 350.174877 
L 455.025 353.087684 
L 456.1875 351.176749 
L 457.35 348.305439 
L 458.5125 346.75511 
L 459.675 346.070715 
L 460.8375 345.028646 
L 462 345.345331 
L 463.1625 345.220872 
L 464.325 343.18214 
L 465.4875 341.778362 
L 466.65 342.45819 
L 467.8125 341.793874 
L 468.975 341.829963 
L 470.1375 343.705938 
L 471.3 345.06043 
L 475.95 344.563122 
L 477.1125 343.801391 
L 478.275 343.383084 
L 479.4375 345.413602 
L 480.6 348.36825 
L 481.7625 350.560556 
L 482.925 352.080598 
L 484.0875 352.911334 
L 485.25 353.144992 
L 486.4125 352.891068 
L 487.575 351.763297 
L 488.7375 351.493153 
L 489.9 351.970683 
L 491.0625 351.842272 
L 492.225 351.489213 
L 493.3875 351.82817 
L 494.55 351.344635 
L 495.7125 349.665033 
L 496.875 348.471614 
L 498.0375 348.377133 
L 499.2 347.823563 
L 500.3625 346.30533 
L 501.525 345.277174 
L 502.6875 346.056128 
L 503.85 345.607776 
L 505.0125 344.646218 
L 506.175 346.737386 
L 507.3375 349.384142 
L 508.5 349.565225 
L 509.6625 350.308082 
L 510.825 352.041573 
L 513.15 351.964439 
L 514.3125 352.720356 
L 515.475 352.038816 
L 516.6375 350.317012 
L 518.9625 347.944287 
L 520.125 347.191105 
L 522.45 349.824818 
L 523.6125 351.328921 
L 524.775 352.585286 
L 525.9375 352.830958 
L 527.1 351.582508 
L 528.2625 350.70605 
L 529.425 350.27775 
L 531.75 350.947793 
L 532.9125 350.154771 
L 534.075 349.585892 
L 535.2375 349.770104 
L 536.4 349.30478 
L 537.5625 348.013874 
L 538.725 348.17904 
L 539.8875 348.524208 
L 541.05 347.581627 
L 543.375 346.09933 
L 544.5375 345.487793 
L 546.8625 347.866213 
L 548.025 348.172398 
L 549.1875 350.918691 
L 550.35 351.875184 
L 551.5125 351.108287 
L 552.675 349.490317 
L 553.8375 347.505615 
L 555 345.980793 
L 556.1625 346.607876 
L 557.325 346.186665 
L 558.4875 347.187876 
L 559.65 350.150342 
L 560.8125 350.785562 
L 561.975 349.957889 
L 564.3 349.396736 
L 565.4625 347.964595 
L 566.625 346.231775 
L 567.7875 345.307015 
L 568.95 345.807877 
L 570.1125 347.286069 
L 571.275 348.195743 
L 573.6 351.96325 
L 574.7625 352.035874 
L 575.925 349.952611 
L 577.0875 349.002181 
L 578.25 347.489238 
L 579.4125 346.423997 
L 580.575 346.339184 
L 582.9 343.133554 
L 584.0625 344.468732 
L 585.225 344.683652 
L 586.3875 343.944045 
L 587.55 345.831154 
L 588.7125 347.969098 
L 589.875 348.186305 
L 591.0375 349.803804 
L 592.2 351.107971 
L 593.3625 350.989885 
L 594.525 350.585347 
L 595.6875 350.605218 
L 596.85 349.18991 
L 598.0125 349.626077 
L 599.175 351.49177 
L 600.3375 352.585947 
L 601.5 352.84985 
L 602.6625 353.475553 
L 603.825 353.148126 
L 606.15 350.263802 
L 607.3125 349.846966 
L 608.475 349.605769 
L 609.6375 348.386528 
L 610.8 348.089311 
L 611.9625 348.421468 
L 613.125 347.058625 
L 614.2875 346.109002 
L 615.45 346.989148 
L 616.6125 348.144933 
L 617.775 348.876466 
L 618.9375 349.100322 
L 620.1 348.787516 
L 621.2625 347.876783 
L 622.425 346.658024 
L 623.5875 346.171756 
L 624.75 346.917572 
L 624.75 346.917572 
" style="fill:none;stroke:#0000ff;stroke-linecap:square;stroke-width:1.5;"/>
   </g>
   <g id="line2d_25">
    <path clip-path="url(#p66e120cb3c)" d="M 88.8375 348.983311 
L 96.975 349.048069 
L 102.7875 349.091395 
L 107.4375 348.907483 
L 112.0875 348.835441 
L 114.4125 348.881322 
L 119.0625 348.726714 
L 128.3625 348.919387 
L 131.85 348.843813 
L 136.5 348.906593 
L 141.15 348.91436 
L 144.6375 348.858676 
L 151.6125 349.002198 
L 162.075 349.049028 
L 167.8875 348.952954 
L 172.5375 348.893344 
L 174.8625 348.873226 
L 181.8375 348.985038 
L 186.4875 348.961679 
L 191.1375 349.007977 
L 193.4625 348.940227 
L 195.7875 348.890584 
L 203.925 348.095688 
L 206.25 347.701616 
L 207.4125 347.234188 
L 209.7375 346.03529 
L 212.0625 345.258871 
L 213.225 342.225303 
L 214.3875 335.58674 
L 215.55 327.719125 
L 216.7125 318.818124 
L 217.875 311.369715 
L 219.0375 307.760769 
L 220.2 306.554331 
L 221.3625 306.887333 
L 222.525 307.716346 
L 223.6875 309.255743 
L 226.0125 311.347106 
L 227.175 311.893235 
L 228.3375 313.490019 
L 229.5 313.646976 
L 230.6625 312.768037 
L 231.825 312.925139 
L 232.9875 313.905646 
L 234.15 316.330423 
L 235.3125 320.658233 
L 236.475 322.101841 
L 237.6375 324.998235 
L 238.8 325.745155 
L 239.9625 324.020877 
L 241.125 325.117369 
L 242.2875 327.041842 
L 243.45 327.901586 
L 245.775 326.846887 
L 246.9375 327.4022 
L 248.1 328.261089 
L 249.2625 328.895558 
L 251.5875 331.264855 
L 252.75 331.811415 
L 253.9125 332.079397 
L 255.075 331.533127 
L 256.2375 330.838592 
L 257.4 331.246606 
L 258.5625 330.955436 
L 259.725 330.334159 
L 260.8875 330.606126 
L 262.05 331.23782 
L 263.2125 332.007221 
L 264.375 333.058755 
L 265.5375 333.640739 
L 266.7 333.678844 
L 267.8625 333.560698 
L 269.025 333.913672 
L 270.1875 334.064719 
L 271.35 333.901026 
L 272.5125 333.987531 
L 273.675 334.65132 
L 276 334.700078 
L 277.1625 335.106779 
L 278.325 335.732849 
L 279.4875 336.564259 
L 280.65 337.118048 
L 281.8125 336.741941 
L 282.975 336.071287 
L 284.1375 335.632635 
L 285.3 334.954757 
L 286.4625 335.0536 
L 287.625 334.688477 
L 288.7875 333.958353 
L 291.1125 332.138541 
L 292.275 331.819065 
L 293.4375 331.70886 
L 295.7625 330.940771 
L 296.925 331.049327 
L 298.0875 331.377705 
L 299.25 331.888518 
L 301.575 333.171859 
L 303.9 334.412647 
L 305.0625 334.515039 
L 306.225 334.327787 
L 307.3875 334.370041 
L 308.55 335.213668 
L 309.7125 335.180495 
L 310.875 335.351787 
L 312.0375 335.985239 
L 314.3625 335.640959 
L 315.525 336.424288 
L 316.6875 336.770283 
L 317.85 336.881688 
L 319.0125 337.316382 
L 320.175 338.235471 
L 321.3375 338.653129 
L 322.5 338.893493 
L 324.825 339.749487 
L 325.9875 340.308354 
L 327.15 341.066436 
L 328.3125 341.485002 
L 329.475 341.427176 
L 330.6375 341.600269 
L 331.8 342.102641 
L 334.125 342.438122 
L 335.2875 342.694739 
L 337.6125 343.679101 
L 338.775 344.253744 
L 341.1 344.850259 
L 342.2625 345.036198 
L 343.425 344.845851 
L 344.5875 344.786228 
L 351.5625 345.440062 
L 353.8875 345.074674 
L 355.05 345.255546 
L 356.2125 345.088339 
L 358.5375 345.1764 
L 359.7 344.889338 
L 363.1875 344.692157 
L 364.35 344.42593 
L 365.5125 344.660906 
L 366.675 344.573449 
L 367.8375 344.869177 
L 370.1625 344.368575 
L 372.4875 344.247395 
L 373.65 344.527333 
L 377.1375 344.452554 
L 379.4625 344.989612 
L 385.275 345.88487 
L 386.4375 345.875055 
L 387.6 345.607527 
L 388.7625 345.556685 
L 391.0875 346.109505 
L 392.25 346.269371 
L 394.575 345.951351 
L 395.7375 346.029635 
L 402.7125 345.815797 
L 406.2 345.763163 
L 408.525 346.157807 
L 410.85 346.08533 
L 412.0125 346.056268 
L 413.175 346.211158 
L 417.825 346.341367 
L 418.9875 346.277182 
L 422.475 345.299972 
L 423.6375 345.207534 
L 424.8 345.390824 
L 427.125 345.277969 
L 429.45 345.389034 
L 432.9375 345.195522 
L 436.425 345.624246 
L 437.5875 345.971823 
L 439.9125 346.361568 
L 441.075 346.727983 
L 442.2375 346.943733 
L 444.5625 347.072837 
L 449.2125 347.193392 
L 451.5375 347.317594 
L 452.7 347.426906 
L 457.35 347.412655 
L 460.8375 346.803939 
L 463.1625 347.039463 
L 465.4875 346.781458 
L 466.65 346.788536 
L 468.975 346.520065 
L 471.3 346.469476 
L 473.625 346.519188 
L 477.1125 347.058284 
L 478.275 347.095549 
L 482.925 347.787083 
L 485.25 347.621469 
L 487.575 347.656341 
L 488.7375 347.800119 
L 489.9 347.810607 
L 494.55 347.249583 
L 498.0375 347.654646 
L 502.6875 347.556334 
L 505.0125 347.481726 
L 506.175 347.434956 
L 507.3375 347.627508 
L 509.6625 347.429064 
L 515.475 347.940597 
L 518.9625 347.643784 
L 521.2875 347.584353 
L 523.6125 347.284698 
L 524.775 346.996418 
L 525.9375 346.835411 
L 527.1 346.831747 
L 529.425 346.407684 
L 531.75 346.322681 
L 532.9125 346.311354 
L 535.2375 345.973325 
L 538.725 345.961169 
L 541.05 346.369996 
L 543.375 346.873137 
L 545.7 347.275099 
L 548.025 347.690436 
L 552.675 348.274889 
L 555 348.378886 
L 557.325 348.199237 
L 559.65 348.219368 
L 561.975 347.738906 
L 564.3 347.676204 
L 565.4625 347.517607 
L 572.4375 347.71069 
L 575.925 347.910228 
L 579.4125 347.732764 
L 582.9 347.977099 
L 587.55 348.140861 
L 589.875 348.106588 
L 592.2 348.269415 
L 594.525 348.021417 
L 596.85 348.101318 
L 604.9875 347.359891 
L 610.8 347.58796 
L 613.125 347.488641 
L 614.2875 347.312129 
L 622.425 347.632425 
L 624.75 347.575167 
L 627.075 347.479864 
L 628.2375 347.358135 
L 629.4 347.351059 
L 629.4 347.351059 
" style="fill:none;stroke:#008000;stroke-linecap:square;stroke-width:1.5;"/>
   </g>
   <g id="line2d_26">
    <path clip-path="url(#p66e120cb3c)" d="M 88.8375 348.913592 
L 93.4875 348.810721 
L 98.1375 349.003689 
L 101.625 349.105337 
L 103.95 349.040792 
L 108.6 348.701253 
L 112.0875 348.612472 
L 115.575 348.709124 
L 120.225 348.564931 
L 126.0375 348.743155 
L 129.525 348.85895 
L 135.3375 348.712369 
L 141.15 348.857263 
L 145.8 348.746995 
L 152.775 348.979613 
L 163.2375 348.97377 
L 166.725 348.775199 
L 194.625 348.856716 
L 196.95 348.679299 
L 201.6 348.099219 
L 203.925 347.643725 
L 206.25 347.068835 
L 207.4125 346.593661 
L 210.9 344.542222 
L 212.0625 344.136967 
L 213.225 341.839555 
L 214.3875 335.338625 
L 216.7125 315.29332 
L 217.875 309.386437 
L 219.0375 308.500364 
L 220.2 309.151385 
L 222.525 312.634041 
L 223.6875 315.381694 
L 226.0125 316.702037 
L 227.175 316.64706 
L 228.3375 319.419961 
L 229.5 318.822632 
L 230.6625 314.241843 
L 231.825 311.318793 
L 232.9875 311.185001 
L 234.15 313.327413 
L 235.3125 317.316313 
L 236.475 315.86753 
L 237.6375 318.06274 
L 238.8 317.940306 
L 239.9625 315.300344 
L 241.125 317.999101 
L 242.2875 321.765067 
L 243.45 324.340237 
L 245.775 326.295767 
L 246.9375 328.818838 
L 248.1 331.77705 
L 249.2625 334.344186 
L 251.5875 339.977237 
L 252.75 341.516296 
L 253.9125 342.242998 
L 255.075 341.57093 
L 256.2375 340.027756 
L 257.4 339.182043 
L 258.5625 337.847108 
L 259.725 335.910225 
L 260.8875 334.775361 
L 262.05 334.583968 
L 263.2125 335.143815 
L 265.5375 337.759461 
L 266.7 338.33633 
L 267.8625 338.459628 
L 269.025 338.902953 
L 270.1875 339.218697 
L 272.5125 339.16023 
L 273.675 339.846029 
L 274.8375 340.155336 
L 276 340.202349 
L 277.1625 340.546891 
L 278.325 341.227905 
L 279.4875 342.249273 
L 280.65 343.076868 
L 281.8125 342.828875 
L 282.975 341.733965 
L 284.1375 340.394489 
L 285.3 338.740669 
L 288.7875 335.952737 
L 291.1125 333.165905 
L 292.275 332.49833 
L 295.7625 332.428654 
L 296.925 332.974676 
L 298.0875 333.986225 
L 299.25 335.371379 
L 301.575 338.646247 
L 303.9 341.402479 
L 305.0625 341.924932 
L 306.225 341.752629 
L 307.3875 341.433014 
L 308.55 341.847393 
L 310.875 341.479941 
L 312.0375 341.731726 
L 313.2 341.323901 
L 314.3625 340.713334 
L 316.6875 341.228172 
L 317.85 341.292712 
L 319.0125 341.589173 
L 320.175 342.482393 
L 321.3375 343.128047 
L 323.6625 343.71216 
L 325.9875 344.33488 
L 327.15 344.887843 
L 328.3125 345.213479 
L 332.9625 344.362925 
L 335.2875 344.096954 
L 336.45 344.286532 
L 337.6125 344.721287 
L 338.775 345.322077 
L 339.9375 345.757582 
L 341.1 346.039687 
L 342.2625 346.130791 
L 343.425 345.790281 
L 344.5875 345.323688 
L 345.75 344.989447 
L 346.9125 344.787615 
L 349.2375 344.915981 
L 352.725 345.241355 
L 353.8875 345.073317 
L 355.05 345.141969 
L 356.2125 345.083779 
L 358.5375 345.243495 
L 360.8625 345.035097 
L 362.025 345.085462 
L 363.1875 345.001289 
L 364.35 344.784262 
L 366.675 344.990174 
L 367.8375 345.33436 
L 369 345.34512 
L 372.4875 344.850976 
L 374.8125 345.077866 
L 377.1375 345.083064 
L 382.95 346.419929 
L 385.275 346.501099 
L 386.4375 346.382728 
L 388.7625 345.551329 
L 389.925 345.533216 
L 392.25 345.956227 
L 393.4125 345.939536 
L 395.7375 345.781821 
L 402.7125 345.6149 
L 407.3625 346.105692 
L 408.525 346.396912 
L 409.6875 346.552235 
L 417.825 346.378357 
L 418.9875 346.248852 
L 420.15 345.887213 
L 422.475 344.842932 
L 423.6375 344.529619 
L 425.9625 344.846567 
L 428.2875 345.419746 
L 429.45 345.740673 
L 430.6125 345.90034 
L 434.1 345.932468 
L 436.425 346.201846 
L 438.75 346.766675 
L 443.4 347.586507 
L 445.725 347.31494 
L 448.05 346.918019 
L 450.375 346.716808 
L 452.7 346.845304 
L 457.35 347.022388 
L 458.5125 346.867134 
L 460.8375 346.287739 
L 462 346.258616 
L 464.325 346.515307 
L 468.975 346.385786 
L 471.3 346.336925 
L 473.625 346.499279 
L 479.4375 347.620722 
L 482.925 348.090354 
L 484.0875 347.979461 
L 487.575 347.379245 
L 489.9 347.371291 
L 491.0625 347.235674 
L 493.3875 346.635589 
L 494.55 346.503016 
L 495.7125 346.61538 
L 500.3625 347.485493 
L 501.525 347.592009 
L 503.85 347.449847 
L 506.175 347.2652 
L 508.5 347.335109 
L 509.6625 347.237751 
L 510.825 347.263274 
L 515.475 347.913141 
L 516.6375 347.849093 
L 518.9625 347.465189 
L 522.45 347.075344 
L 523.6125 346.840981 
L 525.9375 346.196978 
L 530.5875 345.799801 
L 535.2375 346.085543 
L 538.725 346.230607 
L 539.8875 346.421441 
L 545.7 347.92911 
L 548.025 348.229747 
L 552.675 348.382832 
L 555 348.319316 
L 565.4625 346.732467 
L 567.7875 346.897679 
L 570.1125 347.237273 
L 573.6 347.810821 
L 575.925 348.07641 
L 578.25 347.87526 
L 580.575 347.632524 
L 588.7125 347.966367 
L 591.0375 347.972351 
L 592.2 348.038622 
L 599.175 347.545434 
L 604.9875 346.886364 
L 606.15 346.874646 
L 608.475 347.087703 
L 610.8 347.478613 
L 611.9625 347.558837 
L 613.125 347.523592 
L 615.45 347.240148 
L 620.1 347.343205 
L 622.425 347.556986 
L 627.075 347.298477 
L 629.4 346.987682 
L 629.4 346.987682 
" style="fill:none;stroke:#ffa500;stroke-linecap:square;stroke-width:1.5;"/>
   </g>
   <g id="line2d_27">
    <path clip-path="url(#p66e120cb3c)" d="M 88.8375 354.163523 
L 93.4875 354.127238 
L 99.3 354.67342 
L 102.7875 354.656083 
L 105.1125 354.213201 
L 112.0875 353.907207 
L 113.25 354.092083 
L 114.4125 354.113505 
L 116.7375 353.807185 
L 117.9 353.631835 
L 119.0625 353.611401 
L 121.3875 353.736349 
L 124.875 353.898845 
L 128.3625 354.189765 
L 130.6875 353.923553 
L 135.3375 353.831754 
L 137.6625 354.090083 
L 139.9875 354.150544 
L 142.3125 353.930455 
L 143.475 353.817569 
L 145.8 353.979814 
L 146.9625 354.127393 
L 150.45 354.252426 
L 152.775 354.402315 
L 156.2625 354.365677 
L 158.5875 354.497667 
L 162.075 354.474892 
L 163.2375 354.36771 
L 164.4 354.133984 
L 166.725 354.088437 
L 169.05 354.248836 
L 170.2125 354.162294 
L 171.375 354.210487 
L 173.7 353.953667 
L 177.1875 354.243732 
L 180.675 354.442538 
L 186.4875 354.248654 
L 188.8125 354.364653 
L 189.975 354.305358 
L 191.1375 354.390151 
L 193.4625 354.187854 
L 194.625 354.235724 
L 196.95 353.751682 
L 198.1125 353.508009 
L 199.275 353.437435 
L 201.6 352.651796 
L 202.7625 352.295136 
L 206.25 350.710212 
L 207.4125 349.545054 
L 209.7375 346.799859 
L 212.0625 345.972315 
L 214.3875 336.339481 
L 215.55 334.709579 
L 216.7125 334.001436 
L 217.875 333.663458 
L 220.2 333.629761 
L 222.525 333.976769 
L 223.6875 334.352019 
L 226.0125 334.268257 
L 227.175 334.06679 
L 228.3375 334.264884 
L 229.5 333.974143 
L 230.6625 333.546174 
L 231.825 333.364961 
L 234.15 333.396062 
L 235.3125 333.604631 
L 236.475 333.488567 
L 237.6375 333.590643 
L 241.125 333.527486 
L 243.45 333.873066 
L 245.775 333.863659 
L 249.2625 334.456431 
L 251.5875 335.200775 
L 253.9125 335.395029 
L 256.2375 334.913847 
L 257.4 335.128536 
L 259.725 334.918993 
L 262.05 335.359843 
L 263.2125 335.681158 
L 264.375 336.170067 
L 265.5375 336.366343 
L 267.8625 336.015341 
L 269.025 336.143798 
L 270.1875 336.156337 
L 271.35 336.028036 
L 272.5125 336.083879 
L 273.675 336.503913 
L 276 336.465084 
L 277.1625 336.719416 
L 278.325 337.136393 
L 279.4875 337.771303 
L 280.65 338.136216 
L 282.975 336.85329 
L 285.3 336.199078 
L 286.4625 336.421731 
L 287.625 336.356287 
L 291.1125 335.536324 
L 294.6 335.519554 
L 295.7625 335.361424 
L 298.0875 335.511046 
L 300.4125 335.934245 
L 303.9 336.604715 
L 305.0625 336.4889 
L 306.225 336.244076 
L 307.3875 336.212451 
L 308.55 336.739626 
L 309.7125 336.635032 
L 310.875 336.732126 
L 312.0375 337.168903 
L 313.2 336.903203 
L 314.3625 336.780602 
L 315.525 337.380592 
L 316.6875 337.60226 
L 317.85 337.61267 
L 319.0125 337.920136 
L 320.175 338.766364 
L 321.3375 339.019942 
L 322.5 339.028902 
L 323.6625 339.185504 
L 324.825 339.469244 
L 325.9875 339.897492 
L 327.15 340.671085 
L 328.3125 340.912996 
L 329.475 340.36632 
L 330.6375 340.21242 
L 331.8 340.622226 
L 332.9625 340.578743 
L 334.125 340.65649 
L 335.2875 340.88332 
L 336.45 341.480634 
L 337.6125 342.277938 
L 338.775 343.211635 
L 339.9375 343.581487 
L 341.1 343.792727 
L 342.2625 343.73934 
L 343.425 342.914899 
L 344.5875 342.449975 
L 345.75 342.474656 
L 346.9125 342.623205 
L 349.2375 343.42679 
L 350.4 343.585417 
L 351.5625 343.971261 
L 352.725 343.772301 
L 353.8875 343.347611 
L 355.05 343.766982 
L 356.2125 343.557926 
L 358.5375 344.01994 
L 359.7 343.573861 
L 360.8625 343.590367 
L 362.025 343.834437 
L 363.1875 343.577689 
L 364.35 343.191062 
L 365.5125 343.805604 
L 366.675 343.818898 
L 367.8375 344.591489 
L 370.1625 343.605724 
L 371.325 343.526714 
L 372.4875 343.335413 
L 373.65 343.954461 
L 374.8125 343.935123 
L 375.975 343.804131 
L 377.1375 343.866175 
L 378.3 344.52331 
L 380.625 345.267005 
L 382.95 345.845244 
L 384.1125 345.637939 
L 385.275 345.80941 
L 386.4375 345.481796 
L 387.6 344.597141 
L 388.7625 344.275324 
L 391.0875 345.552439 
L 392.25 346.050808 
L 394.575 345.293215 
L 395.7375 345.427729 
L 396.9 345.346123 
L 398.0625 345.428353 
L 400.3875 345.029915 
L 401.55 345.181454 
L 402.7125 345.460933 
L 403.875 345.604614 
L 406.2 345.685535 
L 408.525 346.74535 
L 409.6875 346.749615 
L 412.0125 346.201827 
L 413.175 346.441606 
L 414.3375 346.46148 
L 415.5 346.640912 
L 416.6625 346.659784 
L 418.9875 346.296365 
L 421.3125 344.740074 
L 422.475 344.108926 
L 423.6375 344.135729 
L 424.8 344.885996 
L 427.125 345.423102 
L 429.45 346.066617 
L 430.6125 345.89268 
L 431.775 345.557184 
L 432.9375 345.43983 
L 435.2625 345.822804 
L 436.425 346.148815 
L 437.5875 346.888887 
L 439.9125 347.49062 
L 441.075 348.165772 
L 442.2375 348.460724 
L 443.4 348.395985 
L 446.8875 347.51801 
L 450.375 347.690732 
L 452.7 348.35905 
L 453.8625 348.42547 
L 455.025 348.370518 
L 456.1875 348.586381 
L 457.35 348.580559 
L 458.5125 348.042048 
L 459.675 347.33752 
L 460.8375 347.079331 
L 462 347.467099 
L 463.1625 348.077081 
L 464.325 348.023141 
L 465.4875 347.82895 
L 466.65 347.936037 
L 467.8125 347.536871 
L 470.1375 347.332814 
L 471.3 347.42434 
L 473.625 347.74629 
L 475.95 348.871107 
L 477.1125 349.246826 
L 478.275 349.233378 
L 481.7625 350.331542 
L 482.925 350.416913 
L 485.25 349.475435 
L 486.4125 349.287477 
L 487.575 349.246323 
L 488.7375 349.632727 
L 489.9 349.735857 
L 491.0625 349.344365 
L 492.225 348.679348 
L 493.3875 348.18644 
L 494.55 348.332016 
L 498.0375 350.105468 
L 499.2 350.236805 
L 500.3625 350.014861 
L 501.525 350.183204 
L 503.85 349.539249 
L 506.175 349.342667 
L 507.3375 349.876466 
L 509.6625 349.408084 
L 510.825 349.681318 
L 513.15 350.585939 
L 514.3125 350.83495 
L 515.475 350.944717 
L 516.6375 350.51032 
L 517.8 349.936356 
L 518.9625 349.751036 
L 520.125 349.748553 
L 522.45 349.33251 
L 523.6125 348.845346 
L 524.775 348.133898 
L 525.9375 347.794425 
L 527.1 347.95134 
L 529.425 347.370983 
L 530.5875 347.408142 
L 532.9125 347.838973 
L 535.2375 347.248013 
L 538.725 347.324221 
L 539.8875 347.71443 
L 542.2125 349.060595 
L 543.375 349.484125 
L 545.7 349.993506 
L 546.8625 350.34816 
L 551.5125 350.981141 
L 553.8375 351.271876 
L 555 351.181936 
L 557.325 350.477148 
L 559.65 350.56344 
L 560.8125 350.031198 
L 561.975 349.37301 
L 564.3 349.457758 
L 565.4625 349.257464 
L 574.7625 351.237463 
L 575.925 351.211811 
L 578.25 350.517295 
L 579.4125 350.292352 
L 580.575 350.337865 
L 581.7375 350.766228 
L 586.3875 351.439266 
L 587.55 351.381083 
L 588.7125 351.16043 
L 589.875 351.153451 
L 592.2 351.615187 
L 594.525 350.889057 
L 596.85 351.083135 
L 601.5 350.189866 
L 602.6625 350.132897 
L 604.9875 349.398676 
L 608.475 350.057426 
L 609.6375 350.614166 
L 611.9625 350.527556 
L 613.125 350.199897 
L 614.2875 349.594335 
L 615.45 349.597777 
L 616.6125 349.776956 
L 617.775 349.655426 
L 618.9375 349.743399 
L 620.1 350.179115 
L 621.2625 350.448733 
L 622.425 350.351474 
L 623.5875 350.080933 
L 625.9125 349.918598 
L 628.2375 349.206713 
L 628.2375 349.206713 
" style="fill:none;stroke:#800080;stroke-linecap:square;stroke-width:1.5;"/>
   </g>
   <g id="patch_3">
    <path d="M 90 384.48 
L 90 51.84 
" style="fill:none;stroke:#000000;stroke-linecap:square;stroke-linejoin:miter;stroke-width:0.8;"/>
   </g>
   <g id="patch_4">
    <path d="M 648 384.48 
L 648 51.84 
" style="fill:none;stroke:#000000;stroke-linecap:square;stroke-linejoin:miter;stroke-width:0.8;"/>
   </g>
   <g id="patch_5">
    <path d="M 90 384.48 
L 648 384.48 
" style="fill:none;stroke:#000000;stroke-linecap:square;stroke-linejoin:miter;stroke-width:0.8;"/>
   </g>
   <g id="patch_6">
    <path d="M 90 51.84 
L 648 51.84 
" style="fill:none;stroke:#000000;stroke-linecap:square;stroke-linejoin:miter;stroke-width:0.8;"/>
   </g>
   <g id="text_14">
    <!-- 48 point Prediction -->
    <defs>
     <path d="M 18.3125 70.21875 
L 18.3125 54.6875 
L 36.8125 54.6875 
L 36.8125 47.703125 
L 18.3125 47.703125 
L 18.3125 18.015625 
Q 18.3125 11.328125 20.140625 9.421875 
Q 21.96875 7.515625 27.59375 7.515625 
L 36.8125 7.515625 
L 36.8125 0 
L 27.59375 0 
Q 17.1875 0 13.234375 3.875 
Q 9.28125 7.765625 9.28125 18.015625 
L 9.28125 47.703125 
L 2.6875 47.703125 
L 2.6875 54.6875 
L 9.28125 54.6875 
L 9.28125 70.21875 
z
" id="DejaVuSans-116"/>
     <path d="M 19.671875 64.796875 
L 19.671875 37.40625 
L 32.078125 37.40625 
Q 38.96875 37.40625 42.71875 40.96875 
Q 46.484375 44.53125 46.484375 51.125 
Q 46.484375 57.671875 42.71875 61.234375 
Q 38.96875 64.796875 32.078125 64.796875 
z
M 9.8125 72.90625 
L 32.078125 72.90625 
Q 44.34375 72.90625 50.609375 67.359375 
Q 56.890625 61.8125 56.890625 51.125 
Q 56.890625 40.328125 50.609375 34.8125 
Q 44.34375 29.296875 32.078125 29.296875 
L 19.671875 29.296875 
L 19.671875 0 
L 9.8125 0 
z
" id="DejaVuSans-80"/>
     <path d="M 45.40625 46.390625 
L 45.40625 75.984375 
L 54.390625 75.984375 
L 54.390625 0 
L 45.40625 0 
L 45.40625 8.203125 
Q 42.578125 3.328125 38.25 0.953125 
Q 33.9375 -1.421875 27.875 -1.421875 
Q 17.96875 -1.421875 11.734375 6.484375 
Q 5.515625 14.40625 5.515625 27.296875 
Q 5.515625 40.1875 11.734375 48.09375 
Q 17.96875 56 27.875 56 
Q 33.9375 56 38.25 53.625 
Q 42.578125 51.265625 45.40625 46.390625 
z
M 14.796875 27.296875 
Q 14.796875 17.390625 18.875 11.75 
Q 22.953125 6.109375 30.078125 6.109375 
Q 37.203125 6.109375 41.296875 11.75 
Q 45.40625 17.390625 45.40625 27.296875 
Q 45.40625 37.203125 41.296875 42.84375 
Q 37.203125 48.484375 30.078125 48.484375 
Q 22.953125 48.484375 18.875 42.84375 
Q 14.796875 37.203125 14.796875 27.296875 
z
" id="DejaVuSans-100"/>
     <path d="M 48.78125 52.59375 
L 48.78125 44.1875 
Q 44.96875 46.296875 41.140625 47.34375 
Q 37.3125 48.390625 33.40625 48.390625 
Q 24.65625 48.390625 19.8125 42.84375 
Q 14.984375 37.3125 14.984375 27.296875 
Q 14.984375 17.28125 19.8125 11.734375 
Q 24.65625 6.203125 33.40625 6.203125 
Q 37.3125 6.203125 41.140625 7.25 
Q 44.96875 8.296875 48.78125 10.40625 
L 48.78125 2.09375 
Q 45.015625 0.34375 40.984375 -0.53125 
Q 36.96875 -1.421875 32.421875 -1.421875 
Q 20.0625 -1.421875 12.78125 6.34375 
Q 5.515625 14.109375 5.515625 27.296875 
Q 5.515625 40.671875 12.859375 48.328125 
Q 20.21875 56 33.015625 56 
Q 37.15625 56 41.109375 55.140625 
Q 45.0625 54.296875 48.78125 52.59375 
z
" id="DejaVuSans-99"/>
    </defs>
    <g transform="translate(312.208125 45.84)scale(0.12 -0.12)">
     <use xlink:href="#DejaVuSans-52"/>
     <use x="63.623047" xlink:href="#DejaVuSans-56"/>
     <use x="127.246094" xlink:href="#DejaVuSans-32"/>
     <use x="159.033203" xlink:href="#DejaVuSans-112"/>
     <use x="222.509766" xlink:href="#DejaVuSans-111"/>
     <use x="283.691406" xlink:href="#DejaVuSans-105"/>
     <use x="311.474609" xlink:href="#DejaVuSans-110"/>
     <use x="374.853516" xlink:href="#DejaVuSans-116"/>
     <use x="414.0625" xlink:href="#DejaVuSans-32"/>
     <use x="445.849609" xlink:href="#DejaVuSans-80"/>
     <use x="506.136719" xlink:href="#DejaVuSans-114"/>
     <use x="547.21875" xlink:href="#DejaVuSans-101"/>
     <use x="608.742188" xlink:href="#DejaVuSans-100"/>
     <use x="672.21875" xlink:href="#DejaVuSans-105"/>
     <use x="700.001953" xlink:href="#DejaVuSans-99"/>
     <use x="754.982422" xlink:href="#DejaVuSans-116"/>
     <use x="794.191406" xlink:href="#DejaVuSans-105"/>
     <use x="821.974609" xlink:href="#DejaVuSans-111"/>
     <use x="883.15625" xlink:href="#DejaVuSans-110"/>
    </g>
   </g>
   <g id="legend_1">
    <g id="patch_7">
     <path d="M 477.804688 133.230625 
L 641 133.230625 
Q 643 133.230625 643 131.230625 
L 643 58.84 
Q 643 56.84 641 56.84 
L 477.804688 56.84 
Q 475.804688 56.84 475.804688 58.84 
L 475.804688 131.230625 
Q 475.804688 133.230625 477.804688 133.230625 
z
" style="fill:#ffffff;opacity:0.8;stroke:#cccccc;stroke-linejoin:miter;"/>
    </g>
    <g id="line2d_28">
     <path d="M 479.804688 64.938437 
L 499.804688 64.938437 
" style="fill:none;stroke:#ff0000;stroke-linecap:square;stroke-width:1.5;"/>
    </g>
    <g id="line2d_29"/>
    <g id="text_15">
     <!-- Transformer-48 Prediction -->
     <defs>
      <path d="M 37.109375 75.984375 
L 37.109375 68.5 
L 28.515625 68.5 
Q 23.6875 68.5 21.796875 66.546875 
Q 19.921875 64.59375 19.921875 59.515625 
L 19.921875 54.6875 
L 34.71875 54.6875 
L 34.71875 47.703125 
L 19.921875 47.703125 
L 19.921875 0 
L 10.890625 0 
L 10.890625 47.703125 
L 2.296875 47.703125 
L 2.296875 54.6875 
L 10.890625 54.6875 
L 10.890625 58.5 
Q 10.890625 67.625 15.140625 71.796875 
Q 19.390625 75.984375 28.609375 75.984375 
z
" id="DejaVuSans-102"/>
      <path d="M 4.890625 31.390625 
L 31.203125 31.390625 
L 31.203125 23.390625 
L 4.890625 23.390625 
z
" id="DejaVuSans-45"/>
     </defs>
     <g transform="translate(507.804688 68.438437)scale(0.1 -0.1)">
      <use xlink:href="#DejaVuSans-84"/>
      <use x="60.865234" xlink:href="#DejaVuSans-114"/>
      <use x="101.978516" xlink:href="#DejaVuSans-97"/>
      <use x="163.257812" xlink:href="#DejaVuSans-110"/>
      <use x="226.636719" xlink:href="#DejaVuSans-115"/>
      <use x="278.736328" xlink:href="#DejaVuSans-102"/>
      <use x="313.941406" xlink:href="#DejaVuSans-111"/>
      <use x="375.123047" xlink:href="#DejaVuSans-114"/>
      <use x="416.220703" xlink:href="#DejaVuSans-109"/>
      <use x="513.632812" xlink:href="#DejaVuSans-101"/>
      <use x="575.15625" xlink:href="#DejaVuSans-114"/>
      <use x="616.175781" xlink:href="#DejaVuSans-45"/>
      <use x="652.259766" xlink:href="#DejaVuSans-52"/>
      <use x="715.882812" xlink:href="#DejaVuSans-56"/>
      <use x="779.505859" xlink:href="#DejaVuSans-32"/>
      <use x="811.292969" xlink:href="#DejaVuSans-80"/>
      <use x="871.580078" xlink:href="#DejaVuSans-114"/>
      <use x="912.662109" xlink:href="#DejaVuSans-101"/>
      <use x="974.185547" xlink:href="#DejaVuSans-100"/>
      <use x="1037.662109" xlink:href="#DejaVuSans-105"/>
      <use x="1065.445312" xlink:href="#DejaVuSans-99"/>
      <use x="1120.425781" xlink:href="#DejaVuSans-116"/>
      <use x="1159.634766" xlink:href="#DejaVuSans-105"/>
      <use x="1187.417969" xlink:href="#DejaVuSans-111"/>
      <use x="1248.599609" xlink:href="#DejaVuSans-110"/>
     </g>
    </g>
    <g id="line2d_30">
     <path d="M 479.804688 79.616562 
L 499.804688 79.616562 
" style="fill:none;stroke:#0000ff;stroke-linecap:square;stroke-width:1.5;"/>
    </g>
    <g id="line2d_31"/>
    <g id="text_16">
     <!-- GroundTruth(smoothed) -->
     <defs>
      <path d="M 59.515625 10.40625 
L 59.515625 29.984375 
L 43.40625 29.984375 
L 43.40625 38.09375 
L 69.28125 38.09375 
L 69.28125 6.78125 
Q 63.578125 2.734375 56.6875 0.65625 
Q 49.8125 -1.421875 42 -1.421875 
Q 24.90625 -1.421875 15.25 8.5625 
Q 5.609375 18.5625 5.609375 36.375 
Q 5.609375 54.25 15.25 64.234375 
Q 24.90625 74.21875 42 74.21875 
Q 49.125 74.21875 55.546875 72.453125 
Q 61.96875 70.703125 67.390625 67.28125 
L 67.390625 56.78125 
Q 61.921875 61.421875 55.765625 63.765625 
Q 49.609375 66.109375 42.828125 66.109375 
Q 29.4375 66.109375 22.71875 58.640625 
Q 16.015625 51.171875 16.015625 36.375 
Q 16.015625 21.625 22.71875 14.15625 
Q 29.4375 6.6875 42.828125 6.6875 
Q 48.046875 6.6875 52.140625 7.59375 
Q 56.25 8.5 59.515625 10.40625 
z
" id="DejaVuSans-71"/>
      <path d="M 31 75.875 
Q 24.46875 64.65625 21.28125 53.65625 
Q 18.109375 42.671875 18.109375 31.390625 
Q 18.109375 20.125 21.3125 9.0625 
Q 24.515625 -2 31 -13.1875 
L 23.1875 -13.1875 
Q 15.875 -1.703125 12.234375 9.375 
Q 8.59375 20.453125 8.59375 31.390625 
Q 8.59375 42.28125 12.203125 53.3125 
Q 15.828125 64.359375 23.1875 75.875 
z
" id="DejaVuSans-40"/>
      <path d="M 8.015625 75.875 
L 15.828125 75.875 
Q 23.140625 64.359375 26.78125 53.3125 
Q 30.421875 42.28125 30.421875 31.390625 
Q 30.421875 20.453125 26.78125 9.375 
Q 23.140625 -1.703125 15.828125 -13.1875 
L 8.015625 -13.1875 
Q 14.5 -2 17.703125 9.0625 
Q 20.90625 20.125 20.90625 31.390625 
Q 20.90625 42.671875 17.703125 53.65625 
Q 14.5 64.65625 8.015625 75.875 
z
" id="DejaVuSans-41"/>
     </defs>
     <g transform="translate(507.804688 83.116562)scale(0.1 -0.1)">
      <use xlink:href="#DejaVuSans-71"/>
      <use x="77.490234" xlink:href="#DejaVuSans-114"/>
      <use x="118.572266" xlink:href="#DejaVuSans-111"/>
      <use x="179.753906" xlink:href="#DejaVuSans-117"/>
      <use x="243.132812" xlink:href="#DejaVuSans-110"/>
      <use x="306.511719" xlink:href="#DejaVuSans-100"/>
      <use x="369.988281" xlink:href="#DejaVuSans-84"/>
      <use x="430.853516" xlink:href="#DejaVuSans-114"/>
      <use x="471.966797" xlink:href="#DejaVuSans-117"/>
      <use x="535.345703" xlink:href="#DejaVuSans-116"/>
      <use x="574.554688" xlink:href="#DejaVuSans-104"/>
      <use x="637.933594" xlink:href="#DejaVuSans-40"/>
      <use x="676.947266" xlink:href="#DejaVuSans-115"/>
      <use x="729.046875" xlink:href="#DejaVuSans-109"/>
      <use x="826.458984" xlink:href="#DejaVuSans-111"/>
      <use x="887.640625" xlink:href="#DejaVuSans-111"/>
      <use x="948.822266" xlink:href="#DejaVuSans-116"/>
      <use x="988.03125" xlink:href="#DejaVuSans-104"/>
      <use x="1051.410156" xlink:href="#DejaVuSans-101"/>
      <use x="1112.933594" xlink:href="#DejaVuSans-100"/>
      <use x="1176.410156" xlink:href="#DejaVuSans-41"/>
     </g>
    </g>
    <g id="line2d_32">
     <path d="M 479.804688 94.294687 
L 499.804688 94.294687 
" style="fill:none;stroke:#008000;stroke-linecap:square;stroke-width:1.5;"/>
    </g>
    <g id="line2d_33"/>
    <g id="text_17">
     <!-- LSTM-48 Prediction -->
     <defs>
      <path d="M 9.8125 72.90625 
L 19.671875 72.90625 
L 19.671875 8.296875 
L 55.171875 8.296875 
L 55.171875 0 
L 9.8125 0 
z
" id="DejaVuSans-76"/>
      <path d="M 53.515625 70.515625 
L 53.515625 60.890625 
Q 47.90625 63.578125 42.921875 64.890625 
Q 37.9375 66.21875 33.296875 66.21875 
Q 25.25 66.21875 20.875 63.09375 
Q 16.5 59.96875 16.5 54.203125 
Q 16.5 49.359375 19.40625 46.890625 
Q 22.3125 44.4375 30.421875 42.921875 
L 36.375 41.703125 
Q 47.40625 39.59375 52.65625 34.296875 
Q 57.90625 29 57.90625 20.125 
Q 57.90625 9.515625 50.796875 4.046875 
Q 43.703125 -1.421875 29.984375 -1.421875 
Q 24.8125 -1.421875 18.96875 -0.25 
Q 13.140625 0.921875 6.890625 3.21875 
L 6.890625 13.375 
Q 12.890625 10.015625 18.65625 8.296875 
Q 24.421875 6.59375 29.984375 6.59375 
Q 38.421875 6.59375 43.015625 9.90625 
Q 47.609375 13.234375 47.609375 19.390625 
Q 47.609375 24.75 44.3125 27.78125 
Q 41.015625 30.8125 33.5 32.328125 
L 27.484375 33.5 
Q 16.453125 35.6875 11.515625 40.375 
Q 6.59375 45.0625 6.59375 53.421875 
Q 6.59375 63.09375 13.40625 68.65625 
Q 20.21875 74.21875 32.171875 74.21875 
Q 37.3125 74.21875 42.625 73.28125 
Q 47.953125 72.359375 53.515625 70.515625 
z
" id="DejaVuSans-83"/>
      <path d="M 9.8125 72.90625 
L 24.515625 72.90625 
L 43.109375 23.296875 
L 61.8125 72.90625 
L 76.515625 72.90625 
L 76.515625 0 
L 66.890625 0 
L 66.890625 64.015625 
L 48.09375 14.015625 
L 38.1875 14.015625 
L 19.390625 64.015625 
L 19.390625 0 
L 9.8125 0 
z
" id="DejaVuSans-77"/>
     </defs>
     <g transform="translate(507.804688 97.794687)scale(0.1 -0.1)">
      <use xlink:href="#DejaVuSans-76"/>
      <use x="55.712891" xlink:href="#DejaVuSans-83"/>
      <use x="119.189453" xlink:href="#DejaVuSans-84"/>
      <use x="180.273438" xlink:href="#DejaVuSans-77"/>
      <use x="266.552734" xlink:href="#DejaVuSans-45"/>
      <use x="302.636719" xlink:href="#DejaVuSans-52"/>
      <use x="366.259766" xlink:href="#DejaVuSans-56"/>
      <use x="429.882812" xlink:href="#DejaVuSans-32"/>
      <use x="461.669922" xlink:href="#DejaVuSans-80"/>
      <use x="521.957031" xlink:href="#DejaVuSans-114"/>
      <use x="563.039062" xlink:href="#DejaVuSans-101"/>
      <use x="624.5625" xlink:href="#DejaVuSans-100"/>
      <use x="688.039062" xlink:href="#DejaVuSans-105"/>
      <use x="715.822266" xlink:href="#DejaVuSans-99"/>
      <use x="770.802734" xlink:href="#DejaVuSans-116"/>
      <use x="810.011719" xlink:href="#DejaVuSans-105"/>
      <use x="837.794922" xlink:href="#DejaVuSans-111"/>
      <use x="898.976562" xlink:href="#DejaVuSans-110"/>
     </g>
    </g>
    <g id="line2d_34">
     <path d="M 479.804688 108.972812 
L 499.804688 108.972812 
" style="fill:none;stroke:#ffa500;stroke-linecap:square;stroke-width:1.5;"/>
    </g>
    <g id="line2d_35"/>
    <g id="text_18">
     <!-- GRU-48 Prediction -->
     <defs>
      <path d="M 44.390625 34.1875 
Q 47.5625 33.109375 50.5625 29.59375 
Q 53.5625 26.078125 56.59375 19.921875 
L 66.609375 0 
L 56 0 
L 46.6875 18.703125 
Q 43.0625 26.03125 39.671875 28.421875 
Q 36.28125 30.8125 30.421875 30.8125 
L 19.671875 30.8125 
L 19.671875 0 
L 9.8125 0 
L 9.8125 72.90625 
L 32.078125 72.90625 
Q 44.578125 72.90625 50.734375 67.671875 
Q 56.890625 62.453125 56.890625 51.90625 
Q 56.890625 45.015625 53.6875 40.46875 
Q 50.484375 35.9375 44.390625 34.1875 
z
M 19.671875 64.796875 
L 19.671875 38.921875 
L 32.078125 38.921875 
Q 39.203125 38.921875 42.84375 42.21875 
Q 46.484375 45.515625 46.484375 51.90625 
Q 46.484375 58.296875 42.84375 61.546875 
Q 39.203125 64.796875 32.078125 64.796875 
z
" id="DejaVuSans-82"/>
      <path d="M 8.6875 72.90625 
L 18.609375 72.90625 
L 18.609375 28.609375 
Q 18.609375 16.890625 22.84375 11.734375 
Q 27.09375 6.59375 36.625 6.59375 
Q 46.09375 6.59375 50.34375 11.734375 
Q 54.59375 16.890625 54.59375 28.609375 
L 54.59375 72.90625 
L 64.5 72.90625 
L 64.5 27.390625 
Q 64.5 13.140625 57.4375 5.859375 
Q 50.390625 -1.421875 36.625 -1.421875 
Q 22.796875 -1.421875 15.734375 5.859375 
Q 8.6875 13.140625 8.6875 27.390625 
z
" id="DejaVuSans-85"/>
     </defs>
     <g transform="translate(507.804688 112.472812)scale(0.1 -0.1)">
      <use xlink:href="#DejaVuSans-71"/>
      <use x="77.490234" xlink:href="#DejaVuSans-82"/>
      <use x="146.972656" xlink:href="#DejaVuSans-85"/>
      <use x="220.166016" xlink:href="#DejaVuSans-45"/>
      <use x="256.25" xlink:href="#DejaVuSans-52"/>
      <use x="319.873047" xlink:href="#DejaVuSans-56"/>
      <use x="383.496094" xlink:href="#DejaVuSans-32"/>
      <use x="415.283203" xlink:href="#DejaVuSans-80"/>
      <use x="475.570312" xlink:href="#DejaVuSans-114"/>
      <use x="516.652344" xlink:href="#DejaVuSans-101"/>
      <use x="578.175781" xlink:href="#DejaVuSans-100"/>
      <use x="641.652344" xlink:href="#DejaVuSans-105"/>
      <use x="669.435547" xlink:href="#DejaVuSans-99"/>
      <use x="724.416016" xlink:href="#DejaVuSans-116"/>
      <use x="763.625" xlink:href="#DejaVuSans-105"/>
      <use x="791.408203" xlink:href="#DejaVuSans-111"/>
      <use x="852.589844" xlink:href="#DejaVuSans-110"/>
     </g>
    </g>
    <g id="line2d_36">
     <path d="M 479.804688 123.650937 
L 499.804688 123.650937 
" style="fill:none;stroke:#800080;stroke-linecap:square;stroke-width:1.5;"/>
    </g>
    <g id="line2d_37"/>
    <g id="text_19">
     <!-- RNN-48 Prediction -->
     <defs>
      <path d="M 9.8125 72.90625 
L 23.09375 72.90625 
L 55.421875 11.921875 
L 55.421875 72.90625 
L 64.984375 72.90625 
L 64.984375 0 
L 51.703125 0 
L 19.390625 60.984375 
L 19.390625 0 
L 9.8125 0 
z
" id="DejaVuSans-78"/>
     </defs>
     <g transform="translate(507.804688 127.150937)scale(0.1 -0.1)">
      <use xlink:href="#DejaVuSans-82"/>
      <use x="69.482422" xlink:href="#DejaVuSans-78"/>
      <use x="144.287109" xlink:href="#DejaVuSans-78"/>
      <use x="219.091797" xlink:href="#DejaVuSans-45"/>
      <use x="255.175781" xlink:href="#DejaVuSans-52"/>
      <use x="318.798828" xlink:href="#DejaVuSans-56"/>
      <use x="382.421875" xlink:href="#DejaVuSans-32"/>
      <use x="414.208984" xlink:href="#DejaVuSans-80"/>
      <use x="474.496094" xlink:href="#DejaVuSans-114"/>
      <use x="515.578125" xlink:href="#DejaVuSans-101"/>
      <use x="577.101562" xlink:href="#DejaVuSans-100"/>
      <use x="640.578125" xlink:href="#DejaVuSans-105"/>
      <use x="668.361328" xlink:href="#DejaVuSans-99"/>
      <use x="723.341797" xlink:href="#DejaVuSans-116"/>
      <use x="762.550781" xlink:href="#DejaVuSans-105"/>
      <use x="790.333984" xlink:href="#DejaVuSans-111"/>
      <use x="851.515625" xlink:href="#DejaVuSans-110"/>
     </g>
    </g>
   </g>
  </g>
 </g>
 <defs>
  <clipPath id="p66e120cb3c">
   <rect height="332.64" width="558" x="90" y="51.84"/>
  </clipPath>
 </defs>
</svg>
